SplineFontDB: 3.0
FontName: SourceCodeProForPowerline-Semibold
FullName: Source Code Pro Semibold for Powerline
FamilyName: Source Code Pro for Powerline
Weight: Demi
Copyright: Copyright 2010, 2012 Adobe Systems Incorporated. All Rights Reserved.
Version: 1.0
ItalicAngle: 0
UnderlinePosition: -100
UnderlineWidth: 50
Ascent: 750
Descent: 250
InvalidEm: 0
sfntRevision: 0x000207ae
LayerCount: 2
Layer: 0 0 "Back" 1
Layer: 1 0 "Fore" 0
XUID: [1021 144 -82218972 25632]
BaseHoriz: 2 'ideo' 'romn'
BaseScript: 'DFLT' 1  -170 0
BaseScript: 'cyrl' 1  -170 0
BaseScript: 'grek' 1  -170 0
BaseScript: 'latn' 1  -170 0
StyleMap: 0x0000
FSType: 0
OS2Version: 3
OS2_WeightWidthSlopeOnly: 0
OS2_UseTypoMetrics: 0
CreationTime: 1465456849
ModificationTime: 1542100426
PfmFamily: 17
TTFWeight: 600
TTFWidth: 5
LineGap: 0
VLineGap: 0
Panose: 2 11 6 9 3 4 3 2 2 4
OS2TypoAscent: 750
OS2TypoAOffset: 0
OS2TypoDescent: -250
OS2TypoDOffset: 0
OS2TypoLinegap: 0
OS2WinAscent: 984
OS2WinAOffset: 0
OS2WinDescent: 273
OS2WinDOffset: 0
HheadAscent: 984
HheadAOffset: 0
HheadDescent: -273
HheadDOffset: 0
OS2SubXSize: 650
OS2SubYSize: 600
OS2SubXOff: 0
OS2SubYOff: 75
OS2SupXSize: 650
OS2SupYSize: 600
OS2SupXOff: 0
OS2SupYOff: 350
OS2StrikeYSize: 50
OS2StrikeYPos: 288
OS2CapHeight: 660
OS2XHeight: 480
OS2Vendor: 'ADBO'
OS2CodePages: 6000019f.00000000
OS2UnicodeRanges: 200002f7.02003803.00000000.00000000
Lookup: 1 0 0 "'ss02' Style Set 2 lookup 0" { "'ss02' Style Set 2 lookup 0 subtable"  } ['cv01' ('DFLT' <'dflt' > 'cyrl' <'SRB ' 'dflt' > 'grek' <'dflt' > 'latn' <'ATH ' 'NSM ' 'SKS ' 'dflt' > ) 'salt' ('DFLT' <'dflt' > 'cyrl' <'SRB ' 'dflt' > 'grek' <'dflt' > 'latn' <'ATH ' 'NSM ' 'SKS ' 'dflt' > ) 'ss02' ('DFLT' <'dflt' > 'cyrl' <'SRB ' 'dflt' > 'grek' <'dflt' > 'latn' <'ATH ' 'NSM ' 'SKS ' 'dflt' > ) ]

StartChar: .notdef
Encoding: 1114112 -1 0
Width: 599
Flags: MW
HStem: 0 75<194 404 194 552> 584 76<203 396 203 203>
VStem: 48 82<133 133 133 549> 469 83<133 549 549 549>
LayerCount: 2
Fore
SplineSet
48 0 m 1
 48 660 l 1
 552 660 l 1
 552 0 l 1
 48 0 l 1
194 75 m 1
 404 75 l 1
 348 179 l 1
 302 279 l 1
 298 279 l 1
 251 179 l 1
 194 75 l 1
130 133 m 1
 241 340 l 1
 130 549 l 1
 130 133 l 1
298 401 m 1
 302 401 l 1
 348 495 l 1
 396 584 l 1
 203 584 l 1
 252 495 l 1
 298 401 l 1
359 340 m 1
 469 133 l 1
 469 549 l 1
 359 340 l 1
EndSplineSet
Validated: 1
EndChar

StartChar: exclam
Encoding: 33 33 2
Width: 599
GlyphClass: 2
Flags: MW
HStem: -12 21G<275.5 324.5> -12 178<275.5 324.5>
VStem: 213 174<51 104.5> 245 111 254 92
LayerCount: 2
Fore
SplineSet
262 244 m 1x88
 246 556 l 1
 243 670 l 1
 357 670 l 1
 354 556 l 1
 338 244 l 1x90
 262 244 l 1x88
300 -12 m 0xa0
 251 -12 213 24 213 78 c 0
 213 131 251 166 300 166 c 0x60
 349 166 387 131 387 78 c 0
 387 24 349 -12 300 -12 c 0xa0
EndSplineSet
Validated: 1
EndChar

StartChar: quotedbl
Encoding: 34 34 3
Width: 599
GlyphClass: 2
Flags: MW
HStem: 327 359<139 139 139 213 387 461 387 387>
VStem: 107 137 355 137
LayerCount: 2
Fore
SplineSet
139 327 m 1
 109 558 l 1
 106 686 l 1
 246 686 l 1
 243 558 l 1
 213 327 l 1
 139 327 l 1
387 327 m 1
 357 558 l 1
 354 686 l 1
 494 686 l 1
 491 558 l 1
 461 327 l 1
 387 327 l 1
EndSplineSet
Validated: 1
EndChar

StartChar: numbersign
Encoding: 35 35 4
Width: 599
GlyphClass: 2
Flags: MW
HStem: 0 21G<132 202 132 132 319 389 319 319> 195 76<78 156 78 165 235 343 78 225 422 506> 400 76<98 181 98 191 98 250 259 368 447 526>
VStem: 78 448<195 476 271 476>
LayerCount: 2
Fore
SplineSet
319 0 m 1
 343 195 l 1
 225 195 l 1
 202 0 l 1
 132 0 l 1
 156 195 l 1
 78 195 l 1
 78 271 l 1
 165 271 l 1
 181 400 l 1
 98 400 l 1
 98 476 l 1
 191 476 l 1
 212 650 l 1
 280 650 l 1
 259 476 l 1
 378 476 l 1
 399 650 l 1
 468 650 l 1
 447 476 l 1
 526 476 l 1
 526 400 l 1
 438 400 l 1
 422 271 l 1
 506 271 l 1
 506 195 l 1
 413 195 l 1
 389 0 l 1
 319 0 l 1
352 271 m 1
 368 400 l 1
 250 400 l 1
 235 271 l 1
 352 271 l 1
EndSplineSet
Validated: 1
EndChar

StartChar: dollar
Encoding: 36 36 5
Width: 599
GlyphClass: 2
Flags: MW
HStem: -110 238<274.5 341 274.5 345 265 341> 35 93<265 341> 524 92<274.5 345> 524 222<274.5 332.5>
VStem: 102 111<415 480 415 501> 265 80<-110 35 35 35 616 746> 406 112<174 245.5>
LayerCount: 2
Fore
SplineSet
74 114 m 1x4e
 126 193 l 1
 183 155 240 128 309 128 c 0
 373 128 406 154 406 194 c 0
 406 297 102 279 102 458 c 0
 102 544 166 602 265 615 c 1
 265 746 l 1
 345 746 l 1x5e
 345 616 l 1
 415 608 463 578 504 537 c 1x2e
 446 470 l 1
 399 505 363 524 302 524 c 0
 247 524 213 500 213 460 c 0
 213 370 518 385 518 202 c 0
 518 117 454 53 345 37 c 1
 345 -110 l 1
 265 -110 l 1x9e
 265 35 l 1
 196 42 123 73 74 114 c 1x4e
EndSplineSet
Validated: 1
Substitution2: "'ss06' Style Set 6 lookup 12 subtable" dollar.a
EndChar

StartChar: percent
Encoding: 37 37 6
Width: 599
GlyphClass: 2
Flags: MW
HStem: -12 64<413 447 413 471.5> 256 64<413 447> 316 64<153 187 153 211.5> 584 64<153 187>
VStem: 26 82<447 521 447 536> 232 82<447 521> 286 82<119 193 119 208> 492 82<119 193>
LayerCount: 2
Fore
SplineSet
170 316 m 0xbd
 87 316 26 380 26 484 c 0
 26 588 87 648 170 648 c 0
 253 648 314 588 314 484 c 0
 314 380 253 316 170 316 c 0xbd
170 380 m 0
 204 380 232 410 232 484 c 0
 232 558 204 584 170 584 c 0
 136 584 108 558 108 484 c 0
 108 410 136 380 170 380 c 0
85 30 m 1
 23 89 l 1
 208 270 l 1
 250 231 l 1
 85 30 l 1
394 384 m 1
 352 423 l 1
 517 624 l 1
 579 565 l 1
 394 384 l 1
430 -12 m 0xc3
 347 -12 286 52 286 156 c 0
 286 260 347 320 430 320 c 0
 513 320 574 260 574 156 c 0
 574 52 513 -12 430 -12 c 0xc3
430 52 m 0
 464 52 492 82 492 156 c 0
 492 230 464 256 430 256 c 0
 396 256 368 230 368 156 c 0
 368 82 396 52 430 52 c 0
EndSplineSet
Validated: 1
EndChar

StartChar: ampersand
Encoding: 38 38 7
Width: 599
GlyphClass: 2
Flags: MW
HStem: -12 89<218.5 265 218.5 271.5> 588 78<239.5 276>
VStem: 32 110<148.5 198.5 148.5 215.5> 103 96<489 529 489 548> 308 90<501.5 543.5>
LayerCount: 2
Fore
SplineSet
235 -12 m 0xe8
 109 -12 32 69 32 172 c 0xe8
 32 259 86 312 146 355 c 1
 119 408 103 459 103 503 c 0xd8
 103 593 163 666 256 666 c 0
 345 666 398 610 398 527 c 0
 398 443 331 390 265 339 c 1
 303 286 352 234 404 191 c 1
 434 238 457 295 472 361 c 1
 578 361 l 1
 556 279 524 202 480 134 c 1
 517 109 551 91 582 82 c 1
 553 -12 l 1
 508 0 462 23 415 56 c 1
 367 15 308 -12 235 -12 c 0xe8
199 504 m 0xd8
 199 474 208 442 224 409 c 1
 271 442 308 477 308 526 c 0
 308 561 295 588 257 588 c 0
 222 588 199 554 199 504 c 0xd8
249 77 m 0
 281 77 312 91 340 115 c 1
 285 163 233 220 192 279 c 1
 163 250 142 218 142 179 c 0xe8
 142 118 188 77 249 77 c 0
EndSplineSet
Validated: 1
EndChar

StartChar: quotesingle
Encoding: 39 39 8
Width: 599
GlyphClass: 2
Flags: MW
HStem: 327 359<263 263 263 337>
VStem: 231 137
LayerCount: 2
Fore
SplineSet
263 327 m 1
 233 558 l 1
 230 686 l 1
 370 686 l 1
 367 558 l 1
 337 327 l 1
 263 327 l 1
EndSplineSet
Validated: 1
EndChar

StartChar: parenleft
Encoding: 40 40 9
Width: 599
GlyphClass: 2
Flags: MW
HStem: -177 910<412 412>
VStem: 194 99<196.5 359.5 196.5 373>
LayerCount: 2
Fore
SplineSet
412 -177 m 1
 278 -66 194 88 194 278 c 0
 194 468 278 622 412 733 c 1
 476 680 l 1
 349 565 293 441 293 278 c 0
 293 115 349 -9 476 -124 c 1
 412 -177 l 1
EndSplineSet
Validated: 1
Substitution2: "'subs' Subscript lookup 29 subtable" parenleft.subs
Substitution2: "'sups' Superscript lookup 27 subtable" parenleft.sups
Substitution2: "'dnom' Denominators lookup 22 subtable" parenleft.dnom
Substitution2: "'numr' Numerators lookup 21 subtable" parenleft.numr
EndChar

StartChar: parenright
Encoding: 41 41 10
Width: 599
GlyphClass: 2
Flags: MW
HStem: -177 910<188 188>
VStem: 307 99<196.5 359.5>
LayerCount: 2
Fore
SplineSet
188 -177 m 1
 124 -124 l 1
 251 -9 307 115 307 278 c 0
 307 441 251 565 124 680 c 1
 188 733 l 1
 322 622 406 468 406 278 c 0
 406 88 322 -66 188 -177 c 1
EndSplineSet
Validated: 1
Substitution2: "'subs' Subscript lookup 29 subtable" parenright.subs
Substitution2: "'sups' Superscript lookup 27 subtable" parenright.sups
Substitution2: "'dnom' Denominators lookup 22 subtable" parenright.dnom
Substitution2: "'numr' Numerators lookup 21 subtable" parenright.numr
EndChar

StartChar: asterisk
Encoding: 42 42 11
Width: 599
GlyphClass: 2
Flags: MW
HStem: 101 460<182 332 268 418>
VStem: 263 74
LayerCount: 2
Fore
SplineSet
182 101 m 1
 129 138 l 1
 232 299 l 1
 74 368 l 1
 93 427 l 1
 258 378 l 1
 268 561 l 1
 332 561 l 1
 342 378 l 1
 507 427 l 1
 526 368 l 1
 368 299 l 1
 471 138 l 1
 418 101 l 1
 300 251 l 1
 182 101 l 1
EndSplineSet
Validated: 1
Substitution2: "'ss01' Style Set 1 lookup 11 subtable" asterisk.a
EndChar

StartChar: plus
Encoding: 43 43 12
Width: 599
GlyphClass: 2
Flags: MW
HStem: 288 84<78 256 78 256 344 522>
VStem: 256 88<99 288 99 288 372 561>
LayerCount: 2
Fore
SplineSet
256 99 m 1
 256 288 l 1
 78 288 l 1
 78 372 l 1
 256 372 l 1
 256 561 l 1
 344 561 l 1
 344 372 l 1
 522 372 l 1
 522 288 l 1
 344 288 l 1
 344 99 l 1
 256 99 l 1
EndSplineSet
Validated: 1
EndChar

StartChar: comma
Encoding: 44 44 13
Width: 599
GlyphClass: 2
Flags: MW
HStem: 7 178<279 305.5>
VStem: 317 96
LayerCount: 2
Fore
SplineSet
219 -215 m 1
 189 -146 l 1
 273 -112 315 -62 317 8 c 1
 312 7 308 7 303 7 c 0
 253 7 209 38 209 96 c 0
 209 151 253 185 305 185 c 0
 376 185 413 128 413 35 c 0
 413 -87 343 -174 219 -215 c 1
EndSplineSet
Validated: 1
Substitution2: "'subs' Subscript lookup 29 subtable" comma.subs
Substitution2: "'sups' Superscript lookup 27 subtable" comma.sups
Substitution2: "'dnom' Denominators lookup 22 subtable" comma.dnom
Substitution2: "'numr' Numerators lookup 21 subtable" comma.numr
EndChar

StartChar: hyphen
Encoding: 45 45 14
Width: 599
GlyphClass: 2
Flags: MW
HStem: 288 84<78 522 78 522>
VStem: 78 444<288 372 288 372>
LayerCount: 2
Fore
SplineSet
78 288 m 1
 78 372 l 1
 522 372 l 1
 522 288 l 1
 78 288 l 1
EndSplineSet
Validated: 1
Substitution2: "'sups' Superscript lookup 28 subtable" hyphen.sups
Substitution2: "'ss01' Style Set 1 lookup 10 subtable" hyphen.a
EndChar

StartChar: period
Encoding: 46 46 15
Width: 599
GlyphClass: 2
Flags: MW
HStem: -12 21G<271.5 328.5> -12 202<271.5 328.5>
VStem: 201 198<60 118>
LayerCount: 2
Fore
SplineSet
300 -12 m 0xa0
 243 -12 201 31 201 89 c 0
 201 147 243 190 300 190 c 0x60
 357 190 399 147 399 89 c 0
 399 31 357 -12 300 -12 c 0xa0
EndSplineSet
Validated: 1
Substitution2: "'subs' Subscript lookup 29 subtable" period.subs
Substitution2: "'sups' Superscript lookup 27 subtable" period.sups
Substitution2: "'dnom' Denominators lookup 22 subtable" period.dnom
Substitution2: "'numr' Numerators lookup 21 subtable" period.numr
EndChar

StartChar: slash
Encoding: 47 47 16
Width: 599
GlyphClass: 2
Flags: MW
HStem: 690 20G<415 514 514 514>
VStem: 86 428
LayerCount: 2
Fore
SplineSet
86 -160 m 1
 415 710 l 1
 514 710 l 1
 185 -160 l 1
 86 -160 l 1
EndSplineSet
Validated: 1
Substitution2: "'frac' Diagonal Fractions lookup 23 subtable" slash.frac
EndChar

StartChar: zero
Encoding: 48 48 17
Width: 599
GlyphClass: 2
Flags: MW
HStem: -12 90<262 338 262 372.5> 254 142<281 319> 558 90<262 338>
VStem: 64 104<234 408 234 428.5> 231 138<303 347> 432 104<234 408>
LayerCount: 2
Fore
SplineSet
300 -12 m 0
 155 -12 64 107 64 321 c 0
 64 536 155 648 300 648 c 0
 445 648 536 536 536 321 c 0
 536 107 445 -12 300 -12 c 0
300 78 m 0
 376 78 432 147 432 321 c 0
 432 495 376 558 300 558 c 0
 224 558 168 495 168 321 c 0
 168 147 224 78 300 78 c 0
300 254 m 0
 262 254 231 281 231 325 c 0
 231 369 262 396 300 396 c 0
 338 396 369 369 369 325 c 0
 369 281 338 254 300 254 c 0
EndSplineSet
Validated: 1
Substitution2: "'case' Case-Sensitive Forms lookup 31 subtable" zero.cap
Substitution2: "'onum' Oldstyle Figures lookup 30 subtable" zero.onum
Substitution2: "'subs' Subscript lookup 29 subtable" zero.subs
Substitution2: "'sups' Superscript lookup 27 subtable" zero.sups
Substitution2: "'dnom' Denominators lookup 22 subtable" zero.dnom
Substitution2: "'numr' Numerators lookup 21 subtable" zero.numr
Substitution2: "'zero' Slashed Zero lookup 9 subtable" zero.a
EndChar

StartChar: one
Encoding: 49 49 18
Width: 599
GlyphClass: 2
Flags: MW
HStem: 0 94<88 265 88 265 380 536> 512 124<124 380>
VStem: 265 115<94 512 512 512>
LayerCount: 2
Fore
SplineSet
88 0 m 1
 88 94 l 1
 265 94 l 1
 265 512 l 1
 124 512 l 1
 124 584 l 1
 204 596 250 611 296 636 c 1
 380 636 l 1
 380 94 l 1
 536 94 l 1
 536 0 l 1
 88 0 l 1
EndSplineSet
Validated: 1
Substitution2: "'ss07' Style Set 7 lookup 32 subtable" one.a
Substitution2: "'case' Case-Sensitive Forms lookup 31 subtable" one.cap
Substitution2: "'onum' Oldstyle Figures lookup 30 subtable" one.onum
Substitution2: "'subs' Subscript lookup 29 subtable" one.subs
Substitution2: "'sups' Superscript lookup 27 subtable" one.sups
Substitution2: "'dnom' Denominators lookup 22 subtable" one.dnom
Substitution2: "'numr' Numerators lookup 21 subtable" one.numr
Substitution2: "Single Substitution lookup 13 subtable" one.a
EndChar

StartChar: two
Encoding: 50 50 19
Width: 599
GlyphClass: 2
Flags: MW
HStem: 0 98<348 528 348 528> 557 91<235.5 303>
VStem: 385 110<397.5 480.5>
LayerCount: 2
Fore
SplineSet
65 0 m 1
 65 67 l 1
 264 238 385 348 385 447 c 0
 385 514 343 557 263 557 c 0
 208 557 161 524 123 486 c 1
 60 550 l 1
 121 612 185 648 278 648 c 0
 409 648 495 571 495 453 c 0
 495 340 380 224 232 91 c 1
 269 94 313 98 348 98 c 2
 528 98 l 1
 528 0 l 1
 65 0 l 1
EndSplineSet
Validated: 1
Substitution2: "'case' Case-Sensitive Forms lookup 31 subtable" two.cap
Substitution2: "'onum' Oldstyle Figures lookup 30 subtable" two.onum
Substitution2: "'subs' Subscript lookup 29 subtable" two.subs
Substitution2: "'sups' Superscript lookup 27 subtable" two.sups
Substitution2: "'dnom' Denominators lookup 22 subtable" two.dnom
Substitution2: "'numr' Numerators lookup 21 subtable" two.numr
EndChar

StartChar: three
Encoding: 51 51 20
Width: 599
GlyphClass: 2
Flags: MW
HStem: -12 94<238.5 312 238.5 348> 286 84<198 266.5 198 276.5> 557 91<247.5 309>
VStem: 198 176<330 334 330 370 330 370> 387 116<444.5 498.5> 409 116<148 211>
LayerCount: 2
Fore
SplineSet
283 -12 m 0xf4
 174 -12 97 28 50 78 c 1
 104 152 l 1
 146 113 204 82 273 82 c 0
 351 82 409 118 409 178 c 0
 409 244 355 286 198 286 c 1xf4
 198 370 l 1
 335 370 387 413 387 472 c 0
 387 525 343 557 275 557 c 0
 220 557 172 533 130 497 c 1
 70 568 l 1
 128 616 198 648 280 648 c 0
 410 648 503 588 503 480 c 0xf8
 503 409 452 361 374 334 c 1
 374 330 l 1
 457 310 525 256 525 172 c 0
 525 56 413 -12 283 -12 c 0xf4
EndSplineSet
Validated: 1
Substitution2: "'case' Case-Sensitive Forms lookup 31 subtable" three.cap
Substitution2: "'onum' Oldstyle Figures lookup 30 subtable" three.onum
Substitution2: "'subs' Subscript lookup 29 subtable" three.subs
Substitution2: "'sups' Superscript lookup 27 subtable" three.sups
Substitution2: "'dnom' Denominators lookup 22 subtable" three.dnom
Substitution2: "'numr' Numerators lookup 21 subtable" three.numr
EndChar

StartChar: four
Encoding: 52 52 21
Width: 599
GlyphClass: 2
Flags: MW
HStem: 0 21G<354 354 354 462> 164 89<154 354 154 354 462 552> 531 106<355 360 355 355>
VStem: 354 108<0 164 0 164 253 405 405 405>
LayerCount: 2
Fore
SplineSet
354 0 m 1
 354 164 l 1
 37 164 l 1
 37 242 l 1
 329 637 l 1
 462 637 l 1
 462 253 l 1
 552 253 l 1
 552 164 l 1
 462 164 l 1
 462 0 l 1
 354 0 l 1
154 253 m 1
 354 253 l 1
 354 405 l 2
 355 443 358 493 360 531 c 1
 355 531 l 1
 334 498 310 464 288 430 c 2
 154 253 l 1
EndSplineSet
Validated: 1
Substitution2: "'case' Case-Sensitive Forms lookup 31 subtable" four.cap
Substitution2: "'onum' Oldstyle Figures lookup 30 subtable" four.onum
Substitution2: "'subs' Subscript lookup 29 subtable" four.subs
Substitution2: "'sups' Superscript lookup 27 subtable" four.sups
Substitution2: "'dnom' Denominators lookup 22 subtable" four.dnom
Substitution2: "'numr' Numerators lookup 21 subtable" four.numr
EndChar

StartChar: five
Encoding: 53 53 22
Width: 599
GlyphClass: 2
Flags: MW
HStem: -12 94<233.5 310 233.5 347.5> 323 83<288.5 315.5> 539 97<222 497 222 222>
VStem: 112 103 411 116<165.5 242>
LayerCount: 2
Fore
SplineSet
284 -12 m 0
 172 -12 102 29 51 76 c 1
 104 150 l 1
 147 114 197 82 270 82 c 0
 350 82 411 127 411 204 c 0
 411 280 356 323 275 323 c 0
 228 323 201 312 157 287 c 1
 102 322 l 1
 122 636 l 1
 497 636 l 1
 497 539 l 1
 222 539 l 1
 208 385 l 1
 241 398 269 406 308 406 c 0
 428 406 527 344 527 207 c 0
 527 68 411 -12 284 -12 c 0
EndSplineSet
Validated: 1
Substitution2: "'case' Case-Sensitive Forms lookup 31 subtable" five.cap
Substitution2: "'onum' Oldstyle Figures lookup 30 subtable" five.onum
Substitution2: "'subs' Subscript lookup 29 subtable" five.subs
Substitution2: "'sups' Superscript lookup 27 subtable" five.sups
Substitution2: "'dnom' Denominators lookup 22 subtable" five.dnom
Substitution2: "'numr' Numerators lookup 21 subtable" five.numr
EndChar

StartChar: six
Encoding: 54 54 23
Width: 599
GlyphClass: 2
Flags: MW
HStem: -12 88<282.5 349.5 282.5 378> 310 84<314 354> 554 94<303 370.5>
VStem: 68 107 433 107<158 235>
LayerCount: 2
Fore
SplineSet
319 -12 m 0
 185 -12 68 85 68 299 c 0
 68 546 199 648 339 648 c 0
 423 648 486 616 529 576 c 1
 467 506 l 1
 438 534 393 554 348 554 c 0
 258 554 180 494 175 317 c 1
 224 365 286 394 342 394 c 0
 456 394 540 330 540 197 c 0
 540 70 437 -12 319 -12 c 0
318 76 m 0
 381 76 433 119 433 197 c 0
 433 273 390 310 318 310 c 0
 275 310 225 290 179 236 c 1
 193 124 247 76 318 76 c 0
EndSplineSet
Validated: 1
Substitution2: "'case' Case-Sensitive Forms lookup 31 subtable" six.cap
Substitution2: "'onum' Oldstyle Figures lookup 30 subtable" six.onum
Substitution2: "'subs' Subscript lookup 29 subtable" six.subs
Substitution2: "'sups' Superscript lookup 27 subtable" six.sups
Substitution2: "'dnom' Denominators lookup 22 subtable" six.dnom
Substitution2: "'numr' Numerators lookup 21 subtable" six.numr
EndChar

StartChar: seven
Encoding: 55 55 24
Width: 599
GlyphClass: 2
Flags: MW
HStem: 0 21G<209 209 209 326> 539 97<66 409 66 536>
VStem: 209 117<0 0>
LayerCount: 2
Fore
SplineSet
209 0 m 1
 221 226 270 366 409 539 c 1
 66 539 l 1
 66 636 l 1
 536 636 l 1
 536 566 l 1
 370 381 337 249 326 0 c 1
 209 0 l 1
EndSplineSet
Validated: 1
Substitution2: "'case' Case-Sensitive Forms lookup 31 subtable" seven.cap
Substitution2: "'onum' Oldstyle Figures lookup 30 subtable" seven.onum
Substitution2: "'subs' Subscript lookup 29 subtable" seven.subs
Substitution2: "'sups' Superscript lookup 27 subtable" seven.sups
Substitution2: "'dnom' Denominators lookup 22 subtable" seven.dnom
Substitution2: "'numr' Numerators lookup 21 subtable" seven.numr
EndChar

StartChar: eight
Encoding: 56 56 25
Width: 599
GlyphClass: 2
Flags: MW
HStem: -12 82<262.5 341.5 262.5 376> 566 82<272.5 337>
VStem: 64 102<143.5 201.5 143.5 204.5> 98 102<447 506.5 447 530.5> 411 97<449 497> 427 109<135.5 201.5>
LayerCount: 2
Fore
SplineSet
301 -12 m 0xe4
 155 -12 64 60 64 163 c 0xe4
 64 246 126 294 193 326 c 1
 193 330 l 1
 140 364 98 412 98 479 c 0
 98 582 185 648 304 648 c 0
 430 648 508 579 508 476 c 0xd8
 508 417 465 365 413 331 c 1
 413 327 l 1
 482 293 536 249 536 161 c 0
 536 63 451 -12 301 -12 c 0xe4
348 359 m 1xd8
 390 393 411 429 411 469 c 0
 411 525 372 566 302 566 c 0
 243 566 200 534 200 479 c 0
 200 415 263 387 348 359 c 1xd8
303 70 m 0xe4
 380 70 427 106 427 165 c 0
 427 238 352 259 251 294 c 1
 202 265 166 228 166 175 c 0
 166 112 222 70 303 70 c 0xe4
EndSplineSet
Validated: 1
Substitution2: "'case' Case-Sensitive Forms lookup 31 subtable" eight.cap
Substitution2: "'onum' Oldstyle Figures lookup 30 subtable" eight.onum
Substitution2: "'subs' Subscript lookup 29 subtable" eight.subs
Substitution2: "'sups' Superscript lookup 27 subtable" eight.sups
Substitution2: "'dnom' Denominators lookup 22 subtable" eight.dnom
Substitution2: "'numr' Numerators lookup 21 subtable" eight.numr
EndChar

StartChar: nine
Encoding: 57 57 26
Width: 599
GlyphClass: 2
Flags: MW
HStem: -12 94<229 296.5 229 330.5> 243 83<245 285.5> 560 88<250.5 317.5>
VStem: 60 106<402 478.5 402 503.5> 425 106
LayerCount: 2
Fore
SplineSet
281 326 m 0
 326 326 378 348 421 401 c 1
 407 513 353 560 282 560 c 0
 219 560 166 517 166 440 c 0
 166 364 209 326 281 326 c 0
261 -12 m 0
 177 -12 113 20 70 60 c 1
 132 130 l 1
 162 102 206 82 252 82 c 0
 341 82 419 142 425 319 c 1
 375 272 313 243 258 243 c 0
 143 243 60 307 60 440 c 0
 60 567 163 648 280 648 c 0
 415 648 531 552 531 338 c 0
 531 91 400 -12 261 -12 c 0
EndSplineSet
Validated: 1
Substitution2: "'case' Case-Sensitive Forms lookup 31 subtable" nine.cap
Substitution2: "'onum' Oldstyle Figures lookup 30 subtable" nine.onum
Substitution2: "'subs' Subscript lookup 29 subtable" nine.subs
Substitution2: "'sups' Superscript lookup 27 subtable" nine.sups
Substitution2: "'dnom' Denominators lookup 22 subtable" nine.dnom
Substitution2: "'numr' Numerators lookup 21 subtable" nine.numr
EndChar

StartChar: colon
Encoding: 58 58 27
Width: 599
GlyphClass: 2
Flags: MW
HStem: -12 21G<271.5 328.5> -12 202<271.5 328.5> 328 202<271.5 328.5>
VStem: 201 198<60 118 400 458>
LayerCount: 2
Fore
SplineSet
300 328 m 0xb0
 243 328 201 371 201 429 c 0
 201 487 243 530 300 530 c 0
 357 530 399 487 399 429 c 0
 399 371 357 328 300 328 c 0xb0
300 -12 m 0
 243 -12 201 31 201 89 c 0
 201 147 243 190 300 190 c 0x70
 357 190 399 147 399 89 c 0
 399 31 357 -12 300 -12 c 0
EndSplineSet
Validated: 1
Substitution2: "'sups' Superscript lookup 28 subtable" colon.sups
EndChar

StartChar: semicolon
Encoding: 59 59 28
Width: 599
GlyphClass: 2
Flags: MW
HStem: 7 178<279 305.5> 328 202<271.5 328.5>
VStem: 201 198<400 458> 317 96
LayerCount: 2
Fore
SplineSet
300 328 m 0xe0
 243 328 201 371 201 429 c 0
 201 487 243 530 300 530 c 0
 357 530 399 487 399 429 c 0
 399 371 357 328 300 328 c 0xe0
219 -215 m 1
 189 -146 l 1
 273 -112 315 -62 317 8 c 1
 312 7 308 7 303 7 c 0
 253 7 209 38 209 96 c 0
 209 151 253 185 305 185 c 0
 376 185 413 128 413 35 c 0xd0
 413 -87 343 -174 219 -215 c 1
EndSplineSet
Validated: 1
EndChar

StartChar: less
Encoding: 60 60 29
Width: 599
GlyphClass: 2
Flags: MW
HStem: 39 586<498 498>
VStem: 118 97<330 334 330 373 330 373>
LayerCount: 2
Fore
SplineSet
498 39 m 1
 118 291 l 1
 118 373 l 1
 498 625 l 1
 498 518 l 1
 215 334 l 1
 215 330 l 1
 498 146 l 1
 498 39 l 1
EndSplineSet
Validated: 1
EndChar

StartChar: equal
Encoding: 61 61 30
Width: 599
GlyphClass: 2
Flags: MW
HStem: 176 84<78 522 78 522> 400 84<78 522 78 522>
VStem: 78 444<176 260 176 260 400 484 176 484>
LayerCount: 2
Fore
SplineSet
78 400 m 1
 78 484 l 1
 522 484 l 1
 522 400 l 1
 78 400 l 1
78 176 m 1
 78 260 l 1
 522 260 l 1
 522 176 l 1
 78 176 l 1
EndSplineSet
Validated: 1
EndChar

StartChar: greater
Encoding: 62 62 31
Width: 599
GlyphClass: 2
Flags: MW
HStem: 39 586<102 102>
VStem: 385 97<330 334 334 334>
LayerCount: 2
Fore
SplineSet
102 39 m 1
 102 146 l 1
 385 330 l 1
 385 334 l 1
 102 518 l 1
 102 625 l 1
 482 373 l 1
 482 291 l 1
 102 39 l 1
EndSplineSet
Validated: 1
EndChar

StartChar: question
Encoding: 63 63 32
Width: 599
GlyphClass: 2
Flags: MW
HStem: -12 21G<261.5 310.5> -12 178<261.5 310.5> 588 94<262 313.5>
VStem: 199 174<51 104.5> 377 111<464 532>
LayerCount: 2
Fore
SplineSet
230 244 m 1xa8
 207 382 377 420 377 508 c 0
 377 556 342 588 285 588 c 0
 239 588 202 568 169 536 c 1
 104 596 l 1
 150 646 214 682 293 682 c 0
 406 682 488 625 488 522 c 0
 488 388 316 366 331 244 c 1
 230 244 l 1xa8
286 -12 m 0xb0
 237 -12 199 24 199 78 c 0
 199 131 237 166 286 166 c 0x70
 335 166 373 131 373 78 c 0
 373 24 335 -12 286 -12 c 0xb0
EndSplineSet
Validated: 33
EndChar

StartChar: at
Encoding: 64 64 33
Width: 599
GlyphClass: 2
Flags: MW
HStem: -146 73<284 373.5 284 374.5> 88 77<349.5 371.5> 100 65 568 72<279.5 381.5>
VStem: 40 82<142.5 358.5 142.5 383.5> 217 87<207 252.5 207 276> 463 85<215 324 324 324> 474 74<395 398 100 410 100 452.5> 479 68
LayerCount: 2
Fore
SplineSet
340 -146 m 0xde
 181 -146 40 -13 40 252 c 0
 40 515 173 640 337 640 c 0
 482 640 548 535 548 398 c 2
 548 100 l 1xbe
 484 100 l 1xbc80
 475 154 l 1
 471 154 l 1xdc80
 444 118 398 88 345 88 c 0
 273 88 217 144 217 224 c 0
 217 328 312 375 474 395 c 1
 474 410 l 2xdd
 474 495 430 568 333 568 c 0
 226 568 122 469 122 248 c 0
 122 37 224 -73 344 -73 c 0
 403 -73 442 -58 480 -32 c 1
 516 -91 l 1
 462 -125 409 -146 340 -146 c 0xde
370 165 m 0
 402 165 433 184 463 215 c 1
 463 324 l 1
 347 307 304 279 304 226 c 0
 304 188 329 165 370 165 c 0
EndSplineSet
Validated: 1
Substitution2: "'case' Case-Sensitive Forms lookup 31 subtable" at.case
EndChar

StartChar: A
Encoding: 65 65 34
Width: 599
GlyphClass: 2
Flags: MW
HStem: 0 21G<20 20 20 138 457 457 457 580> 177 91<215 381 215 407 189 381> 564 90<296 300 296 296>
VStem: 20 560<0 0>
AnchorPoint: "Anchor-6" 499 0 basechar 0
AnchorPoint: "Anchor-3" 300 -20 basechar 0
AnchorPoint: "Anchor-2" 518 0 basechar 0
AnchorPoint: "Anchor-0" 300 674 basechar 0
LayerCount: 2
Fore
SplineSet
238 348 m 2
 215 268 l 1
 381 268 l 1
 358 348 l 2
 339 417 318 491 300 564 c 1
 296 564 l 1
 278 491 258 417 238 348 c 2
20 0 m 1
 232 654 l 1
 368 654 l 1
 580 0 l 1
 457 0 l 1
 407 177 l 1
 189 177 l 1
 138 0 l 1
 20 0 l 1
EndSplineSet
Validated: 1
EndChar

StartChar: B
Encoding: 66 66 35
Width: 599
GlyphClass: 2
Flags: MW
HStem: 0 93<202 294 294 306> 297 88<202 279 279 294 202 279> 561 93<202 281 202 202>
VStem: 86 116<93 93 93 297 385 561> 407 114<462 509> 441 114<163 234.5>
AnchorPoint: "Anchor-3" 308 -20 basechar 0
AnchorPoint: "Anchor-0" 304 674 basechar 0
LayerCount: 2
Fore
SplineSet
86 0 m 1xf4
 86 654 l 1
 289 654 l 2
 424 654 521 613 521 493 c 0xf8
 521 431 485 371 408 351 c 1
 408 347 l 1
 502 331 555 281 555 192 c 0
 555 61 450 0 306 0 c 2
 86 0 l 1xf4
202 385 m 1
 279 385 l 2
 370 385 407 418 407 479 c 0
 407 539 366 561 281 561 c 2
 202 561 l 1
 202 385 l 1
202 93 m 1
 294 93 l 2
 390 93 441 126 441 200 c 0xf4
 441 269 392 297 294 297 c 2
 202 297 l 1
 202 93 l 1
EndSplineSet
Validated: 1
EndChar

StartChar: C
Encoding: 67 67 36
Width: 599
GlyphClass: 2
Flags: MW
HStem: -12 101<309 391.5 309 397.5> 565 101<307.5 387.5>
VStem: 60 119<253.5 401.5 253.5 432>
AnchorPoint: "Anchor-3" 342 -20 basechar 0
AnchorPoint: "Anchor-2" 346 0 basechar 0
AnchorPoint: "Anchor-0" 350 674 basechar 0
LayerCount: 2
Fore
SplineSet
354 -12 m 0
 192 -12 60 108 60 325 c 0
 60 539 189 666 362 666 c 0
 443 666 508 627 549 584 c 1
 485 512 l 1
 452 544 413 565 362 565 c 0
 253 565 179 475 179 328 c 0
 179 179 253 89 365 89 c 0
 418 89 461 113 498 154 c 1
 562 83 l 1
 510 22 441 -12 354 -12 c 0
EndSplineSet
Validated: 1
EndChar

StartChar: D
Encoding: 68 68 37
Width: 599
GlyphClass: 2
Flags: MW
HStem: 0 94<194 243 243 256> 560 94<194 243 194 194>
VStem: 78 116<94 94 94 560> 439 119<249.5 410>
AnchorPoint: "Anchor-3" 296 -20 basechar 0
AnchorPoint: "Anchor-2" 284 0 basechar 0
AnchorPoint: "Anchor-0" 300 674 basechar 0
LayerCount: 2
Fore
SplineSet
78 0 m 1
 78 654 l 1
 250 654 l 2
 443 654 558 546 558 330 c 0
 558 113 443 0 256 0 c 2
 78 0 l 1
194 94 m 1
 243 94 l 2
 368 94 439 169 439 330 c 0
 439 490 368 560 243 560 c 2
 194 560 l 1
 194 94 l 1
EndSplineSet
Validated: 1
EndChar

StartChar: E
Encoding: 69 69 38
Width: 599
GlyphClass: 2
Flags: MW
HStem: 0 98<219 532 219 532> 291 98<219 476 219 476> 556 98<219 522 219 219>
VStem: 103 116<98 291 389 556>
AnchorPoint: "Anchor-6" 430 0 basechar 0
AnchorPoint: "Anchor-3" 328 -20 basechar 0
AnchorPoint: "Anchor-2" 324 0 basechar 0
AnchorPoint: "Anchor-0" 327 674 basechar 0
LayerCount: 2
Fore
SplineSet
103 0 m 1
 103 654 l 1
 522 654 l 1
 522 556 l 1
 219 556 l 1
 219 389 l 1
 476 389 l 1
 476 291 l 1
 219 291 l 1
 219 98 l 1
 532 98 l 1
 532 0 l 1
 103 0 l 1
EndSplineSet
Validated: 1
EndChar

StartChar: F
Encoding: 70 70 39
Width: 599
GlyphClass: 2
Flags: MW
HStem: 0 21G<119 119 119 235> 273 98<235 492 235 492> 556 98<235 537 235 235>
VStem: 119 116<0 273 371 556>
AnchorPoint: "Anchor-3" 180 -20 basechar 0
AnchorPoint: "Anchor-2" 174 0 basechar 0
AnchorPoint: "Anchor-0" 338 674 basechar 0
LayerCount: 2
Fore
SplineSet
119 0 m 1
 119 654 l 1
 537 654 l 1
 537 556 l 1
 235 556 l 1
 235 371 l 1
 492 371 l 1
 492 273 l 1
 235 273 l 1
 235 0 l 1
 119 0 l 1
EndSplineSet
Validated: 1
EndChar

StartChar: G
Encoding: 71 71 40
Width: 599
GlyphClass: 2
Flags: MW
HStem: -12 101<289 364.5 289 382> 259 95<322 435 322 540> 565 101<293 373.5>
VStem: 48 120<253.5 401.5 253.5 432.5> 435 105<118 259 259 259>
AnchorPoint: "Anchor-3" 326 -20 basechar 0
AnchorPoint: "Anchor-0" 330 674 basechar 0
LayerCount: 2
Fore
SplineSet
340 -12 m 0
 174 -12 48 108 48 325 c 0
 48 540 175 666 345 666 c 0
 432 666 491 625 530 584 c 1
 466 512 l 1
 436 543 402 565 345 565 c 0
 241 565 168 475 168 328 c 0
 168 179 231 89 347 89 c 0
 382 89 416 99 435 118 c 1
 435 259 l 1
 322 259 l 1
 322 354 l 1
 540 354 l 1
 540 66 l 1
 498 24 424 -12 340 -12 c 0
EndSplineSet
Validated: 1
EndChar

StartChar: H
Encoding: 72 72 41
Width: 599
GlyphClass: 2
Flags: MW
HStem: 0 21G<72 72 72 188 412 412 412 528> 290 101<188 412 188 412> 634 20G<72 188 188 188 412 528 528 528>
VStem: 72 116<0 290 391 654> 412 116<0 290 290 290 391 654 0 654>
AnchorPoint: "Anchor-3" 300 -20 basechar 0
AnchorPoint: "Anchor-2" 131 0 basechar 0
AnchorPoint: "Anchor-0" 300 674 basechar 0
LayerCount: 2
Fore
SplineSet
72 0 m 1
 72 654 l 1
 188 654 l 1
 188 391 l 1
 412 391 l 1
 412 654 l 1
 528 654 l 1
 528 0 l 1
 412 0 l 1
 412 290 l 1
 188 290 l 1
 188 0 l 1
 72 0 l 1
EndSplineSet
Validated: 1
EndChar

StartChar: I
Encoding: 73 73 42
Width: 599
GlyphClass: 2
Flags: MW
HStem: 0 98<84 242 84 242 358 516> 556 98<84 242 84 516 358 358 358 516>
VStem: 242 116<98 556 98 556>
AnchorPoint: "Anchor-6" 300 0 basechar 0
AnchorPoint: "Anchor-3" 300 -20 basechar 0
AnchorPoint: "Anchor-2" 300 0 basechar 0
AnchorPoint: "Anchor-0" 300 674 basechar 0
LayerCount: 2
Fore
SplineSet
84 0 m 1
 84 98 l 1
 242 98 l 1
 242 556 l 1
 84 556 l 1
 84 654 l 1
 516 654 l 1
 516 556 l 1
 358 556 l 1
 358 98 l 1
 516 98 l 1
 516 0 l 1
 84 0 l 1
EndSplineSet
Validated: 1
EndChar

StartChar: J
Encoding: 74 74 43
Width: 599
GlyphClass: 2
Flags: MW
HStem: -12 101<247.5 311 247.5 360> 557 97<124 389 124 505>
VStem: 389 116<226 557 557 557>
AnchorPoint: "Anchor-3" 300 -20 basechar 0
AnchorPoint: "Anchor-0" 326 674 basechar 0
LayerCount: 2
Fore
SplineSet
274 -12 m 0
 202 -12 121 19 70 96 c 1
 138 168 l 1
 176 115 224 89 271 89 c 0
 351 89 389 127 389 226 c 2
 389 557 l 1
 124 557 l 1
 124 654 l 1
 505 654 l 1
 505 216 l 2
 505 91 446 -12 274 -12 c 0
EndSplineSet
Validated: 1
EndChar

StartChar: K
Encoding: 75 75 44
Width: 599
GlyphClass: 2
Flags: MW
HStem: 0 21G<82 82 82 200 458 458 458 587> 634 20G<82 200 200 200 436 566 566 566>
VStem: 82 118<0 193 357 654>
AnchorPoint: "Anchor-3" 332 -20 basechar 0
AnchorPoint: "Anchor-0" 324 674 basechar 0
LayerCount: 2
Fore
SplineSet
82 0 m 1
 82 654 l 1
 200 654 l 1
 200 357 l 1
 203 357 l 1
 436 654 l 1
 566 654 l 1
 364 400 l 1
 587 0 l 1
 458 0 l 1
 293 311 l 1
 200 193 l 1
 200 0 l 1
 82 0 l 1
EndSplineSet
Validated: 1
EndChar

StartChar: L
Encoding: 76 76 45
Width: 599
GlyphClass: 2
Flags: MW
HStem: 0 98<235 542 235 542> 634 20G<120 235 235 235>
VStem: 120 115<98 654 98 654 98 654>
AnchorPoint: "Anchor-4" 178 342 basechar 0
AnchorPoint: "Anchor-3" 342 -20 basechar 0
AnchorPoint: "Anchor-2" 342 0 basechar 0
AnchorPoint: "Anchor-0" 191 674 basechar 0
LayerCount: 2
Fore
SplineSet
120 0 m 1
 120 654 l 1
 235 654 l 1
 235 98 l 1
 542 98 l 1
 542 0 l 1
 120 0 l 1
EndSplineSet
Validated: 1
EndChar

StartChar: M
Encoding: 77 77 46
Width: 599
GlyphClass: 2
Flags: MW
HStem: 0 21G<65 65 65 165 433 433 433 535> 173 128<298 302 298 331 265 302> 532 122<148 151 148 148 447 450 447 447>
VStem: 65 100<0 264 0 654> 433 102<0 264 264 298.5>
AnchorPoint: "Anchor-3" 300 -20 basechar 0
AnchorPoint: "Anchor-2" 483 0 basechar 0
AnchorPoint: "Anchor-0" 300 674 basechar 0
LayerCount: 2
Fore
SplineSet
65 0 m 1
 65 654 l 1
 193 654 l 1
 271 399 l 1
 298 301 l 1
 302 301 l 1
 328 399 l 1
 407 654 l 1
 535 654 l 1
 535 0 l 1
 433 0 l 1
 433 264 l 2
 433 333 444 468 450 532 c 1
 447 532 l 1
 403 380 l 1
 331 173 l 1
 265 173 l 1
 194 380 l 1
 151 532 l 1
 148 532 l 1
 155 468 165 333 165 264 c 2
 165 0 l 1
 65 0 l 1
EndSplineSet
Validated: 1
EndChar

StartChar: N
Encoding: 78 78 47
Width: 599
GlyphClass: 2
Flags: MW
HStem: 0 21G<74 74 74 185 404 404 404 526> 0 147<404 431 428 431 428 526> 507 147<169 172 169 169> 634 20G<74 196 196 196 415 526 526 526>
VStem: 74 111<0 286 0 654> 415 111<370 654 0 654>
AnchorPoint: "Anchor-3" 300 -20 basechar 0
AnchorPoint: "Anchor-2" 468 0 basechar 0
AnchorPoint: "Anchor-0" 310 674 basechar 0
LayerCount: 2
Fore
SplineSet
74 0 m 1x9c
 74 654 l 1
 196 654 l 1
 369 287 l 1
 428 147 l 1
 431 147 l 1x5c
 426 214 415 297 415 370 c 2
 415 654 l 1
 526 654 l 1
 526 0 l 1
 404 0 l 1
 231 368 l 1
 172 507 l 1
 169 507 l 1xac
 174 437 185 359 185 286 c 2
 185 0 l 1
 74 0 l 1x9c
EndSplineSet
Validated: 1
EndChar

StartChar: O
Encoding: 79 79 48
Width: 599
GlyphClass: 2
Flags: MW
HStem: -12 101<258 342 258 376> 565 101<258 342>
VStem: 43 119<253 405 253 437.5> 438 119<253 405>
AnchorPoint: "Anchor-6" 300 0 basechar 0
AnchorPoint: "Anchor-5" 422 644 basechar 0
AnchorPoint: "Anchor-3" 300 -20 basechar 0
AnchorPoint: "Anchor-2" 300 0 basechar 0
AnchorPoint: "Anchor-0" 300 674 basechar 0
LayerCount: 2
Fore
SplineSet
300 -12 m 0
 148 -12 43 111 43 330 c 0
 43 545 148 666 300 666 c 0
 452 666 557 545 557 330 c 0
 557 111 452 -12 300 -12 c 0
300 89 m 0
 384 89 438 176 438 330 c 0
 438 480 384 565 300 565 c 0
 216 565 162 480 162 330 c 0
 162 176 216 89 300 89 c 0
EndSplineSet
Validated: 1
EndChar

StartChar: P
Encoding: 80 80 49
Width: 599
GlyphClass: 2
Flags: MW
HStem: 0 21G<88 88 88 204> 240 93<204 294 294 303 204 294> 561 93<204 294 204 204>
VStem: 88 116<0 240 333 561> 438 114<412 493>
AnchorPoint: "Anchor-3" 140 -20 basechar 0
AnchorPoint: "Anchor-0" 320 674 basechar 0
LayerCount: 2
Fore
SplineSet
88 0 m 1
 88 654 l 1
 303 654 l 2
 446 654 552 604 552 452 c 0
 552 307 444 240 303 240 c 2
 204 240 l 1
 204 0 l 1
 88 0 l 1
204 333 m 1
 294 333 l 2
 391 333 438 372 438 452 c 0
 438 534 389 561 294 561 c 2
 204 561 l 1
 204 333 l 1
EndSplineSet
Validated: 1
EndChar

StartChar: Q
Encoding: 81 81 50
Width: 599
GlyphClass: 2
Flags: MW
HStem: -170 94<469.5 501.5> -3 21G 565 101<258 342>
VStem: 43 119<249 405 249 437.5> 438 119<249 405>
AnchorPoint: "Anchor-0" 304 680 basechar 0
LayerCount: 2
Fore
SplineSet
300 83 m 0
 384 83 438 168 438 330 c 0
 438 480 384 565 300 565 c 0
 216 565 162 480 162 330 c 0
 162 168 216 83 300 83 c 0
484 -170 m 0
 362 -170 283 -102 245 -6 c 1
 123 20 43 138 43 330 c 0
 43 545 148 666 300 666 c 0
 452 666 557 545 557 330 c 0
 557 145 482 28 367 -3 c 1
 390 -55 441 -76 498 -76 c 0
 518 -76 536 -70 548 -64 c 1
 569 -153 l 1
 548 -163 519 -170 484 -170 c 0
EndSplineSet
Validated: 1
EndChar

StartChar: R
Encoding: 82 82 51
Width: 599
GlyphClass: 2
Flags: MW
HStem: 0 21G<84 84 84 200 438 438 438 569> 256 92<200 290 290 298 200 290> 561 93<200 290 200 200>
VStem: 84 116<0 256 348 561> 429 114<423 497.5>
AnchorPoint: "Anchor-3" 320 -20 basechar 0
AnchorPoint: "Anchor-2" 140 0 basechar 0
AnchorPoint: "Anchor-0" 302 674 basechar 0
LayerCount: 2
Fore
SplineSet
84 0 m 1
 84 654 l 1
 302 654 l 2
 438 654 543 606 543 460 c 0
 543 361 491 300 413 273 c 1
 569 0 l 1
 438 0 l 1
 298 256 l 1
 200 256 l 1
 200 0 l 1
 84 0 l 1
200 348 m 1
 290 348 l 2
 380 348 429 386 429 460 c 0
 429 535 380 561 290 561 c 2
 200 561 l 1
 200 348 l 1
EndSplineSet
Validated: 1
EndChar

StartChar: S
Encoding: 83 83 52
Width: 599
GlyphClass: 2
Flags: MW
HStem: -12 101<274.5 347 274.5 378> 565 101<277 341>
VStem: 87 117<463 512.5 463 534> 426 118<145 197>
AnchorPoint: "Anchor-3" 308 -20 basechar 0
AnchorPoint: "Anchor-2" 312 0 basechar 0
AnchorPoint: "Anchor-0" 318 674 basechar 0
LayerCount: 2
Fore
SplineSet
302 -12 m 0
 210 -12 123 23 58 84 c 1
 126 163 l 1
 175 119 240 89 309 89 c 0
 385 89 426 122 426 168 c 0
 426 226 381 242 316 269 c 2
 227 308 l 2
 158 335 87 386 87 482 c 0
 87 586 181 666 314 666 c 0
 394 666 470 634 524 583 c 1
 464 509 l 1
 420 544 374 565 308 565 c 0
 246 565 204 537 204 488 c 0
 204 438 257 419 316 396 c 2
 402 359 l 2
 485 326 544 277 544 182 c 0
 544 76 454 -12 302 -12 c 0
EndSplineSet
Validated: 1
EndChar

StartChar: T
Encoding: 84 84 53
Width: 599
GlyphClass: 2
Flags: MW
HStem: 0 21G<242 242 242 358> 556 98<36 242 36 564 358 358 358 564>
VStem: 242 116<0 556 0 556>
AnchorPoint: "Anchor-3" 300 -20 basechar 0
AnchorPoint: "Anchor-2" 300 0 basechar 0
AnchorPoint: "Anchor-0" 300 674 basechar 0
LayerCount: 2
Fore
SplineSet
242 0 m 1
 242 556 l 1
 36 556 l 1
 36 654 l 1
 564 654 l 1
 564 556 l 1
 358 556 l 1
 358 0 l 1
 242 0 l 1
EndSplineSet
Validated: 1
EndChar

StartChar: U
Encoding: 85 85 54
Width: 599
GlyphClass: 2
Flags: MW
HStem: -12 101<266 336.5 266 373> 634 20G<72 188 188 188 417 528 528 528>
VStem: 72 116<250 654> 417 111<241 250 250 654>
AnchorPoint: "Anchor-6" 300 0 basechar 0
AnchorPoint: "Anchor-5" 508 664 basechar 0
AnchorPoint: "Anchor-3" 300 -20 basechar 0
AnchorPoint: "Anchor-2" 300 0 basechar 0
AnchorPoint: "Anchor-0" 300 674 basechar 0
LayerCount: 2
Fore
SplineSet
301 -12 m 0
 158 -12 72 71 72 250 c 2
 72 654 l 1
 188 654 l 1
 188 241 l 2
 188 134 231 89 301 89 c 0
 372 89 417 134 417 241 c 2
 417 654 l 1
 528 654 l 1
 528 250 l 2
 528 71 445 -12 301 -12 c 0
EndSplineSet
Validated: 1
EndChar

StartChar: V
Encoding: 86 86 55
Width: 599
GlyphClass: 2
Flags: MW
HStem: 0 21G<232 232 232 369> 0 112<232 305 301 305 301 369> 634 20G<28 151 151 151 453 572 572 572>
VStem: 28 544<654 654>
AnchorPoint: "Anchor-3" 301 -20 basechar 0
AnchorPoint: "Anchor-0" 300 674 basechar 0
LayerCount: 2
Fore
SplineSet
232 0 m 1xb0
 28 654 l 1
 151 654 l 1
 243 325 l 2
 264 251 279 187 301 112 c 1
 305 112 l 1x70
 327 187 342 251 362 325 c 2
 453 654 l 1
 572 654 l 1
 369 0 l 1
 232 0 l 1xb0
EndSplineSet
Validated: 1
EndChar

StartChar: W
Encoding: 87 87 56
Width: 599
GlyphClass: 2
Flags: MW
HStem: 0 118<100 176 173 176 173 229 432 436> 354 133<299 302 299 299> 634 20G<7 131 131 131 476 593 593 593>
VStem: 7 586<654 654>
AnchorPoint: "Anchor-3" 302 -20 basechar 0
AnchorPoint: "Anchor-0" 300 674 basechar 0
LayerCount: 2
Fore
SplineSet
100 0 m 1
 7 654 l 1
 131 654 l 1
 164 275 l 2
 168 220 171 179 173 118 c 1
 176 118 l 1
 187 179 196 220 208 275 c 2
 262 487 l 1
 349 487 l 1
 400 275 l 2
 413 221 422 180 432 118 c 1
 436 118 l 1
 439 180 440 221 444 275 c 2
 476 654 l 1
 593 654 l 1
 505 0 l 1
 374 0 l 1
 323 232 l 2
 314 273 306 314 302 354 c 1
 299 354 l 1
 293 314 288 273 279 232 c 2
 229 0 l 1
 100 0 l 1
EndSplineSet
Validated: 1
EndChar

StartChar: X
Encoding: 88 88 57
Width: 599
GlyphClass: 2
Flags: MW
HStem: 0 21G<36 36 36 159 436 436 436 564> 634 20G<48 177 177 177 429 552 552 552>
VStem: 36 528<0 0>
AnchorPoint: "Anchor-3" 300 -20 basechar 0
AnchorPoint: "Anchor-2" 495 0 basechar 0
AnchorPoint: "Anchor-0" 300 674 basechar 0
LayerCount: 2
Fore
SplineSet
36 0 m 1
 228 337 l 1
 48 654 l 1
 177 654 l 1
 254 509 l 2
 270 479 285 448 305 409 c 1
 309 409 l 1
 326 448 340 479 355 509 c 2
 429 654 l 1
 552 654 l 1
 372 332 l 1
 564 0 l 1
 436 0 l 1
 351 154 l 2
 333 188 316 221 296 261 c 1
 292 261 l 1
 274 221 258 188 241 154 c 2
 159 0 l 1
 36 0 l 1
EndSplineSet
Validated: 1
EndChar

StartChar: Y
Encoding: 89 89 58
Width: 599
GlyphClass: 2
Flags: MW
HStem: 0 21G<242 242 242 358> 634 20G<27 150 150 150 453 573 573 573>
VStem: 242 116<0 227 0 227>
AnchorPoint: "Anchor-6" 300 0 basechar 0
AnchorPoint: "Anchor-3" 300 -20 basechar 0
AnchorPoint: "Anchor-0" 300 674 basechar 0
LayerCount: 2
Fore
SplineSet
242 0 m 1
 242 227 l 1
 27 654 l 1
 150 654 l 1
 232 478 l 2
 255 428 276 380 299 327 c 1
 303 327 l 1
 327 380 350 428 372 479 c 2
 453 654 l 1
 573 654 l 1
 358 227 l 1
 358 0 l 1
 242 0 l 1
EndSplineSet
Validated: 1
EndChar

StartChar: Z
Encoding: 90 90 59
Width: 599
GlyphClass: 2
Flags: MW
HStem: 0 98<203 543 203 543> 557 97<91 396 91 539>
VStem: 61 482<0 70 70 70>
AnchorPoint: "Anchor-3" 314 -20 basechar 0
AnchorPoint: "Anchor-2" 320 0 basechar 0
AnchorPoint: "Anchor-0" 318 674 basechar 0
LayerCount: 2
Fore
SplineSet
61 0 m 1
 61 70 l 1
 396 557 l 1
 91 557 l 1
 91 654 l 1
 539 654 l 1
 539 584 l 1
 203 98 l 1
 543 98 l 1
 543 0 l 1
 61 0 l 1
EndSplineSet
Validated: 1
EndChar

StartChar: bracketleft
Encoding: 91 91 60
Width: 599
GlyphClass: 2
Flags: MW
HStem: -152 63<302 499 302 499> 645 63<302 499 302 302>
VStem: 212 90<-89 645 -89 708 -89 708>
LayerCount: 2
Fore
SplineSet
212 -152 m 1
 212 708 l 1
 499 708 l 1
 499 645 l 1
 302 645 l 1
 302 -89 l 1
 499 -89 l 1
 499 -152 l 1
 212 -152 l 1
EndSplineSet
Validated: 1
EndChar

StartChar: backslash
Encoding: 92 92 61
Width: 599
GlyphClass: 2
Flags: MW
HStem: 690 20G<86 185 185 185>
VStem: 86 428
LayerCount: 2
Fore
SplineSet
415 -160 m 1
 86 710 l 1
 185 710 l 1
 514 -160 l 1
 415 -160 l 1
EndSplineSet
Validated: 1
EndChar

StartChar: bracketright
Encoding: 93 93 62
Width: 599
GlyphClass: 2
Flags: MW
HStem: -152 63<101 298 101 298 101 388> 645 63<101 298 101 388>
VStem: 298 90<-89 645 645 645>
LayerCount: 2
Fore
SplineSet
101 -152 m 1
 101 -89 l 1
 298 -89 l 1
 298 645 l 1
 101 645 l 1
 101 708 l 1
 388 708 l 1
 388 -152 l 1
 101 -152 l 1
EndSplineSet
Validated: 1
EndChar

StartChar: asciicircum
Encoding: 94 94 63
Width: 599
GlyphClass: 2
Flags: MW
HStem: 565 105<298 302 298 298>
VStem: 98 404<279 279>
LayerCount: 2
Fore
SplineSet
98 279 m 1
 252 670 l 1
 348 670 l 1
 502 279 l 1
 405 279 l 1
 349 430 l 1
 302 565 l 1
 298 565 l 1
 251 430 l 1
 195 279 l 1
 98 279 l 1
EndSplineSet
Validated: 1
EndChar

StartChar: underscore
Encoding: 95 95 64
Width: 599
GlyphClass: 2
Flags: MW
HStem: -152 90<60 540 60 540>
VStem: 60 480<-152 -62 -152 -62>
LayerCount: 2
Fore
SplineSet
60 -152 m 1
 60 -62 l 1
 540 -62 l 1
 540 -152 l 1
 60 -152 l 1
EndSplineSet
Validated: 1
EndChar

StartChar: grave
Encoding: 96 96 65
Width: 599
GlyphClass: 2
Flags: MW
HStem: 699 20G<144 144>
VStem: 144 227<621 719>
LayerCount: 2
Fore
SplineSet
314 564 m 1
 144 719 l 1
 224 796 l 1
 371 621 l 1
 314 564 l 1
EndSplineSet
Validated: 1
EndChar

StartChar: a
Encoding: 97 97 66
Width: 599
GlyphClass: 2
Flags: MW
HStem: -12 90<245.5 268> 0 21G<431 525 431 431> 242 72<410 410> 410 93<272 333>
VStem: 71 111<119 167.5 119 187> 410 115<138 242 242 242> 426 99
AnchorPoint: "Anchor-6" 434 0 basechar 0
AnchorPoint: "Anchor-3" 300 -20 basechar 0
AnchorPoint: "Anchor-2" 472 0 basechar 0
AnchorPoint: "Anchor-0" 320 512 basechar 0
LayerCount: 2
Fore
SplineSet
235 -12 m 0xbc
 139 -12 71 46 71 132 c 0
 71 242 168 297 410 314 c 1
 406 369 373 410 293 410 c 0
 238 410 183 386 132 358 c 1
 90 435 l 1
 149 470 230 503 314 503 c 0
 450 503 525 428 525 291 c 2
 525 0 l 1x7c
 431 0 l 1x7a
 422 61 l 1
 419 61 l 1xba
 367 21 301 -12 235 -12 c 0xbc
270 78 m 0
 319 78 365 102 410 138 c 1
 410 242 l 1
 234 230 182 194 182 141 c 0
 182 97 221 78 270 78 c 0
EndSplineSet
Validated: 1
Substitution2: "'sups' Superscript lookup 26 subtable" a.sups
Substitution2: "'ss02' Style Set 2 lookup 0 subtable" a.a
EndChar

StartChar: b
Encoding: 98 98 67
Width: 599
GlyphClass: 2
Flags: MW
HStem: -12 95<306 340.5 290.5 385.5> 0 21G<82 173 82 82> 408 95<319.5 354> 686 20G<82 198 198 198>
VStem: 82 116<128 349 524 706> 428 119<196.5 301>
AnchorPoint: "Anchor-3" 310 -20 basechar 0
AnchorPoint: "Anchor-0" 142 734 basechar 0
LayerCount: 2
Fore
SplineSet
329 -12 m 0xbc
 283 -12 229 12 186 54 c 1
 183 54 l 1xbc
 173 0 l 1
 82 0 l 1x7c
 82 706 l 1
 198 706 l 1
 198 524 l 1
 193 438 l 1
 196 438 l 1
 237 478 293 503 346 503 c 0
 473 503 547 405 547 254 c 0
 547 85 442 -12 329 -12 c 0xbc
306 83 m 0
 375 83 428 141 428 252 c 0
 428 350 394 408 314 408 c 0
 277 408 238 390 198 349 c 1
 198 128 l 1
 234 95 275 83 306 83 c 0
EndSplineSet
Validated: 1
Substitution2: "'sups' Superscript lookup 26 subtable" b.sups
EndChar

StartChar: c
Encoding: 99 99 68
Width: 599
GlyphClass: 2
Flags: MW
HStem: -12 94<306.5 379> 409 94<309 380>
VStem: 73 119<196 294.5 196 327>
AnchorPoint: "Anchor-3" 340 -20 basechar 0
AnchorPoint: "Anchor-2" 344 0 basechar 0
AnchorPoint: "Anchor-0" 344 512 basechar 0
LayerCount: 2
Fore
SplineSet
344 -12 m 0
 190 -12 73 82 73 245 c 0
 73 409 202 503 352 503 c 0
 431 503 493 473 534 434 c 1
 479 362 l 1
 441 393 402 409 358 409 c 0
 260 409 192 344 192 245 c 0
 192 147 258 82 355 82 c 0
 411 82 457 107 495 136 c 1
 543 62 l 1
 486 13 414 -12 344 -12 c 0
EndSplineSet
Validated: 1
Substitution2: "'sups' Superscript lookup 26 subtable" c.sups
EndChar

StartChar: d
Encoding: 100 100 69
Width: 599
GlyphClass: 2
Flags: MW
HStem: -12 95<253.5 290.5> 0 21G<423 518 423 423> 408 95<263 298 214 315> 686 20G<402 518 518 518>
VStem: 53 119<193 297.5 193 325> 402 116<142 363 363 363 528 706 0 706> 418 100
AnchorPoint: "Anchor-3" 306 -20 basechar 0
AnchorPoint: "Anchor-2" 286 0 basechar 0
AnchorPoint: "Anchor-0" 452 734 basechar 0
LayerCount: 2
Fore
SplineSet
263 -12 m 0xbc
 137 -12 53 83 53 245 c 0
 53 405 158 503 270 503 c 0
 326 503 367 482 405 445 c 1
 408 445 l 1
 402 528 l 1
 402 706 l 1
 518 706 l 1
 518 0 l 1x7c
 423 0 l 1x7a
 414 57 l 1
 411 57 l 1xba
 373 19 318 -12 263 -12 c 0xbc
291 83 m 0
 332 83 368 102 402 142 c 1
 402 363 l 1
 367 396 333 408 297 408 c 0
 229 408 172 349 172 246 c 0
 172 140 216 83 291 83 c 0
EndSplineSet
Validated: 1
Substitution2: "'sups' Superscript lookup 26 subtable" d.sups
EndChar

StartChar: e
Encoding: 101 101 70
Width: 599
GlyphClass: 2
Flags: MW
HStem: -12 89<299.5 366> 212 82<179 440 179 537 176 440> 414 89<284 353>
VStem: 440 102<294 294>
AnchorPoint: "Anchor-6" 403 0 basechar 0
AnchorPoint: "Anchor-3" 314 -20 basechar 0
AnchorPoint: "Anchor-2" 314 0 basechar 0
AnchorPoint: "Anchor-0" 314 512 basechar 0
LayerCount: 2
Fore
SplineSet
330 -12 m 0
 180 -12 61 83 61 246 c 0
 61 406 183 503 315 503 c 0
 461 503 542 406 542 270 c 0
 542 247 539 225 537 212 c 1
 176 212 l 1
 189 121 254 77 345 77 c 0
 397 77 439 93 483 118 c 1
 522 46 l 1
 470 12 402 -12 330 -12 c 0
318 414 m 0
 250 414 194 373 179 294 c 1
 440 294 l 1
 432 374 388 414 318 414 c 0
EndSplineSet
Validated: 1
Substitution2: "'sups' Superscript lookup 26 subtable" e.sups
EndChar

StartChar: f
Encoding: 102 102 71
Width: 599
GlyphClass: 2
Flags: MW
HStem: 0 21G<228 228 228 342> 400 91<92 228 342 529> 627 91<412.5 462.5 364 470>
VStem: 228 114<0 400 0 400 491 518 518 520>
AnchorPoint: "Anchor-3" 292 -20 basechar 0
AnchorPoint: "Anchor-2" 296 0 basechar 0
AnchorPoint: "Anchor-0" 416 734 basechar 0
LayerCount: 2
Fore
SplineSet
228 0 m 1
 228 400 l 1
 92 400 l 1
 92 486 l 1
 228 491 l 1
 228 518 l 2
 228 634 292 718 436 718 c 0
 489 718 538 708 582 691 c 1
 558 606 l 1
 522 620 490 627 450 627 c 0
 375 627 342 589 342 520 c 2
 342 491 l 1
 529 491 l 1
 529 400 l 1
 342 400 l 1
 342 0 l 1
 228 0 l 1
EndSplineSet
Validated: 1
Substitution2: "'sups' Superscript lookup 26 subtable" f.sups
EndChar

StartChar: g
Encoding: 103 103 72
Width: 599
GlyphClass: 2
Flags: MW
HStem: -217 76<254.5 348 254.5 372.5> -14 91<276 281 281 359> -7 84 155 73<277 313.5 262.5 343> 403 88<453 566 453 453> 423 80<262.5 302.5 234 313.5>
VStem: 62 96<-93 -66.5> 86 109<297 356 295 382.5> 90 93<107 119> 381 104<295 338 267.5 356> 381 185<295 491> 458 111<-83 -43>
AnchorPoint: "Anchor-3" 307 -212 basechar 0
AnchorPoint: "Anchor-0" 306 512 basechar 0
LayerCount: 2
Fore
SplineSet
286 -217 m 0xba10
 151 -217 62 -174 62 -86 c 0xba40
 62 -47 89 -11 140 17 c 1
 140 21 l 1
 114 37 90 62 90 103 c 0xb8c0
 90 135 113 171 149 195 c 1
 149 199 l 1
 114 224 86 268 86 326 c 0
 86 439 180 503 288 503 c 0xb540
 317 503 342 499 365 491 c 1
 566 491 l 1
 566 403 l 1xb920
 453 403 l 1
 470 384 485 354 485 322 c 0
 485 213 398 155 288 155 c 0
 266 155 239 160 213 169 c 1
 193 157 183 143 183 123 c 0
 183 91 215 77 276 77 c 2xb8c0
 376 77 l 2
 503 77 569 43 569 -43 c 0
 569 -140 459 -217 286 -217 c 0xba10
288 228 m 0xb540
 339 228 381 264 381 326 c 0
 381 386 339 423 288 423 c 0
 237 423 195 386 195 326 c 0
 195 264 237 228 288 228 c 0xb540
300 -141 m 0xba10
 396 -141 458 -104 458 -62 c 0
 458 -24 425 -14 359 -14 c 2
 281 -14 l 2xd910
 249 -14 226 -12 206 -7 c 1
 171 -27 158 -48 158 -71 c 0
 158 -115 209 -141 300 -141 c 0xba10
EndSplineSet
Validated: 1
Substitution2: "'sups' Superscript lookup 26 subtable" g.sups
Substitution2: "'ss03' Style Set 3 lookup 1 subtable" g.a
EndChar

StartChar: h
Encoding: 104 104 73
Width: 599
GlyphClass: 2
Flags: MW
HStem: 0 21G<82 82 82 198 416 416 416 532> 404 99<329.5 357.5> 686 20G<82 198 198 198>
VStem: 82 116<0 335 524 706> 416 116<0 289 289 304 0 328.5>
AnchorPoint: "Anchor-3" 311 -20 basechar 0
AnchorPoint: "Anchor-2" 140 0 basechar 0
AnchorPoint: "Anchor-0" 138 734 basechar 0
LayerCount: 2
Fore
SplineSet
82 0 m 1
 82 706 l 1
 198 706 l 1
 198 524 l 1
 191 419 l 1
 194 419 l 1
 237 464 292 503 367 503 c 0
 480 503 532 431 532 304 c 2
 532 0 l 1
 416 0 l 1
 416 289 l 2
 416 368 391 404 324 404 c 0
 276 404 243 381 198 335 c 1
 198 0 l 1
 82 0 l 1
EndSplineSet
Validated: 1
Substitution2: "'sups' Superscript lookup 26 subtable" h.sups
EndChar

StartChar: i
Encoding: 105 105 74
Width: 599
GlyphClass: 2
Flags: MW
HStem: 0 21G<297 297 297 412> 400 91<84 297 84 412> 581 155<322.5 369.5>
VStem: 264 164<634.5 681> 297 115<0 400 400 400>
AnchorPoint: "Anchor-6" 354 0 basechar 0
AnchorPoint: "Anchor-3" 346 -20 basechar 0
AnchorPoint: "Anchor-2" 354 0 basechar 0
AnchorPoint: "Anchor-0" 346 750 basechar 0
LayerCount: 2
Fore
SplineSet
297 0 m 1xe8
 297 400 l 1
 84 400 l 1
 84 491 l 1
 412 491 l 1
 412 0 l 1
 297 0 l 1xe8
346 581 m 0xf0
 299 581 264 611 264 658 c 0
 264 704 299 736 346 736 c 0
 393 736 428 704 428 658 c 0
 428 611 393 581 346 581 c 0xf0
EndSplineSet
Validated: 1
Substitution2: "Single Substitution lookup 34 subtable" dotlessi
Substitution2: "'sups' Superscript lookup 26 subtable" i.sups
Substitution2: "'ss04' Style Set 4 lookup 2 subtable" i.a
EndChar

StartChar: j
Encoding: 106 106 75
Width: 599
GlyphClass: 2
Flags: MW
HStem: -206 91<173 231 173 279> 400 91<84 297 84 412> 581 155<322.5 369.5>
VStem: 264 164<634.5 681> 297 115<3 9 9 400 400 400>
AnchorPoint: "Anchor-3" 242 -212 basechar 0
AnchorPoint: "Anchor-0" 346 750 basechar 0
LayerCount: 2
Fore
SplineSet
195 -206 m 0xe8
 138 -206 89 -192 49 -173 c 1
 84 -90 l 1
 121 -107 157 -115 189 -115 c 0
 273 -115 297 -74 297 3 c 2
 297 400 l 1
 84 400 l 1
 84 491 l 1
 412 491 l 1
 412 9 l 2
 412 -111 363 -206 195 -206 c 0xe8
346 581 m 0xf0
 299 581 264 611 264 658 c 0
 264 704 299 736 346 736 c 0
 393 736 428 704 428 658 c 0
 428 611 393 581 346 581 c 0xf0
EndSplineSet
Validated: 1
Substitution2: "Single Substitution lookup 34 subtable" uni0237
Substitution2: "'sups' Superscript lookup 26 subtable" j.sups
EndChar

StartChar: k
Encoding: 107 107 76
Width: 599
GlyphClass: 2
Flags: MW
HStem: 0 21G<90 90 90 206 454 454 454 580> 471 20G<431 559 559 559> 686 20G<90 206 206 206>
VStem: 90 116<0 128 264 706>
AnchorPoint: "Anchor-3" 330 -20 basechar 0
AnchorPoint: "Anchor-0" 171 734 basechar 0
LayerCount: 2
Fore
SplineSet
90 0 m 1
 90 706 l 1
 206 706 l 1
 206 264 l 1
 210 264 l 1
 431 491 l 1
 559 491 l 1
 368 295 l 1
 580 0 l 1
 454 0 l 1
 299 224 l 1
 206 128 l 1
 206 0 l 1
 90 0 l 1
EndSplineSet
Validated: 1
Substitution2: "'sups' Superscript lookup 26 subtable" k.sups
EndChar

StartChar: l
Encoding: 108 108 77
Width: 599
GlyphClass: 2
Flags: MW
HStem: -12 94<404.5 429.5> 615 91<62 226 62 341>
VStem: 226 115<179 615 615 615>
AnchorPoint: "Anchor-4" 283 376 basechar 0
AnchorPoint: "Anchor-3" 376 -20 basechar 0
AnchorPoint: "Anchor-2" 340 0 basechar 0
AnchorPoint: "Anchor-0" 280 734 basechar 0
LayerCount: 2
Fore
SplineSet
401 -12 m 0
 287 -12 226 58 226 179 c 2
 226 615 l 1
 62 615 l 1
 62 706 l 1
 341 706 l 1
 341 173 l 2
 341 107 380 82 429 82 c 0
 455 82 482 88 513 101 c 1
 540 16 l 1
 492 -2 458 -12 401 -12 c 0
EndSplineSet
Validated: 1
Substitution2: "'sups' Superscript lookup 26 subtable" l.sups
Substitution2: "'ss04' Style Set 4 lookup 2 subtable" l.a
EndChar

StartChar: m
Encoding: 109 109 78
Width: 599
GlyphClass: 2
Flags: MW
HStem: 0 21G<46 46 46 158 258 258 258 354 455 455 455 566> 405 98<227.5 233 428.5 429.5> 471 20G<46 135 135 135>
VStem: 46 93 46 112<0 343 0 491> 258 96<0 340 340 343 0 361.5> 455 111<0 340 340 348 0 361.5>
AnchorPoint: "Anchor-3" 305 -20 basechar 0
AnchorPoint: "Anchor-2" 511 0 basechar 0
AnchorPoint: "Anchor-0" 318 514 basechar 0
LayerCount: 2
Fore
SplineSet
46 0 m 1xae
 46 491 l 1xae
 135 491 l 1xb6
 144 429 l 1
 147 429 l 1xd6
 168 471 199 503 256 503 c 0
 301 503 332 475 345 421 c 1
 368 469 400 503 457 503 c 0
 526 503 566 446 566 348 c 2
 566 0 l 1
 455 0 l 1
 455 340 l 2
 455 383 443 405 416 405 c 0
 389 405 374 384 354 343 c 1
 354 0 l 1
 258 0 l 1
 258 340 l 2
 258 383 247 405 219 405 c 0
 193 405 176 384 158 343 c 1xce
 158 0 l 1
 46 0 l 1xae
EndSplineSet
Validated: 1
Substitution2: "'sups' Superscript lookup 26 subtable" m.sups
EndChar

StartChar: n
Encoding: 110 110 79
Width: 599
GlyphClass: 2
Flags: MW
HStem: 0 21G<82 82 82 198 416 416 416 532> 404 99<329.5 357.5> 471 20G<82 177 177 177>
VStem: 82 100 82 116<0 335 0 491> 416 116<0 289 289 304 0 328.5>
AnchorPoint: "Anchor-3" 310 -20 basechar 0
AnchorPoint: "Anchor-2" 475 0 basechar 0
AnchorPoint: "Anchor-0" 316 512 basechar 0
LayerCount: 2
Fore
SplineSet
82 0 m 1xcc
 82 491 l 1xac
 177 491 l 1xb4
 186 417 l 1
 190 417 l 1xd4
 236 464 292 503 367 503 c 0
 480 503 532 431 532 304 c 2
 532 0 l 1
 416 0 l 1
 416 289 l 2
 416 368 391 404 324 404 c 0
 276 404 243 381 198 335 c 1
 198 0 l 1
 82 0 l 1xcc
EndSplineSet
Validated: 1
Substitution2: "'sups' Superscript lookup 26 subtable" n.sups
EndChar

StartChar: o
Encoding: 111 111 80
Width: 599
GlyphClass: 2
Flags: MW
HStem: -12 94<260 340 260 364.5> 409 94<260 340>
VStem: 53 119<196 294.5 196 327> 428 119<196 294.5>
AnchorPoint: "Anchor-6" 300 0 basechar 0
AnchorPoint: "Anchor-5" 412 491 basechar 0
AnchorPoint: "Anchor-3" 300 -20 basechar 0
AnchorPoint: "Anchor-2" 300 0 basechar 0
AnchorPoint: "Anchor-0" 300 512 basechar 0
LayerCount: 2
Fore
SplineSet
300 -12 m 0
 171 -12 53 82 53 245 c 0
 53 409 171 503 300 503 c 0
 429 503 547 409 547 245 c 0
 547 82 429 -12 300 -12 c 0
300 82 m 0
 380 82 428 147 428 245 c 0
 428 344 380 409 300 409 c 0
 220 409 172 344 172 245 c 0
 172 147 220 82 300 82 c 0
EndSplineSet
Validated: 1
Substitution2: "'sups' Superscript lookup 26 subtable" o.sups
EndChar

StartChar: p
Encoding: 112 112 81
Width: 599
GlyphClass: 2
Flags: MW
HStem: -194 21G<82 82 82 198> -12 95<306.5 340 290 385.5> 408 95<318 354> 471 20G<82 177 177 177>
VStem: 82 100 82 116<-194 -40 128 349> 428 119<196.5 301>
AnchorPoint: "Anchor-3" 142 -212 basechar 0
AnchorPoint: "Anchor-0" 322 512 basechar 0
LayerCount: 2
Fore
SplineSet
82 -194 m 1xe6
 82 491 l 1xd6
 177 491 l 1xda
 186 435 l 1
 189 435 l 1xea
 231 474 290 503 346 503 c 0
 474 503 547 405 547 253 c 0
 547 85 442 -12 329 -12 c 0
 284 -12 234 9 195 46 c 1
 192 46 l 1
 198 -40 l 1
 198 -194 l 1
 82 -194 l 1xe6
305 83 m 0
 375 83 428 141 428 252 c 0
 428 350 394 408 314 408 c 0
 277 408 238 390 198 349 c 1xe6
 198 128 l 1
 234 95 275 83 305 83 c 0
EndSplineSet
Validated: 1
Substitution2: "'sups' Superscript lookup 26 subtable" p.sups
EndChar

StartChar: q
Encoding: 113 113 82
Width: 599
GlyphClass: 2
Flags: MW
HStem: -194 21G<402 402 402 518> -12 95<253.5 289.5> 408 95<263 298.5 214 315> 471 20G<427 518 518 518>
VStem: 53 119<193 297.5 193 325> 402 116<-194 -32 -32 -32 142 363 363 363>
AnchorPoint: "Anchor-3" 455 -212 basechar 0
AnchorPoint: "Anchor-0" 306 512 basechar 0
LayerCount: 2
Fore
SplineSet
402 -194 m 1xec
 402 -32 l 1
 408 53 l 1
 405 53 l 1
 368 16 316 -12 263 -12 c 0
 137 -12 53 83 53 245 c 0
 53 405 158 503 270 503 c 0
 327 503 371 482 414 439 c 1
 417 439 l 1xec
 427 491 l 1
 518 491 l 1xdc
 518 -194 l 1
 402 -194 l 1xec
291 83 m 0
 332 83 368 102 402 142 c 1
 402 363 l 1
 367 396 333 408 297 408 c 0
 229 408 172 349 172 246 c 0
 172 140 216 83 291 83 c 0
EndSplineSet
Validated: 1
Substitution2: "'sups' Superscript lookup 26 subtable" q.sups
EndChar

StartChar: r
Encoding: 114 114 83
Width: 599
GlyphClass: 2
Flags: MW
HStem: 0 21G<130 130 130 246> 401 102<404.5 447.5> 471 20G<130 225 225 225> 483 20
VStem: 130 100 130 116<0 271 0 491>
AnchorPoint: "Anchor-3" 192 -20 basechar 0
AnchorPoint: "Anchor-2" 187 0 basechar 0
AnchorPoint: "Anchor-0" 354 512 basechar 0
LayerCount: 2
Fore
SplineSet
130 0 m 1xc4
 130 491 l 1xa4
 225 491 l 1xa8
 235 380 l 1
 238 380 l 1
 288 459 362 503 447 503 c 0xc8
 487 503 513 497 542 483 c 1x94
 518 386 l 1
 486 396 466 401 429 401 c 0
 362 401 296 366 246 271 c 1
 246 0 l 1
 130 0 l 1xc4
EndSplineSet
Validated: 1
Substitution2: "'sups' Superscript lookup 26 subtable" r.sups
EndChar

StartChar: s
Encoding: 115 115 84
Width: 599
GlyphClass: 2
Flags: MW
HStem: -12 87<278 352 278 377.5> 416 87<265.5 327>
VStem: 92 115<344.5 377 344.5 399> 418 115<117.5 150>
AnchorPoint: "Anchor-3" 308 -20 basechar 0
AnchorPoint: "Anchor-2" 312 0 basechar 0
AnchorPoint: "Anchor-0" 308 512 basechar 0
LayerCount: 2
Fore
SplineSet
303 -12 m 0
 211 -12 123 23 62 64 c 1
 112 137 l 1
 171 98 238 75 318 75 c 0
 386 75 418 101 418 134 c 0
 418 166 396 184 282 208 c 0
 151 235 92 282 92 356 c 0
 92 442 170 503 308 503 c 0
 389 503 463 471 513 438 c 1
 460 367 l 1
 412 398 356 416 298 416 c 0
 233 416 207 392 207 362 c 0
 207 327 244 315 335 295 c 0
 492 260 533 218 533 140 c 0
 533 56 452 -12 303 -12 c 0
EndSplineSet
Validated: 1
Substitution2: "'sups' Superscript lookup 26 subtable" s.sups
EndChar

StartChar: t
Encoding: 116 116 85
Width: 599
GlyphClass: 2
Flags: MW
HStem: -12 92<377 423> 400 91<59 195 305 529>
VStem: 190 115<198 400> 203 103
AnchorPoint: "Anchor-3" 374 -20 basechar 0
AnchorPoint: "Anchor-2" 382 0 basechar 0
AnchorPoint: "Anchor-0" 260 650 basechar 0
LayerCount: 2
Fore
SplineSet
391 -12 m 0xe0
 241 -12 190 72 190 198 c 2
 190 400 l 1xe0
 59 400 l 1
 59 486 l 1
 195 491 l 1
 210 645 l 1xd0
 305 645 l 1
 305 491 l 1
 529 491 l 1
 529 400 l 1
 305 400 l 1
 305 198 l 2
 305 117 335 80 419 80 c 0
 460 80 494 88 526 100 c 1
 548 16 l 1
 504 1 455 -12 391 -12 c 0xe0
EndSplineSet
Validated: 1
Substitution2: "'sups' Superscript lookup 26 subtable" t.sups
EndChar

StartChar: u
Encoding: 117 117 86
Width: 599
GlyphClass: 2
Flags: MW
HStem: -12 99<243 270.5> 0 21G<421 515 421 421> 471 20G<70 185 185 185 400 515 515 515>
VStem: 70 115<187 202 202 491> 400 115<160 491 0 491> 417 99
AnchorPoint: "Anchor-6" 424 0 basechar 0
AnchorPoint: "Anchor-3" 307 -20 basechar 0
AnchorPoint: "Anchor-2" 462 0 basechar 0
AnchorPoint: "Anchor-0" 295 512 basechar 0
LayerCount: 2
Fore
SplineSet
234 -12 m 0xb8
 120 -12 70 60 70 187 c 2
 70 491 l 1
 185 491 l 1
 185 202 l 2
 185 123 209 87 277 87 c 0
 323 87 356 106 400 160 c 1xb8
 400 491 l 1
 515 491 l 1
 515 0 l 1x78
 421 0 l 1x74
 412 78 l 1
 408 78 l 1xb4
 362 24 307 -12 234 -12 c 0xb8
EndSplineSet
Validated: 1
Substitution2: "'sups' Superscript lookup 26 subtable" u.sups
EndChar

StartChar: v
Encoding: 118 118 87
Width: 599
GlyphClass: 2
Flags: MW
HStem: 0 88<237 305 301 305 301 368> 471 20G<41 157 157 157 449 559 559 559>
VStem: 41 518<491 491>
AnchorPoint: "Anchor-3" 300 -20 basechar 0
AnchorPoint: "Anchor-0" 300 512 basechar 0
LayerCount: 2
Fore
SplineSet
237 0 m 1
 41 491 l 1
 157 491 l 1
 252 236 l 2
 270 187 285 138 301 88 c 1
 305 88 l 1
 321 138 336 187 354 236 c 2
 449 491 l 1
 559 491 l 1
 368 0 l 1
 237 0 l 1
EndSplineSet
Validated: 1
Substitution2: "'sups' Superscript lookup 26 subtable" v.sups
EndChar

StartChar: w
Encoding: 119 119 88
Width: 599
GlyphClass: 2
Flags: MW
HStem: 0 95<99 185 182 185 182 238 423 427> 341 102<298 302 298 298> 471 20G<6 119 119 119 487 594 594 594>
VStem: 6 588<491 491>
AnchorPoint: "Anchor-3" 300 -20 basechar 0
AnchorPoint: "Anchor-0" 300 512 basechar 0
LayerCount: 2
Fore
SplineSet
99 0 m 1
 6 491 l 1
 119 491 l 1
 163 236 l 2
 170 188 176 143 182 95 c 1
 185 95 l 1
 191 143 200 189 211 236 c 2
 256 443 l 1
 351 443 l 1
 395 236 l 2
 406 188 416 143 423 95 c 1
 427 95 l 1
 434 143 438 188 445 236 c 2
 487 491 l 1
 594 491 l 1
 504 0 l 1
 364 0 l 1
 323 196 l 2
 316 234 309 282 302 341 c 1
 298 341 l 1
 292 290 286 244 278 196 c 2
 238 0 l 1
 99 0 l 1
EndSplineSet
Validated: 1
Substitution2: "'sups' Superscript lookup 26 subtable" w.sups
EndChar

StartChar: x
Encoding: 120 120 89
Width: 599
GlyphClass: 2
Flags: MW
HStem: 0 21G<51 51 51 172 424 424 424 549> 471 20G<63 188 188 188 416 537 537 537>
VStem: 51 498<0 0>
AnchorPoint: "Anchor-3" 300 -20 basechar 0
AnchorPoint: "Anchor-2" 476 0 basechar 0
AnchorPoint: "Anchor-0" 300 512 basechar 0
LayerCount: 2
Fore
SplineSet
51 0 m 1
 229 255 l 1
 63 491 l 1
 188 491 l 1
 252 398 l 2
 268 371 288 342 306 314 c 1
 310 314 l 1
 325 342 343 372 358 399 c 2
 416 491 l 1
 537 491 l 1
 370 243 l 1
 549 0 l 1
 424 0 l 1
 353 97 l 2
 334 124 313 156 293 184 c 1
 289 184 l 1
 271 155 254 127 236 96 c 2
 172 0 l 1
 51 0 l 1
EndSplineSet
Validated: 1
Substitution2: "'sups' Superscript lookup 26 subtable" x.sups
EndChar

StartChar: y
Encoding: 121 121 90
Width: 599
GlyphClass: 2
Flags: MW
HStem: -202 93<124 161 123 196> 471 20G<40 155 155 155 452 561 561 561>
VStem: 40 521<491 491>
AnchorPoint: "Anchor-6" 276 -96 basechar 0
AnchorPoint: "Anchor-3" 267 -212 basechar 0
AnchorPoint: "Anchor-0" 306 512 basechar 0
LayerCount: 2
Fore
SplineSet
137 -202 m 0
 111 -202 86 -198 67 -192 c 1
 89 -102 l 1
 102 -106 116 -109 130 -109 c 0
 192 -109 228 -74 248 -25 c 2
 260 6 l 1
 40 491 l 1
 155 491 l 1
 256 250 l 2
 274 206 292 155 310 106 c 1
 314 106 l 1
 329 153 347 204 363 250 c 2
 452 491 l 1
 561 491 l 1
 356 -22 l 2
 314 -133 255 -202 137 -202 c 0
EndSplineSet
Validated: 1
Substitution2: "'sups' Superscript lookup 26 subtable" y.sups
EndChar

StartChar: z
Encoding: 122 122 91
Width: 599
GlyphClass: 2
Flags: MW
HStem: 0 92<232 536 232 536> 400 91<104 366 104 528>
VStem: 71 465<0 62 62 62>
AnchorPoint: "Anchor-3" 312 -20 basechar 0
AnchorPoint: "Anchor-2" 320 0 basechar 0
AnchorPoint: "Anchor-0" 325 512 basechar 0
LayerCount: 2
Fore
SplineSet
71 0 m 1
 71 62 l 1
 366 400 l 1
 104 400 l 1
 104 491 l 1
 528 491 l 1
 528 430 l 1
 232 92 l 1
 536 92 l 1
 536 0 l 1
 71 0 l 1
EndSplineSet
Validated: 1
Substitution2: "'sups' Superscript lookup 26 subtable" z.sups
EndChar

StartChar: braceleft
Encoding: 123 123 92
Width: 599
GlyphClass: 2
Flags: MW
HStem: -152 63<366.5 499 453 499 453 499> 243 70<113 113> 645 63<430 453 453 499>
VStem: 113 137<276 280 276 313 276 313> 244 101
LayerCount: 2
Fore
SplineSet
430 -152 m 2xe8
 303 -152 244 -120 244 -14 c 0
 244 58 254 102 254 168 c 0xe8
 254 204 226 242 113 243 c 1
 113 313 l 1xf0
 226 314 254 352 254 388 c 0
 254 451 244 501 244 570 c 0
 244 676 303 708 430 708 c 2
 499 708 l 1
 499 645 l 1
 453 645 l 2
 360 645 340 625 340 565 c 0
 340 510 345 454 345 393 c 0
 345 323 320 292 250 280 c 1
 250 276 l 1
 320 264 345 233 345 163 c 0
 345 99 340 49 340 -9 c 0
 340 -69 360 -89 453 -89 c 2
 499 -89 l 1
 499 -152 l 1
 430 -152 l 2xe8
EndSplineSet
Validated: 1
EndChar

StartChar: bar
Encoding: 124 124 93
Width: 599
GlyphClass: 2
Flags: MW
HStem: -250 1000<249 351 249 351>
VStem: 249 102<-250 750 -250 750>
LayerCount: 2
Fore
SplineSet
249 -250 m 1
 249 750 l 1
 351 750 l 1
 351 -250 l 1
 249 -250 l 1
EndSplineSet
Validated: 1
EndChar

StartChar: braceright
Encoding: 125 125 94
Width: 599
GlyphClass: 2
Flags: MW
HStem: -152 63<102 148 102 148 148 171> 243 70<487 487> 645 63<102 148 102 171>
VStem: 256 100 351 136<276 280 280 280>
LayerCount: 2
Fore
SplineSet
102 -152 m 1xf0
 102 -89 l 1
 148 -89 l 2
 240 -89 261 -69 261 -9 c 0
 261 49 256 99 256 163 c 0
 256 233 280 264 351 276 c 1
 351 280 l 1
 280 292 256 323 256 393 c 0
 256 454 261 510 261 565 c 0
 261 625 240 645 148 645 c 2
 102 645 l 1
 102 708 l 1
 171 708 l 2
 298 708 356 676 356 570 c 0
 356 501 346 451 346 388 c 0xf0
 346 352 374 314 487 313 c 1
 487 243 l 1xe8
 374 242 346 204 346 168 c 0
 346 102 356 58 356 -14 c 0
 356 -120 298 -152 171 -152 c 2
 102 -152 l 1xf0
EndSplineSet
Validated: 1
EndChar

StartChar: asciitilde
Encoding: 126 126 95
Width: 599
GlyphClass: 2
Flags: MW
HStem: 248 84<360.5 403 360.5 414.5> 328 84<197 239.5>
VStem: 64 472<276 383>
LayerCount: 2
Fore
SplineSet
386 248 m 0xa0
 306 248 267 328 212 328 c 0
 182 328 156 306 134 244 c 1
 64 276 l 1x60
 102 376 157 412 214 412 c 0
 294 412 333 332 388 332 c 0
 418 332 444 353 466 416 c 1
 536 383 l 1
 498 284 443 248 386 248 c 0xa0
EndSplineSet
Validated: 1
EndChar

StartChar: exclamdown
Encoding: 161 161 97
Width: 599
GlyphClass: 2
Flags: MW
HStem: 325 178<275.5 324.5> 483 20G<275.5 324.5>
VStem: 213 174<386.5 440> 245 111 254 92
LayerCount: 2
Fore
SplineSet
243 -179 m 1x50
 246 -65 l 1
 262 247 l 1
 338 247 l 1x48
 354 -65 l 1
 357 -179 l 1
 243 -179 l 1x50
300 325 m 0xa0
 251 325 213 360 213 413 c 0
 213 467 251 503 300 503 c 0
 349 503 387 467 387 413 c 0
 387 360 349 325 300 325 c 0xa0
EndSplineSet
Validated: 1
EndChar

StartChar: cent
Encoding: 162 162 98
Width: 599
GlyphClass: 2
Flags: MW
HStem: -37 691<312 379 312 379> 463 93<379 379>
VStem: 104 113<271 344.5 271 378> 312 67<-37 62 -37 62 162 455 455 455 556 654>
LayerCount: 2
Fore
SplineSet
217 308 m 0xb0
 217 234 251 181 312 162 c 1
 312 455 l 1
 251 435 217 381 217 308 c 0xb0
312 -37 m 1
 312 62 l 1
 187 78 104 165 104 308 c 0
 104 448 193 534 312 553 c 1
 312 654 l 1
 379 654 l 1
 379 556 l 1
 433 553 476 529 506 499 c 1
 452 428 l 1
 429 448 406 460 379 463 c 1x70
 379 155 l 1
 414 159 443 177 467 196 c 1
 515 123 l 1
 476 88 427 67 379 62 c 1
 379 -37 l 1
 312 -37 l 1
EndSplineSet
Validated: 1
EndChar

StartChar: sterling
Encoding: 163 163 99
Width: 599
GlyphClass: 2
Flags: MW
HStem: 0 98<231 541 231 541> 278 71 278 74<164 164 164 188 290 290 290 449> 554 94<330 391>
VStem: 139 110<437.5 481.5 431.5 514> 193 101<206.5 243.5 206.5 244>
LayerCount: 2
Fore
SplineSet
73 0 m 1xb8
 73 71 l 1
 148 103 193 164 193 237 c 0
 193 251 191 264 188 278 c 1
 74 278 l 1xb4
 74 347 l 1xd8
 164 352 l 1
 151 386 139 421 139 454 c 0
 139 574 229 648 359 648 c 0
 440 648 497 618 540 570 c 1
 476 507 l 1
 447 536 414 554 368 554 c 0
 292 554 249 515 249 448 c 0
 249 415 259 384 270 352 c 1xb8
 449 352 l 1
 449 278 l 1
 290 278 l 1
 293 265 294 251 294 236 c 0
 294 177 274 140 231 102 c 1
 231 98 l 1xb4
 541 98 l 1
 541 0 l 1
 73 0 l 1xb8
EndSplineSet
Validated: 1
EndChar

StartChar: currency
Encoding: 164 164 100
Width: 599
GlyphClass: 2
Flags: MW
HStem: 132 82<281 318.5> 445 82<281 318.5 281 328>
VStem: 94 104<307 351.5> 402 104<307 351.5 307 364>
LayerCount: 2
Fore
SplineSet
106 73 m 1
 47 133 l 1
 129 216 l 1
 107 247 94 285 94 329 c 0
 94 374 107 412 128 443 c 1
 47 526 l 1
 106 586 l 1
 194 496 l 1
 225 516 262 527 300 527 c 0
 337 527 375 516 406 496 c 1
 494 586 l 1
 553 526 l 1
 471 443 l 1
 493 412 506 374 506 329 c 0
 506 285 492 247 470 216 c 1
 553 133 l 1
 494 73 l 1
 405 163 l 1
 374 142 337 132 300 132 c 0
 262 132 226 142 194 163 c 1
 106 73 l 1
300 214 m 0
 356 214 402 260 402 329 c 0
 402 399 356 445 300 445 c 0
 244 445 198 399 198 329 c 0
 198 260 244 214 300 214 c 0
EndSplineSet
Validated: 1
EndChar

StartChar: yen
Encoding: 165 165 101
Width: 599
GlyphClass: 2
Flags: MW
HStem: 0 212<67 242 67 357> 152 60<67 242 67 242 357 533> 271 59<67 215 67 242 67 215 384 533> 616 20G<42 160 160 160 443 558 558 558>
VStem: 242 115<0 152 0 152 212 271>
LayerCount: 2
Fore
SplineSet
242 0 m 1xb8
 242 152 l 1
 67 152 l 1
 67 212 l 1
 242 212 l 1
 242 271 l 1
 67 271 l 1
 67 330 l 1
 215 330 l 1
 42 636 l 1
 160 636 l 1
 236 485 l 2
 258 441 277 397 299 352 c 1
 303 352 l 1
 325 397 345 441 367 485 c 2
 443 636 l 1
 558 636 l 1
 384 330 l 1
 533 330 l 1
 533 271 l 1
 357 271 l 1
 357 212 l 1
 533 212 l 1
 533 152 l 1
 357 152 l 1x78
 357 0 l 1
 242 0 l 1xb8
EndSplineSet
Validated: 1
EndChar

StartChar: brokenbar
Encoding: 166 166 102
Width: 599
GlyphClass: 2
Flags: MW
HStem: -250 1000<249 351 249 351>
VStem: 249 102<-250 190 -250 190 310 750>
LayerCount: 2
Fore
SplineSet
249 -250 m 1
 249 190 l 1
 351 190 l 1
 351 -250 l 1
 249 -250 l 1
249 310 m 1
 249 750 l 1
 351 750 l 1
 351 310 l 1
 249 310 l 1
EndSplineSet
Validated: 1
EndChar

StartChar: section
Encoding: 167 167 103
Width: 599
GlyphClass: 2
Flags: MW
HStem: -74 86<258 305.5 258 337> 600 87<285 328.5>
VStem: 81 98<304.5 358.5 304.5 361> 137 105<528 564.5 505 585> 354 104<52 89.5 31 116> 421 98<257.5 313>
LayerCount: 2
Fore
SplineSet
282 -74 m 0xe4
 208 -74 138 -47 94 4 c 1
 162 64 l 1
 196 31 234 12 282 12 c 0
 329 12 354 36 354 68 c 0
 354 164 81 148 81 334 c 0xe8
 81 388 116 435 167 463 c 1
 148 484 137 511 137 545 c 0
 137 625 196 687 302 687 c 0
 374 687 433 657 474 626 c 1
 420 553 l 1
 387 580 349 600 308 600 c 0
 262 600 242 579 242 550 c 0
 242 460 519 466 519 284 c 0xd4
 519 223 486 183 432 152 c 1
 448 131 458 106 458 73 c 0xe8
 458 -11 392 -74 282 -74 c 0xe4
179 342 m 0
 179 267 289 248 370 202 c 1
 404 219 421 240 421 275 c 0
 421 351 313 371 231 415 c 1
 198 398 179 375 179 342 c 0
EndSplineSet
Validated: 1
EndChar

StartChar: dieresis
Encoding: 168 168 104
Width: 599
GlyphClass: 2
Flags: MW
HStem: 579 137<176 216 384 424>
VStem: 128 136<628.5 667> 336 136<628.5 667>
LayerCount: 2
Fore
SplineSet
196 579 m 0
 156 579 128 609 128 648 c 0
 128 686 156 716 196 716 c 0
 236 716 264 686 264 648 c 0
 264 609 236 579 196 579 c 0
404 579 m 0
 364 579 336 609 336 648 c 0
 336 686 364 716 404 716 c 0
 444 716 472 686 472 648 c 0
 472 609 444 579 404 579 c 0
EndSplineSet
Validated: 1
EndChar

StartChar: copyright
Encoding: 169 169 105
Width: 599
GlyphClass: 2
Flags: MW
HStem: -10 52<234 366 234 376.5> 126 71<287.5 328 287.5 333.5> 443 71<290.5 329.5> 603 51<234 366>
VStem: 24 56<239.5 409 239.5 427> 142 87<284.5 357.5 284.5 381.5> 520 56<239.5 409>
LayerCount: 2
Fore
SplineSet
300 -10 m 0
 147 -10 24 119 24 324 c 0
 24 530 147 654 300 654 c 0
 453 654 576 530 576 324 c 0
 576 119 453 -10 300 -10 c 0
300 42 m 0
 432 42 520 155 520 324 c 0
 520 494 432 603 300 603 c 0
 168 603 80 494 80 324 c 0
 80 155 168 42 300 42 c 0
310 126 m 0
 215 126 142 201 142 323 c 0
 142 440 222 514 311 514 c 0
 361 514 393 493 420 466 c 1
 375 416 l 1
 357 433 341 443 318 443 c 0
 263 443 229 392 229 323 c 0
 229 246 262 197 313 197 c 0
 343 197 362 210 384 226 c 1
 422 170 l 1
 391 145 357 126 310 126 c 0
EndSplineSet
Validated: 1
EndChar

StartChar: ordfeminine
Encoding: 170 170 106
Width: 599
GlyphClass: 2
Flags: MW
HStem: 377 63<271 283.5> 385 55 543 49<370 370> 651 67<288.5 324>
VStem: 154 81<466.5 497 466.5 507.5> 370 83<474 543 543 543> 382 71
LayerCount: 2
Fore
SplineSet
262 377 m 0xbc
 198 377 154 417 154 473 c 0
 154 542 220 582 370 592 c 1
 367 627 348 651 300 651 c 0
 266 651 230 639 197 620 c 1
 166 676 l 1
 206 699 261 718 316 718 c 0
 404 718 453 669 453 576 c 2
 453 385 l 1x7c
 385 385 l 1x7a
 379 422 l 1
 377 422 l 1xba
 345 396 305 377 262 377 c 0xbc
285 440 m 0
 317 440 343 454 370 474 c 1
 370 543 l 1
 271 535 235 513 235 481 c 0
 235 452 257 440 285 440 c 0
EndSplineSet
Validated: 1
Substitution2: "'ss02' Style Set 2 lookup 0 subtable" ordfeminine.a
EndChar

StartChar: guillemotleft
Encoding: 171 171 107
Width: 599
GlyphClass: 2
Flags: MW
HStem: 38 428<224 224 224 472>
VStem: 62 461<83 309 83 309>
LayerCount: 2
Fore
SplineSet
224 38 m 1
 62 195 l 1
 62 309 l 1
 224 466 l 1
 275 420 l 1
 148 252 l 1
 275 83 l 1
 224 38 l 1
472 38 m 1
 310 195 l 1
 310 309 l 1
 472 466 l 1
 523 420 l 1
 396 252 l 1
 523 83 l 1
 472 38 l 1
EndSplineSet
Validated: 1
EndChar

StartChar: logicalnot
Encoding: 172 172 108
Width: 599
GlyphClass: 2
Flags: MW
HStem: 288 84<78 435 78 522>
VStem: 435 87<99 288 288 288>
LayerCount: 2
Fore
SplineSet
435 99 m 1
 435 288 l 1
 78 288 l 1
 78 372 l 1
 522 372 l 1
 522 99 l 1
 435 99 l 1
EndSplineSet
Validated: 1
EndChar

StartChar: uni00AD
Encoding: 173 173 109
Width: 599
GlyphClass: 2
Flags: MW
HStem: 288 84<78 522 78 522>
VStem: 78 444<288 372 288 372>
LayerCount: 2
Fore
SplineSet
78 288 m 1
 78 372 l 1
 522 372 l 1
 522 288 l 1
 78 288 l 1
EndSplineSet
Validated: 1
Substitution2: "'ss01' Style Set 1 lookup 10 subtable" uni00AD.a
EndChar

StartChar: registered
Encoding: 174 174 110
Width: 599
GlyphClass: 2
Flags: MW
HStem: 315 43<257 341 257 352.5> 482 36<272 295 295 307 272 295> 578 38<272 297 272 272> 672 42<257 341>
VStem: 106 47<467.5 561 467.5 573> 223 49<417 482 518 578> 332 53<539.5 556.5> 445 48<467.5 561>
LayerCount: 2
Fore
SplineSet
299 315 m 0
 193 315 106 397 106 514 c 0
 106 632 193 714 299 714 c 0
 406 714 493 632 493 514 c 0
 493 397 406 315 299 315 c 0
299 358 m 0
 383 358 445 421 445 514 c 0
 445 608 383 672 299 672 c 0
 215 672 153 608 153 514 c 0
 153 421 215 358 299 358 c 0
223 417 m 1
 223 616 l 1
 305 616 l 2
 349 616 385 598 385 551 c 0
 385 528 372 506 349 496 c 1
 393 417 l 1
 339 417 l 1
 307 482 l 1
 272 482 l 1
 272 417 l 1
 223 417 l 1
272 518 m 1
 295 518 l 2
 319 518 332 530 332 548 c 0
 332 565 321 578 297 578 c 2
 272 578 l 1
 272 518 l 1
EndSplineSet
Validated: 1
EndChar

StartChar: macron
Encoding: 175 175 111
Width: 599
GlyphClass: 2
Flags: MW
HStem: 596 76<160 440 160 440>
VStem: 160 280<596 672 596 672>
LayerCount: 2
Fore
SplineSet
160 596 m 1
 160 672 l 1
 440 672 l 1
 440 596 l 1
 160 596 l 1
EndSplineSet
Validated: 1
EndChar

StartChar: degree
Encoding: 176 176 112
Width: 599
GlyphClass: 2
Flags: MW
HStem: 413 59<280 322 280 338> 627 58<280 322>
VStem: 165 64<526.5 572 526.5 589.5> 372 64<526.5 572>
LayerCount: 2
Fore
SplineSet
301 413 m 0
 227 413 165 468 165 549 c 0
 165 630 227 685 301 685 c 0
 375 685 436 630 436 549 c 0
 436 468 375 413 301 413 c 0
301 472 m 0
 343 472 372 504 372 549 c 0
 372 595 343 627 301 627 c 0
 259 627 229 595 229 549 c 0
 229 504 259 472 301 472 c 0
EndSplineSet
Validated: 1
EndChar

StartChar: plusminus
Encoding: 177 177 113
Width: 599
GlyphClass: 2
Flags: MW
HStem: 0 83<78 522 78 522> 299 83<78 256 78 256 344 522>
VStem: 256 88<143 299 143 299 382 561>
LayerCount: 2
Fore
SplineSet
256 143 m 1
 256 299 l 1
 78 299 l 1
 78 382 l 1
 256 382 l 1
 256 561 l 1
 344 561 l 1
 344 382 l 1
 522 382 l 1
 522 299 l 1
 344 299 l 1
 344 143 l 1
 256 143 l 1
78 0 m 1
 78 83 l 1
 522 83 l 1
 522 0 l 1
 78 0 l 1
EndSplineSet
Validated: 1
EndChar

StartChar: two.sups
Encoding: 178 178 114
Width: 599
GlyphClass: 2
Flags: MW
HStem: 385 73<290 451 290 451> 689 20G<137 137> 715 72<257.5 297.5>
VStem: 350 84<623.5 666>
LayerCount: 2
Fore
SplineSet
158 385 m 1
 152 433 l 1
 278 533 350 590 350 644 c 0
 350 688 321 715 274 715 c 0
 241 715 210 695 187 663 c 1
 137 709 l 1
 173 759 227 787 287 787 c 0
 375 787 434 741 434 658 c 0
 434 589 375 535 290 458 c 1
 451 458 l 1
 451 385 l 1
 158 385 l 1
EndSplineSet
Validated: 1
EndChar

StartChar: three.sups
Encoding: 179 179 115
Width: 599
GlyphClass: 2
Flags: MW
HStem: 373 67<269.5 311 269.5 339> 473 20G<189 189> 558 51<250 283.5 250 290> 720 67<267.5 304>
VStem: 352 85<658 684.5> 367 85<479.5 516.5 456 517.5>
LayerCount: 2
Fore
SplineSet
297 373 m 0xf4
 227 373 168 402 135 451 c 1
 189 493 l 1
 214 457 249 440 290 440 c 0
 332 440 367 461 367 498 c 0xf4
 367 537 330 558 250 558 c 1
 250 609 l 1
 317 609 352 632 352 669 c 0
 352 700 325 720 283 720 c 0
 252 720 222 703 201 677 c 1
 151 721 l 1
 190 765 235 787 297 787 c 0
 372 787 437 747 437 680 c 0xf8
 437 636 414 608 365 587 c 1
 418 575 452 541 452 492 c 0
 452 420 381 373 297 373 c 0xf4
EndSplineSet
Validated: 1
EndChar

StartChar: acute
Encoding: 180 180 116
Width: 599
GlyphClass: 2
Flags: MW
HStem: 699 20G<456 456>
VStem: 229 227<621 719>
LayerCount: 2
Fore
SplineSet
286 564 m 1
 229 621 l 1
 376 796 l 1
 456 719 l 1
 286 564 l 1
EndSplineSet
Validated: 1
EndChar

StartChar: uni00B5
Encoding: 181 181 117
Width: 599
GlyphClass: 2
Flags: MW
HStem: -12 21G<479 521> -12 94<479 538.5> -8 95<252.5 296 245 296.5> 471 20G<74 189 189 189 396 512 512 512>
VStem: 74 107 74 115<162 202 202 491> 396 108<106 491>
LayerCount: 2
Fore
SplineSet
74 -192 m 1x36
 74 491 l 1
 189 491 l 1
 189 202 l 2
 189 122 216 87 274 87 c 0
 318 87 356 105 396 176 c 1x36
 396 491 l 1
 512 491 l 1
 508 368 504 220 504 120 c 0
 504 92 518 82 536 82 c 0
 541 82 545 82 554 84 c 1x56
 568 -2 l 1
 554 -8 534 -12 508 -12 c 0x96
 450 -12 418 16 408 86 c 1
 405 86 l 1
 372 23 323 -8 270 -8 c 0
 235 -8 203 -1 181 30 c 1
 182 -60 184 -114 190 -192 c 1x3a
 74 -192 l 1x36
EndSplineSet
Validated: 1
EndChar

StartChar: paragraph
Encoding: 182 182 118
Width: 599
GlyphClass: 2
Flags: MW
HStem: -80 734<296 392 392 506>
VStem: 60 279<360 517> 392 114<-80 654 -80 654>
LayerCount: 2
Fore
SplineSet
303 212 m 2
 167 212 60 284 60 436 c 0
 60 598 164 654 296 654 c 2
 339 654 l 1
 339 212 l 1
 303 212 l 2
392 -80 m 1
 392 654 l 1
 506 654 l 1
 506 -80 l 1
 392 -80 l 1
EndSplineSet
Validated: 1
EndChar

StartChar: periodcentered
Encoding: 183 183 119
Width: 599
GlyphClass: 5
Flags: MW
HStem: 249 202<271.5 328.5>
VStem: 201 198<321 379>
LayerCount: 2
Fore
SplineSet
300 249 m 0
 243 249 201 292 201 350 c 0
 201 408 243 451 300 451 c 0
 357 451 399 408 399 350 c 0
 399 292 357 249 300 249 c 0
EndSplineSet
Validated: 1
EndChar

StartChar: cedilla
Encoding: 184 184 120
Width: 599
GlyphClass: 2
Flags: MW
HStem: -233 50<196 206> -91 101<225 340>
VStem: 302 85<-150.5 -124.5>
LayerCount: 2
Fore
SplineSet
206 -233 m 1
 196 -183 l 1
 277 -178 302 -165 302 -136 c 0
 302 -113 284 -99 225 -91 c 1
 270 10 l 1
 340 10 l 1
 312 -62 l 1
 360 -74 387 -94 387 -135 c 0
 387 -198 321 -228 206 -233 c 1
EndSplineSet
Validated: 1
EndChar

StartChar: one.sups
Encoding: 185 185 121
Width: 599
GlyphClass: 2
Flags: MW
HStem: 385 73<170 292 170 292 379 488> 679 96<186 379>
VStem: 292 87<458 679 679 679>
LayerCount: 2
Fore
SplineSet
170 385 m 1
 170 458 l 1
 292 458 l 1
 292 679 l 1
 186 679 l 1
 186 733 l 1
 245 742 276 751 310 775 c 1
 379 775 l 1
 379 458 l 1
 488 458 l 1
 488 385 l 1
 170 385 l 1
EndSplineSet
Validated: 1
EndChar

StartChar: ordmasculine
Encoding: 186 186 122
Width: 599
GlyphClass: 2
Flags: MW
HStem: 377 67<275.5 325 275.5 343> 650 68<275.5 325>
VStem: 137 87<516 578 516 601> 376 87<516 578>
LayerCount: 2
Fore
SplineSet
300 377 m 0
 214 377 137 440 137 547 c 0
 137 655 214 718 300 718 c 0
 386 718 463 655 463 547 c 0
 463 440 386 377 300 377 c 0
300 444 m 0
 350 444 376 485 376 547 c 0
 376 609 350 650 300 650 c 0
 251 650 224 609 224 547 c 0
 224 485 251 444 300 444 c 0
EndSplineSet
Validated: 1
EndChar

StartChar: guillemotright
Encoding: 187 187 123
Width: 599
GlyphClass: 2
Flags: MW
HStem: 38 428<128 128 128 376>
VStem: 77 461<83 309 195 420>
LayerCount: 2
Fore
SplineSet
128 38 m 1
 77 83 l 1
 204 252 l 1
 77 420 l 1
 128 466 l 1
 290 309 l 1
 290 195 l 1
 128 38 l 1
376 38 m 1
 325 83 l 1
 452 252 l 1
 325 420 l 1
 376 466 l 1
 538 309 l 1
 538 195 l 1
 376 38 l 1
EndSplineSet
Validated: 1
EndChar

StartChar: onequarter
Encoding: 188 188 124
Width: 599
GlyphClass: 2
Flags: MW
HStem: 0 122<375 457 375 533> 67 55<375 457 375 457 533 584> 549 53<60 141 60 60> 549 87<60 227>
VStem: 141 86<328 549 549 549> 457 76<0 67 0 67 122 214>
LayerCount: 2
Fore
SplineSet
141 328 m 1x9c
 141 549 l 1
 60 549 l 1x9c
 60 602 l 1xac
 107 609 130 618 160 636 c 1
 227 636 l 1
 227 328 l 1
 141 328 l 1x9c
84 30 m 1
 22 89 l 1
 207 270 l 1
 249 231 l 1
 84 30 l 1
393 384 m 1
 351 423 l 1
 516 624 l 1
 578 565 l 1
 393 384 l 1
457 0 m 1
 457 67 l 1
 296 67 l 1
 296 109 l 1x5c
 401 320 l 1
 462 296 l 1
 375 122 l 1
 457 122 l 1
 457 214 l 1
 533 214 l 1
 533 122 l 1
 584 122 l 1x9c
 584 67 l 1
 533 67 l 1x5c
 533 0 l 1
 457 0 l 1
EndSplineSet
Validated: 1
EndChar

StartChar: onehalf
Encoding: 189 189 125
Width: 599
GlyphClass: 2
Flags: MW
HStem: 0 70<455 569 455 569> 251 69<409 437> 549 53<60 141 60 60> 549 87<60 227>
VStem: 141 86<328 549 549 549> 319 250<0 46 46 46> 473 82<190 216.5>
LayerCount: 2
Fore
SplineSet
141 328 m 1xd8
 141 549 l 1
 60 549 l 1xdc
 60 602 l 1xe8
 107 609 130 618 160 636 c 1
 227 636 l 1
 227 328 l 1
 141 328 l 1xd8
84 30 m 1
 22 89 l 1
 207 270 l 1
 249 231 l 1
 84 30 l 1
393 384 m 1
 351 423 l 1
 516 624 l 1
 578 565 l 1
 393 384 l 1
319 0 m 1
 319 46 l 1xdc
 412 112 473 162 473 201 c 0
 473 232 454 251 420 251 c 0
 398 251 375 237 357 213 c 1
 306 258 l 1
 340 294 381 320 432 320 c 0
 508 320 555 281 555 215 c 0
 555 165 509 119 455 70 c 1xda
 569 70 l 1
 569 0 l 1
 319 0 l 1
EndSplineSet
Validated: 1
EndChar

StartChar: threequarters
Encoding: 190 190 126
Width: 599
GlyphClass: 2
Flags: MW
HStem: 0 122<375 457 375 533> 67 55<375 457 375 457 533 584> 316 64<136 164.5 134 193> 461 47<117 140 117 146> 584 64<134 156.5>
VStem: 188 84<543.5 560> 201 84<405 432 383 432.5> 457 76<0 67 0 67 122 214>
LayerCount: 2
Fore
SplineSet
158 316 m 0xbb
 114 316 66 330 26 364 c 1
 63 417 l 1
 84 397 118 380 150 380 c 0
 179 380 201 392 201 418 c 0
 201 447 175 461 117 461 c 1xbb
 117 508 l 1
 163 508 188 522 188 550 c 0
 188 570 172 584 141 584 c 0
 118 584 91 571 71 555 c 1
 35 605 l 1
 63 631 109 648 159 648 c 0
 223 648 272 615 272 562 c 0xbd
 272 525 256 503 217 489 c 1
 262 478 285 452 285 412 c 0
 285 354 228 316 158 316 c 0xbb
100 30 m 1
 38 89 l 1
 223 270 l 1
 265 231 l 1
 100 30 l 1
409 384 m 1
 367 423 l 1
 532 624 l 1
 594 565 l 1
 409 384 l 1
457 0 m 1
 457 67 l 1
 296 67 l 1
 296 109 l 1x7b
 401 320 l 1
 462 296 l 1
 375 122 l 1
 457 122 l 1
 457 214 l 1
 533 214 l 1
 533 122 l 1
 584 122 l 1xbb
 584 67 l 1
 533 67 l 1x7b
 533 0 l 1
 457 0 l 1
EndSplineSet
Validated: 1
EndChar

StartChar: questiondown
Encoding: 191 191 127
Width: 599
GlyphClass: 2
Flags: MW
HStem: -191 94<286.5 338 286.5 346.5> 325 178<289.5 338.5> 483 20G<289.5 338.5>
VStem: 112 111<-41 27 -41 36> 227 174<386.5 440>
LayerCount: 2
Fore
SplineSet
307 -191 m 0xb0
 194 -191 112 -134 112 -31 c 0
 112 103 284 125 269 247 c 1
 370 247 l 1
 393 109 223 71 223 -17 c 0
 223 -65 258 -97 315 -97 c 0
 361 -97 398 -76 431 -45 c 1
 496 -105 l 1
 450 -155 386 -191 307 -191 c 0xb0
314 325 m 0xc8
 265 325 227 360 227 413 c 0
 227 467 265 503 314 503 c 0
 363 503 401 467 401 413 c 0
 401 360 363 325 314 325 c 0xc8
EndSplineSet
Validated: 33
EndChar

StartChar: Agrave
Encoding: 192 192 128
Width: 599
GlyphClass: 2
Flags: MW
HStem: 0 21G<20 20 20 138 457 457 457 580> 177 91<215 381 215 407 189 381> 564 90<296 300 296 296>
VStem: 20 560<0 0>
LayerCount: 2
Fore
SplineSet
238 348 m 2
 215 268 l 1
 381 268 l 1
 358 348 l 2
 339 417 318 491 300 564 c 1
 296 564 l 1
 278 491 258 417 238 348 c 2
20 0 m 1
 232 654 l 1
 368 654 l 1
 580 0 l 1
 457 0 l 1
 407 177 l 1
 189 177 l 1
 138 0 l 1
 20 0 l 1
333 688 m 1
 165 805 l 1
 228 881 l 1
 384 746 l 1
 333 688 l 1
EndSplineSet
Validated: 1
EndChar

StartChar: Aacute
Encoding: 193 193 129
Width: 599
GlyphClass: 2
Flags: MW
HStem: 0 21G<20 20 20 138 457 457 457 580> 177 91<215 381 215 407 189 381> 564 90<296 300 296 296>
VStem: 20 560<0 0>
AnchorPoint: "Anchor-6" 499 0 basechar 0
LayerCount: 2
Fore
SplineSet
238 348 m 2
 215 268 l 1
 381 268 l 1
 358 348 l 2
 339 417 318 491 300 564 c 1
 296 564 l 1
 278 491 258 417 238 348 c 2
20 0 m 1
 232 654 l 1
 368 654 l 1
 580 0 l 1
 457 0 l 1
 407 177 l 1
 189 177 l 1
 138 0 l 1
 20 0 l 1
267 688 m 1
 216 746 l 1
 372 881 l 1
 435 805 l 1
 267 688 l 1
EndSplineSet
Validated: 1
EndChar

StartChar: Acircumflex
Encoding: 194 194 130
Width: 599
GlyphClass: 2
Flags: MW
HStem: 0 21G<20 20 20 138 457 457 457 580> 177 91<215 381 215 407 189 381> 564 90<296 300 296 296> 780 56<298 302 298 298>
VStem: 20 560<0 0>
LayerCount: 2
Fore
SplineSet
238 348 m 2
 215 268 l 1
 381 268 l 1
 358 348 l 2
 339 417 318 491 300 564 c 1
 296 564 l 1
 278 491 258 417 238 348 c 2
20 0 m 1
 232 654 l 1
 368 654 l 1
 580 0 l 1
 457 0 l 1
 407 177 l 1
 189 177 l 1
 138 0 l 1
 20 0 l 1
191 692 m 1
 141 725 l 1
 238 836 l 1
 362 836 l 1
 459 725 l 1
 409 692 l 1
 302 780 l 1
 298 780 l 1
 191 692 l 1
EndSplineSet
Validated: 1
EndChar

StartChar: Atilde
Encoding: 195 195 131
Width: 599
GlyphClass: 2
Flags: MW
HStem: 0 21G<20 20 20 138 457 457 457 580> 177 91<215 381 215 407 189 381> 564 90<296 300 296 296> 693 20G<112 112> 700 82<350 381 350 405.5> 764 82<219 250>
VStem: 112 76<707 713> 412 76<834 840>
LayerCount: 2
Fore
SplineSet
238 348 m 2xf3
 215 268 l 1
 381 268 l 1
 358 348 l 2
 339 417 318 491 300 564 c 1
 296 564 l 1
 278 491 258 417 238 348 c 2xf3
20 0 m 1
 232 654 l 1
 368 654 l 1
 580 0 l 1
 457 0 l 1
 407 177 l 1
 189 177 l 1
 138 0 l 1
 20 0 l 1
373 700 m 0xeb
 300 700 270 764 230 764 c 0
 208 764 192 747 188 707 c 1
 112 713 l 1
 117 802 162 846 227 846 c 0xf7
 300 846 330 782 370 782 c 0
 392 782 407 800 412 840 c 1
 488 834 l 1
 483 745 438 700 373 700 c 0xeb
EndSplineSet
Validated: 1
EndChar

StartChar: Adieresis
Encoding: 196 196 132
Width: 599
GlyphClass: 2
Flags: MW
HStem: 0 21G<20 20 20 138 457 457 457 580> 177 91<215 381 215 407 189 381> 564 90<296 300 296 296> 708 124<181 217 383 419>
VStem: 137 124<752 788> 339 124<752 788>
AnchorPoint: "Anchor-6" 499 0 basechar 0
LayerCount: 2
Fore
SplineSet
238 348 m 2
 215 268 l 1
 381 268 l 1
 358 348 l 2
 339 417 318 491 300 564 c 1
 296 564 l 1
 278 491 258 417 238 348 c 2
20 0 m 1
 232 654 l 1
 368 654 l 1
 580 0 l 1
 457 0 l 1
 407 177 l 1
 189 177 l 1
 138 0 l 1
 20 0 l 1
199 708 m 0
 163 708 137 734 137 770 c 0
 137 806 163 832 199 832 c 0
 235 832 261 806 261 770 c 0
 261 734 235 708 199 708 c 0
401 708 m 0
 365 708 339 734 339 770 c 0
 339 806 365 832 401 832 c 0
 437 832 463 806 463 770 c 0
 463 734 437 708 401 708 c 0
EndSplineSet
Validated: 1
EndChar

StartChar: Aring
Encoding: 197 197 133
Width: 599
GlyphClass: 2
Flags: MW
HStem: 0 21G<20 20 20 138 457 457 457 580> 177 91<215 381 215 407 189 381> 564 90<296 300 296 296> 698 46<287 312.5 287 330.5> 841 46<287 312.5>
VStem: 194 59<777 807 777 821> 346 60<777 807>
AnchorPoint: "Anchor-6" 499 0 basechar 0
LayerCount: 2
Fore
SplineSet
238 348 m 2
 215 268 l 1
 381 268 l 1
 358 348 l 2
 339 417 318 491 300 564 c 1
 296 564 l 1
 278 491 258 417 238 348 c 2
20 0 m 1
 232 654 l 1
 368 654 l 1
 580 0 l 1
 457 0 l 1
 407 177 l 1
 189 177 l 1
 138 0 l 1
 20 0 l 1
300 698 m 0
 238 698 194 735 194 792 c 0
 194 850 238 887 300 887 c 0
 361 887 406 850 406 792 c 0
 406 735 361 698 300 698 c 0
300 744 m 0
 325 744 346 762 346 792 c 0
 346 822 325 841 300 841 c 0
 274 841 253 822 253 792 c 0
 253 762 274 744 300 744 c 0
EndSplineSet
Validated: 1
EndChar

StartChar: AE
Encoding: 198 198 134
Width: 599
GlyphClass: 2
Flags: MW
HStem: 0 98<418 593 418 593> 170 91<207 314 207 314 176 314> 292 98<418 550 418 550> 556 98<418 584 418 418>
VStem: 314 104<98 170 170 170 261 292 390 556>
AnchorPoint: "Anchor-3" 334 -20 basechar 0
AnchorPoint: "Anchor-2" 466 0 basechar 0
AnchorPoint: "Anchor-0" 406 674 basechar 0
LayerCount: 2
Fore
SplineSet
243 366 m 2
 207 261 l 1
 314 261 l 1
 314 565 l 1
 311 565 l 1
 289 497 265 430 243 366 c 2
-2 0 m 1
 238 654 l 1
 584 654 l 1
 584 556 l 1
 418 556 l 1
 418 390 l 1
 550 390 l 1
 550 292 l 1
 418 292 l 1
 418 98 l 1
 593 98 l 1
 593 0 l 1
 314 0 l 1
 314 170 l 1
 176 170 l 1
 118 0 l 1
 -2 0 l 1
EndSplineSet
Validated: 1
EndChar

StartChar: Ccedilla
Encoding: 199 199 135
Width: 599
GlyphClass: 2
Flags: MW
HStem: -233 50<242 252> -9 21G<308 308> 565 101<307.5 387.5>
VStem: 60 119<253.5 401.5 253.5 432> 348 85<-150.5 -124.5>
LayerCount: 2
Fore
SplineSet
252 -233 m 1
 242 -183 l 1
 323 -178 348 -165 348 -136 c 0
 348 -113 330 -99 271 -91 c 1
 308 -9 l 1
 168 12 60 129 60 325 c 0
 60 539 189 666 362 666 c 0
 443 666 508 627 549 584 c 1
 485 512 l 1
 452 544 413 565 362 565 c 0
 253 565 179 475 179 328 c 0
 179 179 253 89 365 89 c 0
 418 89 461 113 498 154 c 1
 562 83 l 1
 515 28 454 -5 378 -11 c 1
 358 -62 l 1
 406 -74 433 -94 433 -135 c 0
 433 -198 367 -228 252 -233 c 1
EndSplineSet
Validated: 1
EndChar

StartChar: Egrave
Encoding: 200 200 136
Width: 599
GlyphClass: 2
Flags: MW
HStem: 0 98<219 532 219 532> 291 98<219 476 219 476> 556 98<219 522 219 219>
VStem: 103 116<98 291 389 556>
LayerCount: 2
Fore
SplineSet
103 0 m 1
 103 654 l 1
 522 654 l 1
 522 556 l 1
 219 556 l 1
 219 389 l 1
 476 389 l 1
 476 291 l 1
 219 291 l 1
 219 98 l 1
 532 98 l 1
 532 0 l 1
 103 0 l 1
360 688 m 1
 192 805 l 1
 255 881 l 1
 411 746 l 1
 360 688 l 1
EndSplineSet
Validated: 1
EndChar

StartChar: Eacute
Encoding: 201 201 137
Width: 599
GlyphClass: 2
Flags: MW
HStem: 0 98<219 532 219 532> 291 98<219 476 219 476> 556 98<219 522 219 219>
VStem: 103 116<98 291 389 556>
AnchorPoint: "Anchor-6" 430 0 basechar 0
LayerCount: 2
Fore
SplineSet
103 0 m 1
 103 654 l 1
 522 654 l 1
 522 556 l 1
 219 556 l 1
 219 389 l 1
 476 389 l 1
 476 291 l 1
 219 291 l 1
 219 98 l 1
 532 98 l 1
 532 0 l 1
 103 0 l 1
294 688 m 1
 243 746 l 1
 399 881 l 1
 462 805 l 1
 294 688 l 1
EndSplineSet
Validated: 1
EndChar

StartChar: Ecircumflex
Encoding: 202 202 138
Width: 599
GlyphClass: 2
Flags: MW
HStem: 0 98<219 532 219 532> 291 98<219 476 219 476> 556 98<219 522 219 219> 780 56<325 329 325 325>
VStem: 103 116<98 291 389 556>
LayerCount: 2
Fore
SplineSet
103 0 m 1
 103 654 l 1
 522 654 l 1
 522 556 l 1
 219 556 l 1
 219 389 l 1
 476 389 l 1
 476 291 l 1
 219 291 l 1
 219 98 l 1
 532 98 l 1
 532 0 l 1
 103 0 l 1
218 692 m 1
 168 725 l 1
 265 836 l 1
 389 836 l 1
 486 725 l 1
 436 692 l 1
 329 780 l 1
 325 780 l 1
 218 692 l 1
EndSplineSet
Validated: 1
MultipleSubs2: "Multiple Substitution lookup 15 subtable" E uni0302
EndChar

StartChar: Edieresis
Encoding: 203 203 139
Width: 599
GlyphClass: 2
Flags: MW
HStem: 0 98<219 532 219 532> 291 98<219 476 219 476> 556 98<219 522 219 219> 708 124<208 244 410 446>
VStem: 103 116<98 291 389 556> 164 124<752 788> 366 124<752 788>
LayerCount: 2
Fore
SplineSet
103 0 m 1xe8
 103 654 l 1
 522 654 l 1
 522 556 l 1
 219 556 l 1
 219 389 l 1
 476 389 l 1
 476 291 l 1
 219 291 l 1
 219 98 l 1
 532 98 l 1
 532 0 l 1
 103 0 l 1xe8
226 708 m 0xf6
 190 708 164 734 164 770 c 0
 164 806 190 832 226 832 c 0
 262 832 288 806 288 770 c 0
 288 734 262 708 226 708 c 0xf6
428 708 m 0
 392 708 366 734 366 770 c 0
 366 806 392 832 428 832 c 0
 464 832 490 806 490 770 c 0
 490 734 464 708 428 708 c 0
EndSplineSet
Validated: 1
EndChar

StartChar: Igrave
Encoding: 204 204 140
Width: 599
GlyphClass: 2
Flags: MW
HStem: 0 98<84 242 84 242 358 516> 556 98<84 242 84 516 358 358 358 516>
VStem: 242 116<98 556 98 556>
LayerCount: 2
Fore
SplineSet
84 0 m 1
 84 98 l 1
 242 98 l 1
 242 556 l 1
 84 556 l 1
 84 654 l 1
 516 654 l 1
 516 556 l 1
 358 556 l 1
 358 98 l 1
 516 98 l 1
 516 0 l 1
 84 0 l 1
333 688 m 1
 165 805 l 1
 228 881 l 1
 384 746 l 1
 333 688 l 1
EndSplineSet
Validated: 1
EndChar

StartChar: Iacute
Encoding: 205 205 141
Width: 599
GlyphClass: 2
Flags: MW
HStem: 0 98<84 242 84 242 358 516> 556 98<84 242 84 516 358 358 358 516>
VStem: 242 116<98 556 98 556>
LayerCount: 2
Fore
SplineSet
84 0 m 1
 84 98 l 1
 242 98 l 1
 242 556 l 1
 84 556 l 1
 84 654 l 1
 516 654 l 1
 516 556 l 1
 358 556 l 1
 358 98 l 1
 516 98 l 1
 516 0 l 1
 84 0 l 1
267 688 m 1
 216 746 l 1
 372 881 l 1
 435 805 l 1
 267 688 l 1
EndSplineSet
Validated: 1
EndChar

StartChar: Icircumflex
Encoding: 206 206 142
Width: 599
GlyphClass: 2
Flags: MW
HStem: 0 98<84 242 84 242 358 516> 556 98<84 242 84 516 358 358 358 516> 780 56<298 302 298 298>
VStem: 242 116<98 556 98 556>
LayerCount: 2
Fore
SplineSet
84 0 m 1
 84 98 l 1
 242 98 l 1
 242 556 l 1
 84 556 l 1
 84 654 l 1
 516 654 l 1
 516 556 l 1
 358 556 l 1
 358 98 l 1
 516 98 l 1
 516 0 l 1
 84 0 l 1
191 692 m 1
 141 725 l 1
 238 836 l 1
 362 836 l 1
 459 725 l 1
 409 692 l 1
 302 780 l 1
 298 780 l 1
 191 692 l 1
EndSplineSet
Validated: 1
EndChar

StartChar: Idieresis
Encoding: 207 207 143
Width: 599
GlyphClass: 2
Flags: MW
HStem: 0 98<84 242 84 242 358 516> 556 98<84 242 84 516 358 358 358 516> 708 124<181 217 383 419>
VStem: 137 124<752 788> 242 116<98 556 98 556> 339 124<752 788>
LayerCount: 2
Fore
SplineSet
84 0 m 1xc8
 84 98 l 1
 242 98 l 1
 242 556 l 1
 84 556 l 1
 84 654 l 1
 516 654 l 1
 516 556 l 1
 358 556 l 1
 358 98 l 1
 516 98 l 1
 516 0 l 1
 84 0 l 1xc8
199 708 m 0xf4
 163 708 137 734 137 770 c 0
 137 806 163 832 199 832 c 0
 235 832 261 806 261 770 c 0
 261 734 235 708 199 708 c 0xf4
401 708 m 0
 365 708 339 734 339 770 c 0
 339 806 365 832 401 832 c 0
 437 832 463 806 463 770 c 0
 463 734 437 708 401 708 c 0
EndSplineSet
Validated: 1
EndChar

StartChar: Eth
Encoding: 208 208 144
Width: 599
GlyphClass: 2
Flags: MW
HStem: 0 94<194 243 243 256> 306 66 306 69<6 79 194 320> 560 94<194 243 194 194>
VStem: 79 115<94 94 94 306 375 560> 439 120<249.5 410>
AnchorPoint: "Anchor-3" 290 -20 basechar 0
AnchorPoint: "Anchor-0" 298 674 basechar 0
LayerCount: 2
Fore
SplineSet
79 0 m 1xbc
 79 306 l 1
 6 306 l 1xbc
 6 369 l 1
 79 375 l 1xdc
 79 654 l 1
 250 654 l 2
 442 654 559 546 559 330 c 0
 559 113 442 0 256 0 c 2
 79 0 l 1xbc
194 94 m 1
 243 94 l 2
 367 94 439 169 439 330 c 0
 439 490 367 560 243 560 c 2
 194 560 l 1
 194 375 l 1
 320 375 l 1
 320 306 l 1
 194 306 l 1
 194 94 l 1
EndSplineSet
Validated: 1
EndChar

StartChar: Ntilde
Encoding: 209 209 145
Width: 599
GlyphClass: 2
Flags: MW
HStem: 0 21G<74 74 74 185 404 404 404 526> 0 147<404 431 428 431 428 526> 507 147<169 172 169 169> 693 20G<122 122> 700 82<360 391 360 415.5> 764 82<229 260>
VStem: 74 111<0 286 0 654> 122 76<707 713> 415 111<370 654 0 654> 422 76<834 840>
LayerCount: 2
Fore
SplineSet
74 0 m 1xb680
 74 654 l 1
 196 654 l 1
 369 287 l 1
 428 147 l 1
 431 147 l 1x6a80
 426 214 415 297 415 370 c 2
 415 654 l 1
 526 654 l 1
 526 0 l 1
 404 0 l 1
 231 368 l 1
 172 507 l 1
 169 507 l 1
 174 437 185 359 185 286 c 2
 185 0 l 1
 74 0 l 1xb680
383 700 m 0
 310 700 280 764 240 764 c 0
 218 764 202 747 198 707 c 1
 122 713 l 1
 127 802 172 846 237 846 c 0xb580
 310 846 340 782 380 782 c 0
 402 782 417 800 422 840 c 1
 498 834 l 1xaa40
 493 745 448 700 383 700 c 0
EndSplineSet
Validated: 1
EndChar

StartChar: Ograve
Encoding: 210 210 146
Width: 599
GlyphClass: 2
Flags: MW
HStem: -12 101<258 342 258 376> 565 101<258 342>
VStem: 43 119<253 405 253 437.5> 438 119<253 405>
LayerCount: 2
Fore
SplineSet
300 -12 m 0
 148 -12 43 111 43 330 c 0
 43 545 148 666 300 666 c 0
 452 666 557 545 557 330 c 0
 557 111 452 -12 300 -12 c 0
300 89 m 0
 384 89 438 176 438 330 c 0
 438 480 384 565 300 565 c 0
 216 565 162 480 162 330 c 0
 162 176 216 89 300 89 c 0
333 688 m 1
 165 805 l 1
 228 881 l 1
 384 746 l 1
 333 688 l 1
EndSplineSet
Validated: 1
EndChar

StartChar: Oacute
Encoding: 211 211 147
Width: 599
GlyphClass: 2
Flags: MW
HStem: -12 101<258 342 258 376> 565 101<258 342>
VStem: 43 119<253 405 253 437.5> 438 119<253 405>
LayerCount: 2
Fore
SplineSet
300 -12 m 0
 148 -12 43 111 43 330 c 0
 43 545 148 666 300 666 c 0
 452 666 557 545 557 330 c 0
 557 111 452 -12 300 -12 c 0
300 89 m 0
 384 89 438 176 438 330 c 0
 438 480 384 565 300 565 c 0
 216 565 162 480 162 330 c 0
 162 176 216 89 300 89 c 0
267 688 m 1
 216 746 l 1
 372 881 l 1
 435 805 l 1
 267 688 l 1
EndSplineSet
Validated: 1
EndChar

StartChar: Ocircumflex
Encoding: 212 212 148
Width: 599
GlyphClass: 2
Flags: MW
HStem: -12 101<258 342 258 376> 565 101<258 342> 780 56<298 302 298 298>
VStem: 43 119<253 405 253 437.5> 438 119<253 405>
LayerCount: 2
Fore
SplineSet
300 -12 m 0
 148 -12 43 111 43 330 c 0
 43 545 148 666 300 666 c 0
 452 666 557 545 557 330 c 0
 557 111 452 -12 300 -12 c 0
300 89 m 0
 384 89 438 176 438 330 c 0
 438 480 384 565 300 565 c 0
 216 565 162 480 162 330 c 0
 162 176 216 89 300 89 c 0
191 692 m 1
 141 725 l 1
 238 836 l 1
 362 836 l 1
 459 725 l 1
 409 692 l 1
 302 780 l 1
 298 780 l 1
 191 692 l 1
EndSplineSet
Validated: 1
MultipleSubs2: "Multiple Substitution lookup 15 subtable" O uni0302
EndChar

StartChar: Otilde
Encoding: 213 213 149
Width: 599
GlyphClass: 2
Flags: MW
HStem: -12 101<258 342 258 376> 565 101<258 342> 693 20G<112 112> 700 82<350 381 350 405.5> 764 82<219 250>
VStem: 43 119<253 405 253 437.5> 112 76<707 713> 412 76<834 840> 438 119<253 405>
LayerCount: 2
Fore
SplineSet
300 -12 m 0xec80
 148 -12 43 111 43 330 c 0
 43 545 148 666 300 666 c 0
 452 666 557 545 557 330 c 0
 557 111 452 -12 300 -12 c 0xec80
300 89 m 0
 384 89 438 176 438 330 c 0
 438 480 384 565 300 565 c 0
 216 565 162 480 162 330 c 0
 162 176 216 89 300 89 c 0
373 700 m 0xd5
 300 700 270 764 230 764 c 0
 208 764 192 747 188 707 c 1
 112 713 l 1
 117 802 162 846 227 846 c 0xea80
 300 846 330 782 370 782 c 0
 392 782 407 800 412 840 c 1
 488 834 l 1
 483 745 438 700 373 700 c 0xd5
EndSplineSet
Validated: 1
EndChar

StartChar: Odieresis
Encoding: 214 214 150
Width: 599
GlyphClass: 2
Flags: MW
HStem: -12 101<258 342 258 376> 565 101<258 342> 708 124<181 217 383 419>
VStem: 43 119<253 405 253 437.5> 137 124<752 788> 339 124<752 788> 438 119<253 405>
AnchorPoint: "Anchor-6" 300 0 basechar 0
LayerCount: 2
Fore
SplineSet
300 -12 m 0xf2
 148 -12 43 111 43 330 c 0
 43 545 148 666 300 666 c 0
 452 666 557 545 557 330 c 0
 557 111 452 -12 300 -12 c 0xf2
300 89 m 0
 384 89 438 176 438 330 c 0
 438 480 384 565 300 565 c 0
 216 565 162 480 162 330 c 0
 162 176 216 89 300 89 c 0
199 708 m 0xec
 163 708 137 734 137 770 c 0
 137 806 163 832 199 832 c 0
 235 832 261 806 261 770 c 0
 261 734 235 708 199 708 c 0xec
401 708 m 0
 365 708 339 734 339 770 c 0
 339 806 365 832 401 832 c 0
 437 832 463 806 463 770 c 0
 463 734 437 708 401 708 c 0
EndSplineSet
Validated: 1
EndChar

StartChar: multiply
Encoding: 215 215 151
Width: 599
GlyphClass: 2
Flags: MW
HStem: 119 421<152 152 152 448>
VStem: 93 414<179 179 179 480>
LayerCount: 2
Fore
SplineSet
152 119 m 1
 93 179 l 1
 241 329 l 1
 93 480 l 1
 152 540 l 1
 300 388 l 1
 448 540 l 1
 507 480 l 1
 359 329 l 1
 507 179 l 1
 448 119 l 1
 300 270 l 1
 152 119 l 1
EndSplineSet
Validated: 1
EndChar

StartChar: Oslash
Encoding: 216 216 152
Width: 599
GlyphClass: 2
Flags: MW
HStem: -12 21G<271 376> -12 101<282.5 342 282.5 376> 565 101<258 317>
VStem: 43 119<309 405 309 437.5> 438 119<253 351>
AnchorPoint: "Anchor-2" 300 0 basechar 0
AnchorPoint: "Anchor-0" 300 674 basechar 0
LayerCount: 2
Fore
SplineSet
300 -12 m 0x78
 242 -12 191 6 150 40 c 1
 96 -37 l 1x78
 27 7 l 1
 95 105 l 1xb8
 62 162 43 237 43 330 c 0
 43 545 148 666 300 666 c 0
 358 666 408 649 449 615 c 1
 502 691 l 1
 570 647 l 1
 504 552 l 1
 538 496 557 422 557 330 c 0
 557 111 452 -12 300 -12 c 0x78
162 330 m 0
 162 288 166 250 174 218 c 1
 386 524 l 1
 363 551 334 565 300 565 c 0
 216 565 162 480 162 330 c 0
300 89 m 0
 384 89 438 176 438 330 c 0
 438 372 434 408 426 439 c 1
 213 132 l 1
 236 104 265 89 300 89 c 0
EndSplineSet
Validated: 1
EndChar

StartChar: Ugrave
Encoding: 217 217 153
Width: 599
GlyphClass: 2
Flags: MW
HStem: -12 101<266 336.5 266 373>
VStem: 72 116<250 654> 417 111<241 250 250 654>
LayerCount: 2
Fore
SplineSet
301 -12 m 0
 158 -12 72 71 72 250 c 2
 72 654 l 1
 188 654 l 1
 188 241 l 2
 188 134 231 89 301 89 c 0
 372 89 417 134 417 241 c 2
 417 654 l 1
 528 654 l 1
 528 250 l 2
 528 71 445 -12 301 -12 c 0
333 688 m 1
 165 805 l 1
 228 881 l 1
 384 746 l 1
 333 688 l 1
EndSplineSet
Validated: 1
EndChar

StartChar: Uacute
Encoding: 218 218 154
Width: 599
GlyphClass: 2
Flags: MW
HStem: -12 101<266 336.5 266 373>
VStem: 72 116<250 654> 417 111<241 250 250 654>
LayerCount: 2
Fore
SplineSet
301 -12 m 0
 158 -12 72 71 72 250 c 2
 72 654 l 1
 188 654 l 1
 188 241 l 2
 188 134 231 89 301 89 c 0
 372 89 417 134 417 241 c 2
 417 654 l 1
 528 654 l 1
 528 250 l 2
 528 71 445 -12 301 -12 c 0
267 688 m 1
 216 746 l 1
 372 881 l 1
 435 805 l 1
 267 688 l 1
EndSplineSet
Validated: 1
EndChar

StartChar: Ucircumflex
Encoding: 219 219 155
Width: 599
GlyphClass: 2
Flags: MW
HStem: -12 101<266 336.5 266 373> 780 56<298 302 298 298>
VStem: 72 116<250 654> 417 111<241 250 250 654>
LayerCount: 2
Fore
SplineSet
301 -12 m 0
 158 -12 72 71 72 250 c 2
 72 654 l 1
 188 654 l 1
 188 241 l 2
 188 134 231 89 301 89 c 0
 372 89 417 134 417 241 c 2
 417 654 l 1
 528 654 l 1
 528 250 l 2
 528 71 445 -12 301 -12 c 0
191 692 m 1
 141 725 l 1
 238 836 l 1
 362 836 l 1
 459 725 l 1
 409 692 l 1
 302 780 l 1
 298 780 l 1
 191 692 l 1
EndSplineSet
Validated: 1
EndChar

StartChar: Udieresis
Encoding: 220 220 156
Width: 599
GlyphClass: 2
Flags: MW
HStem: -12 101<266 336.5 266 373> 708 124<181 217 383 419>
VStem: 72 116<250 654> 137 51 137 124<752 788> 339 124<752 788> 417 111<241 250 250 654>
LayerCount: 2
Fore
SplineSet
301 -12 m 0xe2
 158 -12 72 71 72 250 c 2
 72 654 l 1
 188 654 l 1
 188 241 l 2
 188 134 231 89 301 89 c 0
 372 89 417 134 417 241 c 2
 417 654 l 1
 528 654 l 1
 528 250 l 2
 528 71 445 -12 301 -12 c 0xe2
199 708 m 0xd2
 163 708 137 734 137 770 c 0xd2
 137 806 163 832 199 832 c 0
 235 832 261 806 261 770 c 0xca
 261 734 235 708 199 708 c 0xd2
401 708 m 0xe4
 365 708 339 734 339 770 c 0
 339 806 365 832 401 832 c 0
 437 832 463 806 463 770 c 0
 463 734 437 708 401 708 c 0xe4
EndSplineSet
Validated: 1
EndChar

StartChar: Yacute
Encoding: 221 221 157
Width: 599
GlyphClass: 2
Flags: MW
HStem: 0 21G<242 242 242 358>
VStem: 242 116<0 227 0 227>
LayerCount: 2
Fore
SplineSet
242 0 m 1
 242 227 l 1
 27 654 l 1
 150 654 l 1
 232 478 l 2
 255 428 276 380 299 327 c 1
 303 327 l 1
 327 380 350 428 372 479 c 2
 453 654 l 1
 573 654 l 1
 358 227 l 1
 358 0 l 1
 242 0 l 1
267 688 m 1
 216 746 l 1
 372 881 l 1
 435 805 l 1
 267 688 l 1
EndSplineSet
Validated: 1
EndChar

StartChar: Thorn
Encoding: 222 222 158
Width: 599
GlyphClass: 2
Flags: MW
HStem: 0 21G<87 87 87 203> 136 93<203 297 297 307 203 297> 457 93<203 297 203 307>
VStem: 87 116<0 136 229 457 550 654> 441 115<308 388.5>
LayerCount: 2
Fore
SplineSet
87 0 m 1
 87 654 l 1
 203 654 l 1
 203 550 l 1
 307 550 l 2
 450 550 556 499 556 348 c 0
 556 202 448 136 307 136 c 2
 203 136 l 1
 203 0 l 1
 87 0 l 1
203 229 m 1
 297 229 l 2
 395 229 441 268 441 348 c 0
 441 429 392 457 297 457 c 2
 203 457 l 1
 203 229 l 1
EndSplineSet
Validated: 1
EndChar

StartChar: germandbls
Encoding: 223 223 159
Width: 599
GlyphClass: 2
Flags: MW
HStem: -12 87<379 415.5 379 452> 0 21G<74 189 74 74> 627 91<255.5 309>
VStem: 74 115<0 496 0 507 0 568.5> 282 108<330.5 399.5> 357 108<512.5 574> 460 108<118.5 182.5>
LayerCount: 2
Fore
SplineSet
399 -12 m 0xba
 343 -12 301 3 258 29 c 1
 299 108 l 1
 332 85 363 75 395 75 c 0
 436 75 460 102 460 135 c 0xba
 460 230 282 222 282 357 c 0
 282 442 357 472 357 553 c 0
 357 595 331 627 287 627 c 0
 224 627 189 580 189 496 c 2
 189 0 l 1
 74 0 l 1
 74 507 l 2
 74 630 149 718 288 718 c 0x74
 406 718 465 642 465 560 c 0
 465 462 390 431 390 371 c 0
 390 290 568 296 568 144 c 0
 568 57 505 -12 399 -12 c 0xba
EndSplineSet
Validated: 1
EndChar

StartChar: agrave
Encoding: 224 224 160
Width: 599
GlyphClass: 2
Flags: MW
HStem: -12 90<245.5 268> 0 21G<431 525 431 431> 242 72<410 410> 410 93<272 333> 699 20G<164 164>
VStem: 71 111<119 167.5 119 187> 410 115<138 242 242 242> 426 99
LayerCount: 2
Fore
SplineSet
235 -12 m 0xbe
 139 -12 71 46 71 132 c 0
 71 242 168 297 410 314 c 1
 406 369 373 410 293 410 c 0
 238 410 183 386 132 358 c 1
 90 435 l 1
 149 470 230 503 314 503 c 0
 450 503 525 428 525 291 c 2
 525 0 l 1x7e
 431 0 l 1x7d
 422 61 l 1
 419 61 l 1xbd
 367 21 301 -12 235 -12 c 0xbe
270 78 m 0
 319 78 365 102 410 138 c 1
 410 242 l 1
 234 230 182 194 182 141 c 0
 182 97 221 78 270 78 c 0
334 564 m 1
 164 719 l 1
 244 796 l 1
 391 621 l 1
 334 564 l 1
EndSplineSet
Validated: 1
Substitution2: "'ss02' Style Set 2 lookup 0 subtable" agrave.a
EndChar

StartChar: aacute
Encoding: 225 225 161
Width: 599
GlyphClass: 2
Flags: MW
HStem: -12 90<245.5 268> 0 21G<431 525 431 431> 242 72<410 410> 410 93<272 333> 699 20G<476 476>
VStem: 71 111<119 167.5 119 187> 410 115<138 242 242 242> 426 99
AnchorPoint: "Anchor-6" 434 0 basechar 0
LayerCount: 2
Fore
SplineSet
235 -12 m 0xbe
 139 -12 71 46 71 132 c 0
 71 242 168 297 410 314 c 1
 406 369 373 410 293 410 c 0
 238 410 183 386 132 358 c 1
 90 435 l 1
 149 470 230 503 314 503 c 0
 450 503 525 428 525 291 c 2
 525 0 l 1x7e
 431 0 l 1x7d
 422 61 l 1
 419 61 l 1xbd
 367 21 301 -12 235 -12 c 0xbe
270 78 m 0
 319 78 365 102 410 138 c 1
 410 242 l 1
 234 230 182 194 182 141 c 0
 182 97 221 78 270 78 c 0
306 564 m 1
 249 621 l 1
 396 796 l 1
 476 719 l 1
 306 564 l 1
EndSplineSet
Validated: 1
Substitution2: "'ss02' Style Set 2 lookup 0 subtable" aacute.a
EndChar

StartChar: acircumflex
Encoding: 226 226 162
Width: 599
GlyphClass: 2
Flags: MW
HStem: -12 90<245.5 268> 0 21G<431 525 431 431> 242 72<410 410> 410 93<272 333> 667 75<318 322 318 318>
VStem: 71 111<119 167.5 119 187> 410 115<138 242 242 242> 426 99
LayerCount: 2
Fore
SplineSet
235 -12 m 0xbe
 139 -12 71 46 71 132 c 0
 71 242 168 297 410 314 c 1
 406 369 373 410 293 410 c 0
 238 410 183 386 132 358 c 1
 90 435 l 1
 149 470 230 503 314 503 c 0
 450 503 525 428 525 291 c 2
 525 0 l 1x7e
 431 0 l 1x7d
 422 61 l 1
 419 61 l 1xbd
 367 21 301 -12 235 -12 c 0xbe
270 78 m 0
 319 78 365 102 410 138 c 1
 410 242 l 1
 234 230 182 194 182 141 c 0
 182 97 221 78 270 78 c 0
196 564 m 1
 151 607 l 1
 262 742 l 1
 378 742 l 1
 489 607 l 1
 444 564 l 1
 322 667 l 1
 318 667 l 1
 196 564 l 1
EndSplineSet
Validated: 1
Substitution2: "'ss02' Style Set 2 lookup 0 subtable" acircumflex.a
EndChar

StartChar: atilde
Encoding: 227 227 163
Width: 599
GlyphClass: 2
Flags: MW
HStem: -12 90<245.5 268> 0 21G<431 525 431 431> 242 72<410 410> 410 93<272 333> 575 81<368 400 368 425.5> 649 81<240.5 272.5> 699 20G<502 502>
VStem: 71 111<119 167.5 119 187> 138 74<582 586> 410 115<138 242 242 242> 426 99 428 74<719 723>
LayerCount: 2
Fore
SplineSet
235 -12 m 0xbb40
 139 -12 71 46 71 132 c 0
 71 242 168 297 410 314 c 1
 406 369 373 410 293 410 c 0
 238 410 183 386 132 358 c 1
 90 435 l 1
 149 470 230 503 314 503 c 0
 450 503 525 428 525 291 c 2
 525 0 l 1x7b40
 431 0 l 1x7b20
 422 61 l 1
 419 61 l 1xbb20
 367 21 301 -12 235 -12 c 0xbb40
270 78 m 0
 319 78 365 102 410 138 c 1
 410 242 l 1
 234 230 182 194 182 141 c 0
 182 97 221 78 270 78 c 0
389 575 m 0
 322 575 292 649 253 649 c 0
 228 649 216 625 212 582 c 1
 138 586 l 1
 141 677 178 730 251 730 c 0xb4c0
 318 730 348 656 388 656 c 0
 412 656 424 681 428 723 c 1
 502 719 l 1xbb10
 499 629 462 575 389 575 c 0
EndSplineSet
Validated: 1
Substitution2: "'ss02' Style Set 2 lookup 0 subtable" atilde.a
EndChar

StartChar: adieresis
Encoding: 228 228 164
Width: 599
GlyphClass: 2
Flags: MW
HStem: -12 90<245.5 268> 0 21G<431 525 431 431> 242 72<410 410> 410 93<272 333> 579 137<196 236 404 444>
VStem: 71 111<119 167.5 119 187> 148 136<628.5 667> 356 136<628.5 667> 410 115<138 242 242 242> 426 99
AnchorPoint: "Anchor-6" 434 0 basechar 0
LayerCount: 2
Fore
SplineSet
235 -12 m 0xbc80
 139 -12 71 46 71 132 c 0
 71 242 168 297 410 314 c 1
 406 369 373 410 293 410 c 0
 238 410 183 386 132 358 c 1
 90 435 l 1
 149 470 230 503 314 503 c 0
 450 503 525 428 525 291 c 2
 525 0 l 1x7c80
 431 0 l 1x7c40
 422 61 l 1
 419 61 l 1xbc40
 367 21 301 -12 235 -12 c 0xbc80
270 78 m 0
 319 78 365 102 410 138 c 1
 410 242 l 1
 234 230 182 194 182 141 c 0
 182 97 221 78 270 78 c 0
216 579 m 0xbb
 176 579 148 609 148 648 c 0
 148 686 176 716 216 716 c 0
 256 716 284 686 284 648 c 0
 284 609 256 579 216 579 c 0xbb
424 579 m 0
 384 579 356 609 356 648 c 0
 356 686 384 716 424 716 c 0
 464 716 492 686 492 648 c 0
 492 609 464 579 424 579 c 0
EndSplineSet
Validated: 1
Substitution2: "'ss02' Style Set 2 lookup 0 subtable" adieresis.a
EndChar

StartChar: aring
Encoding: 229 229 165
Width: 599
GlyphClass: 2
Flags: MW
HStem: -12 90<245.5 268> 0 21G<431 525 431 431> 242 72<410 410> 410 93<272 333> 569 46<306 334 306 359> 722 46<306 334>
VStem: 71 111<119 167.5 119 187> 199 71<653 683.5 653 696> 370 71<653 683.5> 410 115<138 242 242 242> 426 99
AnchorPoint: "Anchor-6" 434 0 basechar 0
LayerCount: 2
Fore
SplineSet
235 -12 m 0x9e40
 139 -12 71 46 71 132 c 0
 71 242 168 297 410 314 c 1
 406 369 373 410 293 410 c 0
 238 410 183 386 132 358 c 1
 90 435 l 1
 149 470 230 503 314 503 c 0
 450 503 525 428 525 291 c 2
 525 0 l 1x7e40
 431 0 l 1x5e20
 422 61 l 1
 419 61 l 1x9e20
 367 21 301 -12 235 -12 c 0x9e40
270 78 m 0
 319 78 365 102 410 138 c 1
 410 242 l 1xbe40
 234 230 182 194 182 141 c 0
 182 97 221 78 270 78 c 0
320 569 m 0x9f80
 242 569 199 613 199 668 c 0
 199 724 242 768 320 768 c 0
 398 768 441 724 441 668 c 0
 441 613 398 569 320 569 c 0x9f80
320 615 m 0
 348 615 370 638 370 668 c 0
 370 699 348 722 320 722 c 0
 292 722 270 699 270 668 c 0
 270 638 292 615 320 615 c 0
EndSplineSet
Validated: 1
Substitution2: "'ss02' Style Set 2 lookup 0 subtable" aring.a
EndChar

StartChar: ae
Encoding: 230 230 166
Width: 599
GlyphClass: 2
Flags: MW
HStem: -12 90<163 174> -12 92<423.5 470 423.5 472.5> 212 79<344 504 344 590 344 504> 410 93<160.5 199.5> 414 89<416.5 455.5>
VStem: 17 104<119 162 119 175.5> 254 90<212 237 212 237> 504 91<291 291>
AnchorPoint: "Anchor-3" 309 -20 basechar 0
AnchorPoint: "Anchor-2" 442 0 basechar 0
AnchorPoint: "Anchor-0" 313 512 basechar 0
LayerCount: 2
Fore
SplineSet
147 -12 m 0x6f
 71 -12 17 42 17 125 c 0
 17 226 89 286 254 308 c 1
 250 386 220 410 179 410 c 0
 142 410 106 394 73 373 c 1x77
 31 450 l 1
 79 479 133 503 188 503 c 0
 243 503 283 479 309 417 c 1
 343 479 391 503 442 503 c 0
 544 503 595 397 595 272 c 0
 595 249 592 227 590 212 c 1
 344 212 l 1
 352 127 393 80 454 80 c 0
 486 80 514 91 540 109 c 1
 580 33 l 1
 544 6 495 -12 450 -12 c 0
 383 -12 331 19 298 68 c 1
 250 14 201 -12 147 -12 c 0x6f
181 78 m 0xaf
 208 78 239 94 269 129 c 1
 259 160 254 195 254 232 c 2
 254 237 l 1
 151 222 121 186 121 138 c 0
 121 100 145 78 181 78 c 0xaf
433 414 m 0
 394 414 354 381 344 291 c 1
 504 291 l 1
 501 375 478 414 433 414 c 0
EndSplineSet
Validated: 1
EndChar

StartChar: ccedilla
Encoding: 231 231 167
Width: 599
GlyphClass: 2
Flags: MW
HStem: -233 50<240 250> -10 21G<305 305 376 376> -10 92<305 383 376 376> 409 94<309 380>
VStem: 73 119<196 294.5 196 327> 346 85<-150.5 -124.5>
LayerCount: 2
Fore
SplineSet
250 -233 m 1xdc
 240 -183 l 1
 321 -178 346 -165 346 -136 c 0
 346 -113 328 -99 269 -91 c 1
 305 -10 l 1
 171 5 73 96 73 245 c 0
 73 409 202 503 352 503 c 0
 431 503 493 473 534 434 c 1
 479 362 l 1
 441 393 402 409 358 409 c 0
 260 409 192 344 192 245 c 0
 192 147 258 82 355 82 c 0
 411 82 457 107 495 136 c 1xbc
 543 62 l 1
 495 20 436 -4 376 -10 c 1
 356 -62 l 1
 404 -74 431 -94 431 -135 c 0
 431 -198 365 -228 250 -233 c 1xdc
EndSplineSet
Validated: 1
EndChar

StartChar: egrave
Encoding: 232 232 168
Width: 599
GlyphClass: 2
Flags: MW
HStem: -12 89<299.5 366> 212 82<179 440 179 537 176 440> 414 89<284 353> 699 20G<158 158>
VStem: 440 102<294 294>
LayerCount: 2
Fore
SplineSet
330 -12 m 0
 180 -12 61 83 61 246 c 0
 61 406 183 503 315 503 c 0
 461 503 542 406 542 270 c 0
 542 247 539 225 537 212 c 1
 176 212 l 1
 189 121 254 77 345 77 c 0
 397 77 439 93 483 118 c 1
 522 46 l 1
 470 12 402 -12 330 -12 c 0
318 414 m 0
 250 414 194 373 179 294 c 1
 440 294 l 1
 432 374 388 414 318 414 c 0
328 564 m 1
 158 719 l 1
 238 796 l 1
 385 621 l 1
 328 564 l 1
EndSplineSet
Validated: 1
Substitution2: "'sups' Superscript lookup 26 subtable" egrave.sups
EndChar

StartChar: eacute
Encoding: 233 233 169
Width: 599
GlyphClass: 2
Flags: MW
HStem: -12 89<299.5 366> 212 82<179 440 179 537 176 440> 414 89<284 353> 699 20G<470 470>
VStem: 440 102<294 294>
AnchorPoint: "Anchor-6" 402 0 basechar 0
LayerCount: 2
Fore
SplineSet
330 -12 m 0
 180 -12 61 83 61 246 c 0
 61 406 183 503 315 503 c 0
 461 503 542 406 542 270 c 0
 542 247 539 225 537 212 c 1
 176 212 l 1
 189 121 254 77 345 77 c 0
 397 77 439 93 483 118 c 1
 522 46 l 1
 470 12 402 -12 330 -12 c 0
318 414 m 0
 250 414 194 373 179 294 c 1
 440 294 l 1
 432 374 388 414 318 414 c 0
300 564 m 1
 243 621 l 1
 390 796 l 1
 470 719 l 1
 300 564 l 1
EndSplineSet
Validated: 1
Substitution2: "'sups' Superscript lookup 26 subtable" eacute.sups
EndChar

StartChar: ecircumflex
Encoding: 234 234 170
Width: 599
GlyphClass: 2
Flags: MW
HStem: -12 89<299.5 366> 212 82<179 440 179 537 176 440> 414 89<284 353> 667 75<312 316 312 312>
VStem: 440 102<294 294>
LayerCount: 2
Fore
SplineSet
330 -12 m 0
 180 -12 61 83 61 246 c 0
 61 406 183 503 315 503 c 0
 461 503 542 406 542 270 c 0
 542 247 539 225 537 212 c 1
 176 212 l 1
 189 121 254 77 345 77 c 0
 397 77 439 93 483 118 c 1
 522 46 l 1
 470 12 402 -12 330 -12 c 0
318 414 m 0
 250 414 194 373 179 294 c 1
 440 294 l 1
 432 374 388 414 318 414 c 0
190 564 m 1
 145 607 l 1
 256 742 l 1
 372 742 l 1
 483 607 l 1
 438 564 l 1
 316 667 l 1
 312 667 l 1
 190 564 l 1
EndSplineSet
Validated: 1
MultipleSubs2: "Multiple Substitution lookup 15 subtable" e uni0302
EndChar

StartChar: edieresis
Encoding: 235 235 171
Width: 599
GlyphClass: 2
Flags: MW
HStem: -12 89<299.5 366> 212 82<179 440 179 537 176 440> 414 89<284 353> 579 137<190 230 398 438>
VStem: 142 136<628.5 667> 350 136<628.5 667> 440 102<294 294>
LayerCount: 2
Fore
SplineSet
330 -12 m 0xfc
 180 -12 61 83 61 246 c 0
 61 406 183 503 315 503 c 0
 461 503 542 406 542 270 c 0
 542 247 539 225 537 212 c 1xfa
 176 212 l 1
 189 121 254 77 345 77 c 0
 397 77 439 93 483 118 c 1
 522 46 l 1
 470 12 402 -12 330 -12 c 0xfc
318 414 m 0
 250 414 194 373 179 294 c 1
 440 294 l 1
 432 374 388 414 318 414 c 0
210 579 m 0
 170 579 142 609 142 648 c 0
 142 686 170 716 210 716 c 0
 250 716 278 686 278 648 c 0
 278 609 250 579 210 579 c 0
418 579 m 0
 378 579 350 609 350 648 c 0
 350 686 378 716 418 716 c 0
 458 716 486 686 486 648 c 0
 486 609 458 579 418 579 c 0
EndSplineSet
Validated: 1
EndChar

StartChar: igrave
Encoding: 236 236 172
Width: 599
GlyphClass: 2
Flags: MW
HStem: 0 21G<297 297 297 412> 400 91<84 297 84 412> 699 20G<190 190>
VStem: 297 115<0 400 400 400>
LayerCount: 2
Fore
SplineSet
297 0 m 1
 297 400 l 1
 84 400 l 1
 84 491 l 1
 412 491 l 1
 412 0 l 1
 297 0 l 1
360 564 m 1
 190 719 l 1
 270 796 l 1
 417 621 l 1
 360 564 l 1
EndSplineSet
Validated: 1
Substitution2: "'ss04' Style Set 4 lookup 2 subtable" igrave.a
EndChar

StartChar: iacute
Encoding: 237 237 173
Width: 599
GlyphClass: 2
Flags: MW
HStem: 0 21G<297 297 297 412> 400 91<84 297 84 412> 699 20G<502 502>
VStem: 297 115<0 400 400 400>
LayerCount: 2
Fore
SplineSet
297 0 m 1
 297 400 l 1
 84 400 l 1
 84 491 l 1
 412 491 l 1
 412 0 l 1
 297 0 l 1
332 564 m 1
 275 621 l 1
 422 796 l 1
 502 719 l 1
 332 564 l 1
EndSplineSet
Validated: 1
Substitution2: "'ss04' Style Set 4 lookup 2 subtable" iacute.a
EndChar

StartChar: icircumflex
Encoding: 238 238 174
Width: 599
GlyphClass: 2
Flags: MW
HStem: 0 21G<297 297 297 412> 400 91<84 297 84 412> 667 75<344 348 344 344>
VStem: 297 115<0 400 400 400>
LayerCount: 2
Fore
SplineSet
297 0 m 1
 297 400 l 1
 84 400 l 1
 84 491 l 1
 412 491 l 1
 412 0 l 1
 297 0 l 1
222 564 m 1
 177 607 l 1
 288 742 l 1
 404 742 l 1
 515 607 l 1
 470 564 l 1
 348 667 l 1
 344 667 l 1
 222 564 l 1
EndSplineSet
Validated: 1
Substitution2: "'ss04' Style Set 4 lookup 2 subtable" icircumflex.a
EndChar

StartChar: idieresis
Encoding: 239 239 175
Width: 599
GlyphClass: 2
Flags: MW
HStem: 0 21G<297 297 297 412> 400 91<84 297 84 412> 579 137<222 262 430 470>
VStem: 174 136<628.5 667> 297 115<0 400 400 400> 382 136<628.5 667>
LayerCount: 2
Fore
SplineSet
297 0 m 1xe8
 297 400 l 1
 84 400 l 1
 84 491 l 1
 412 491 l 1
 412 0 l 1
 297 0 l 1xe8
242 579 m 0xf4
 202 579 174 609 174 648 c 0
 174 686 202 716 242 716 c 0
 282 716 310 686 310 648 c 0
 310 609 282 579 242 579 c 0xf4
450 579 m 0
 410 579 382 609 382 648 c 0
 382 686 410 716 450 716 c 0
 490 716 518 686 518 648 c 0
 518 609 490 579 450 579 c 0
EndSplineSet
Validated: 1
Substitution2: "'ss04' Style Set 4 lookup 2 subtable" idieresis.a
EndChar

StartChar: eth
Encoding: 240 240 176
Width: 599
GlyphClass: 2
Flags: MW
HStem: -12 94<261.5 343.5 261.5 373.5> 364 87<254.5 306 216 322.5>
VStem: 53 106<180.5 268 180.5 295> 435 108<202 262.5>
AnchorPoint: "Anchor-3" 304 -20 basechar 0
AnchorPoint: "Anchor-0" 330 734 basechar 0
LayerCount: 2
Fore
SplineSet
297 -12 m 0
 166 -12 53 79 53 225 c 0
 53 365 154 451 278 451 c 0
 334 451 388 428 422 381 c 1
 404 456 368 512 315 560 c 1
 164 483 l 1
 129 543 l 1
 254 606 l 1
 223 627 188 646 150 664 c 1
 201 735 l 1
 252 712 301 685 345 653 c 1
 482 722 l 1
 517 663 l 1
 403 605 l 1
 487 524 543 416 543 262 c 0
 543 101 450 -12 297 -12 c 0
300 82 m 0
 387 82 435 148 435 256 c 0
 435 269 435 282 434 294 c 1
 393 345 346 364 299 364 c 0
 210 364 159 311 159 225 c 0
 159 136 223 82 300 82 c 0
EndSplineSet
Validated: 1
EndChar

StartChar: ntilde
Encoding: 241 241 177
Width: 599
GlyphClass: 2
Flags: MW
HStem: 0 21G<82 82 82 198 416 416 416 532> 404 99<329.5 357.5> 471 20G<82 177 177 177> 575 81<364 396 364 421.5> 649 81<236.5 268.5> 699 20G<498 498>
VStem: 82 100 82 116<0 335 0 491> 134 74<582 586> 416 116<0 289 289 304 0 328.5> 424 74<719 723>
LayerCount: 2
Fore
SplineSet
82 0 m 1xd540
 82 491 l 1xb520
 177 491 l 1xb640
 186 417 l 1
 190 417 l 1xd640
 236 464 292 503 367 503 c 0
 480 503 532 431 532 304 c 2
 532 0 l 1
 416 0 l 1
 416 289 l 2
 416 368 391 404 324 404 c 0
 276 404 243 381 198 335 c 1
 198 0 l 1
 82 0 l 1xd540
385 575 m 0
 318 575 288 649 249 649 c 0
 224 649 212 625 208 582 c 1
 134 586 l 1
 137 677 174 730 247 730 c 0xc8c0
 314 730 344 656 384 656 c 0
 408 656 420 681 424 723 c 1
 498 719 l 1
 495 629 458 575 385 575 c 0
EndSplineSet
Validated: 1
EndChar

StartChar: ograve
Encoding: 242 242 178
Width: 599
GlyphClass: 2
Flags: MW
HStem: -12 94<260 340 260 364.5> 409 94<260 340> 699 20G<144 144>
VStem: 53 119<196 294.5 196 327> 428 119<196 294.5>
LayerCount: 2
Fore
SplineSet
300 -12 m 0
 171 -12 53 82 53 245 c 0
 53 409 171 503 300 503 c 0
 429 503 547 409 547 245 c 0
 547 82 429 -12 300 -12 c 0
300 82 m 0
 380 82 428 147 428 245 c 0
 428 344 380 409 300 409 c 0
 220 409 172 344 172 245 c 0
 172 147 220 82 300 82 c 0
314 564 m 1
 144 719 l 1
 224 796 l 1
 371 621 l 1
 314 564 l 1
EndSplineSet
Validated: 1
EndChar

StartChar: oacute
Encoding: 243 243 179
Width: 599
GlyphClass: 2
Flags: MW
HStem: -12 94<260 340 260 364.5> 409 94<260 340> 699 20G<456 456>
VStem: 53 119<196 294.5 196 327> 428 119<196 294.5>
LayerCount: 2
Fore
SplineSet
300 -12 m 0
 171 -12 53 82 53 245 c 0
 53 409 171 503 300 503 c 0
 429 503 547 409 547 245 c 0
 547 82 429 -12 300 -12 c 0
300 82 m 0
 380 82 428 147 428 245 c 0
 428 344 380 409 300 409 c 0
 220 409 172 344 172 245 c 0
 172 147 220 82 300 82 c 0
286 564 m 1
 229 621 l 1
 376 796 l 1
 456 719 l 1
 286 564 l 1
EndSplineSet
Validated: 1
EndChar

StartChar: ocircumflex
Encoding: 244 244 180
Width: 599
GlyphClass: 2
Flags: MW
HStem: -12 94<260 340 260 364.5> 409 94<260 340> 667 75<298 302 298 298>
VStem: 53 119<196 294.5 196 327> 428 119<196 294.5>
LayerCount: 2
Fore
SplineSet
300 -12 m 0
 171 -12 53 82 53 245 c 0
 53 409 171 503 300 503 c 0
 429 503 547 409 547 245 c 0
 547 82 429 -12 300 -12 c 0
300 82 m 0
 380 82 428 147 428 245 c 0
 428 344 380 409 300 409 c 0
 220 409 172 344 172 245 c 0
 172 147 220 82 300 82 c 0
176 564 m 1
 131 607 l 1
 242 742 l 1
 358 742 l 1
 469 607 l 1
 424 564 l 1
 302 667 l 1
 298 667 l 1
 176 564 l 1
EndSplineSet
Validated: 1
MultipleSubs2: "Multiple Substitution lookup 15 subtable" o uni0302
EndChar

StartChar: otilde
Encoding: 245 245 181
Width: 599
GlyphClass: 2
Flags: MW
HStem: -12 94<260 340 260 364.5> 409 94<260 340> 575 81<348 380 348 405.5> 649 81<220.5 252.5> 699 20G<482 482>
VStem: 53 119<196 294.5 196 327> 118 74<582 586> 408 74<719 723> 428 119<196 294.5>
LayerCount: 2
Fore
SplineSet
300 -12 m 0xec80
 171 -12 53 82 53 245 c 0
 53 409 171 503 300 503 c 0
 429 503 547 409 547 245 c 0
 547 82 429 -12 300 -12 c 0xec80
300 82 m 0
 380 82 428 147 428 245 c 0
 428 344 380 409 300 409 c 0
 220 409 172 344 172 245 c 0
 172 147 220 82 300 82 c 0
369 575 m 0
 302 575 272 649 233 649 c 0
 208 649 196 625 192 582 c 1
 118 586 l 1
 121 677 158 730 231 730 c 0xd280
 298 730 328 656 368 656 c 0
 392 656 404 681 408 723 c 1
 482 719 l 1xed
 479 629 442 575 369 575 c 0
EndSplineSet
Validated: 1
EndChar

StartChar: odieresis
Encoding: 246 246 182
Width: 599
GlyphClass: 2
Flags: MW
HStem: -12 94<260 340 260 364.5> 409 94<260 340> 579 137<176 216 384 424>
VStem: 53 119<196 294.5 196 327> 128 136<628.5 667> 336 136<628.5 667> 428 119<196 294.5>
AnchorPoint: "Anchor-6" 300 0 basechar 0
LayerCount: 2
Fore
SplineSet
300 -12 m 0xf2
 171 -12 53 82 53 245 c 0
 53 409 171 503 300 503 c 0
 429 503 547 409 547 245 c 0
 547 82 429 -12 300 -12 c 0xf2
300 82 m 0
 380 82 428 147 428 245 c 0
 428 344 380 409 300 409 c 0
 220 409 172 344 172 245 c 0
 172 147 220 82 300 82 c 0
196 579 m 0xec
 156 579 128 609 128 648 c 0
 128 686 156 716 196 716 c 0
 236 716 264 686 264 648 c 0
 264 609 236 579 196 579 c 0xec
404 579 m 0
 364 579 336 609 336 648 c 0
 336 686 364 716 404 716 c 0
 444 716 472 686 472 648 c 0
 472 609 444 579 404 579 c 0
EndSplineSet
Validated: 1
EndChar

StartChar: divide
Encoding: 247 247 183
Width: 599
GlyphClass: 2
Flags: MW
HStem: 84 131<281 319> 288 84<78 522 78 522> 444 131<281 319>
VStem: 232 136<130.5 169 490.5 529>
LayerCount: 2
Fore
SplineSet
300 444 m 0
 262 444 232 471 232 510 c 0
 232 548 262 575 300 575 c 0
 338 575 368 548 368 510 c 0
 368 471 338 444 300 444 c 0
300 84 m 0
 262 84 232 111 232 150 c 0
 232 188 262 215 300 215 c 0
 338 215 368 188 368 150 c 0
 368 111 338 84 300 84 c 0
78 288 m 1
 78 372 l 1
 522 372 l 1
 522 288 l 1
 78 288 l 1
EndSplineSet
Validated: 1
EndChar

StartChar: oslash
Encoding: 248 248 184
Width: 599
GlyphClass: 2
Flags: MW
HStem: -12 90<285 340 285 364.5> 413 90<260 314.5>
VStem: 53 119<230 294.5 230 327> 428 119<196 260.5>
AnchorPoint: "Anchor-3" 300 -20 basechar 0
AnchorPoint: "Anchor-2" 300 0 basechar 0
AnchorPoint: "Anchor-0" 300 512 basechar 0
LayerCount: 2
Fore
SplineSet
300 -12 m 0
 250 -12 202 2 162 29 c 1
 113 -29 l 1
 61 16 l 1
 110 74 l 1
 75 117 53 175 53 245 c 0
 53 409 171 503 300 503 c 0
 350 503 398 489 438 462 c 1
 487 520 l 1
 539 476 l 1
 489 417 l 1
 525 374 547 316 547 245 c 0
 547 82 429 -12 300 -12 c 0
172 245 m 0
 172 215 177 187 185 163 c 1
 374 387 l 1
 355 404 329 413 300 413 c 0
 220 413 172 344 172 245 c 0
300 78 m 0
 380 78 428 147 428 245 c 0
 428 276 423 304 414 328 c 1
 225 104 l 1
 245 87 270 78 300 78 c 0
EndSplineSet
Validated: 1
EndChar

StartChar: ugrave
Encoding: 249 249 185
Width: 599
GlyphClass: 2
Flags: MW
HStem: -12 99<243 270.5> 0 21G<421 515 421 421> 471 20G<70 185 185 185 400 515 515 515> 699 20G<139 139>
VStem: 70 115<187 202 202 491> 400 115<160 491 0 491> 417 99
LayerCount: 2
Fore
SplineSet
234 -12 m 0xbc
 120 -12 70 60 70 187 c 2
 70 491 l 1
 185 491 l 1
 185 202 l 2
 185 123 209 87 277 87 c 0
 323 87 356 106 400 160 c 1xbc
 400 491 l 1
 515 491 l 1
 515 0 l 1x7c
 421 0 l 1x7a
 412 78 l 1
 408 78 l 1xba
 362 24 307 -12 234 -12 c 0xbc
309 564 m 1
 139 719 l 1
 219 796 l 1
 366 621 l 1
 309 564 l 1
EndSplineSet
Validated: 1
EndChar

StartChar: uacute
Encoding: 250 250 186
Width: 599
GlyphClass: 2
Flags: MW
HStem: -12 99<243 270.5> 0 21G<421 515 421 421> 471 20G<70 185 185 185 400 515 515 515> 699 20G<451 451>
VStem: 70 115<187 202 202 491> 400 115<160 491 0 491> 417 99
LayerCount: 2
Fore
SplineSet
234 -12 m 0xbc
 120 -12 70 60 70 187 c 2
 70 491 l 1
 185 491 l 1
 185 202 l 2
 185 123 209 87 277 87 c 0
 323 87 356 106 400 160 c 1xbc
 400 491 l 1
 515 491 l 1
 515 0 l 1x7c
 421 0 l 1x7a
 412 78 l 1
 408 78 l 1xba
 362 24 307 -12 234 -12 c 0xbc
281 564 m 1
 224 621 l 1
 371 796 l 1
 451 719 l 1
 281 564 l 1
EndSplineSet
Validated: 1
EndChar

StartChar: ucircumflex
Encoding: 251 251 187
Width: 599
GlyphClass: 2
Flags: MW
HStem: -12 99<243 270.5> 0 21G<421 515 421 421> 471 20G<70 185 185 185 400 515 515 515> 667 75<293 297 293 293>
VStem: 70 115<187 202 202 491> 400 115<160 491 0 491> 417 99
LayerCount: 2
Fore
SplineSet
234 -12 m 0xbc
 120 -12 70 60 70 187 c 2
 70 491 l 1
 185 491 l 1
 185 202 l 2
 185 123 209 87 277 87 c 0
 323 87 356 106 400 160 c 1xbc
 400 491 l 1
 515 491 l 1
 515 0 l 1x7c
 421 0 l 1x7a
 412 78 l 1
 408 78 l 1xba
 362 24 307 -12 234 -12 c 0xbc
171 564 m 1
 126 607 l 1
 237 742 l 1
 353 742 l 1
 464 607 l 1
 419 564 l 1
 297 667 l 1
 293 667 l 1
 171 564 l 1
EndSplineSet
Validated: 1
EndChar

StartChar: udieresis
Encoding: 252 252 188
Width: 599
GlyphClass: 2
Flags: MW
HStem: -12 99<243 270.5> 0 21G<421 515 421 421> 471 20G<70 185 185 185 400 515 515 515> 579 137<171 211 379 419>
VStem: 70 115<187 202 202 491> 123 136<628.5 667> 331 136<628.5 667> 400 115<160 491 0 491> 417 99
LayerCount: 2
Fore
SplineSet
234 -12 m 0xb9
 120 -12 70 60 70 187 c 2
 70 491 l 1
 185 491 l 1
 185 202 l 2
 185 123 209 87 277 87 c 0
 323 87 356 106 400 160 c 1xb9
 400 491 l 1
 515 491 l 1
 515 0 l 1x79
 421 0 l 1x7880
 412 78 l 1
 408 78 l 1xb880
 362 24 307 -12 234 -12 c 0xb9
191 579 m 0xb6
 151 579 123 609 123 648 c 0
 123 686 151 716 191 716 c 0
 231 716 259 686 259 648 c 0
 259 609 231 579 191 579 c 0xb6
399 579 m 0
 359 579 331 609 331 648 c 0
 331 686 359 716 399 716 c 0
 439 716 467 686 467 648 c 0
 467 609 439 579 399 579 c 0
EndSplineSet
Validated: 1
EndChar

StartChar: yacute
Encoding: 253 253 189
Width: 599
GlyphClass: 2
Flags: MW
HStem: -202 93<124 161 123 196> 471 20G<40 155 155 155 452 561 561 561> 699 20G<462 462>
VStem: 40 521<491 491>
LayerCount: 2
Fore
SplineSet
137 -202 m 0
 111 -202 86 -198 67 -192 c 1
 89 -102 l 1
 102 -106 116 -109 130 -109 c 0
 192 -109 228 -74 248 -25 c 2
 260 6 l 1
 40 491 l 1
 155 491 l 1
 256 250 l 2
 274 206 292 155 310 106 c 1
 314 106 l 1
 329 153 347 204 363 250 c 2
 452 491 l 1
 561 491 l 1
 356 -22 l 2
 314 -133 255 -202 137 -202 c 0
292 564 m 1
 235 621 l 1
 382 796 l 1
 462 719 l 1
 292 564 l 1
EndSplineSet
Validated: 1
EndChar

StartChar: thorn
Encoding: 254 254 190
Width: 599
GlyphClass: 2
Flags: MW
HStem: -194 21G<82 82 82 198> -12 95<305 339 290 384.5> 408 95<319 354> 686 20G<82 198 198 198>
VStem: 82 116<-194 -40 128 349 520 706> 428 119<196.5 301>
AnchorPoint: "Anchor-3" 142 -212 basechar 0
AnchorPoint: "Anchor-0" 142 734 basechar 0
LayerCount: 2
Fore
SplineSet
82 -194 m 1
 82 706 l 1
 198 706 l 1
 198 520 l 1
 193 438 l 1
 196 438 l 1
 238 478 292 503 346 503 c 0
 472 503 547 405 547 253 c 0
 547 85 440 -12 329 -12 c 0
 281 -12 233 12 196 46 c 1
 193 46 l 1
 198 -40 l 1
 198 -194 l 1
 82 -194 l 1
305 83 m 0
 373 83 428 141 428 252 c 0
 428 350 394 408 314 408 c 0
 277 408 238 390 198 349 c 1
 198 128 l 1
 234 95 275 83 305 83 c 0
EndSplineSet
Validated: 1
EndChar

StartChar: ydieresis
Encoding: 255 255 191
Width: 599
GlyphClass: 2
Flags: MW
HStem: -202 93<124 161 123 196> 471 20G<40 155 155 155 452 561 561 561> 579 137<182 222 390 430>
VStem: 134 136<628.5 667> 342 136<628.5 667>
LayerCount: 2
Fore
SplineSet
137 -202 m 0
 111 -202 86 -198 67 -192 c 1
 89 -102 l 1
 102 -106 116 -109 130 -109 c 0
 192 -109 228 -74 248 -25 c 2
 260 6 l 1
 40 491 l 1
 155 491 l 1
 256 250 l 2
 274 206 292 155 310 106 c 1
 314 106 l 1
 329 153 347 204 363 250 c 2
 452 491 l 1
 561 491 l 1
 356 -22 l 2
 314 -133 255 -202 137 -202 c 0
202 579 m 0
 162 579 134 609 134 648 c 0
 134 686 162 716 202 716 c 0
 242 716 270 686 270 648 c 0
 270 609 242 579 202 579 c 0
410 579 m 0
 370 579 342 609 342 648 c 0
 342 686 370 716 410 716 c 0
 450 716 478 686 478 648 c 0
 478 609 450 579 410 579 c 0
EndSplineSet
Validated: 1
EndChar

StartChar: Amacron
Encoding: 256 256 192
Width: 599
GlyphClass: 2
Flags: MW
HStem: 0 21G<20 20 20 138 457 457 457 580> 177 91<215 381 215 407 189 381> 564 90<296 300 296 296> 728 76<157 443 157 443>
VStem: 20 560<0 0> 157 286<728 804 728 804>
LayerCount: 2
Fore
SplineSet
238 348 m 2xf8
 215 268 l 1
 381 268 l 1
 358 348 l 2
 339 417 318 491 300 564 c 1
 296 564 l 1
 278 491 258 417 238 348 c 2xf8
20 0 m 1
 232 654 l 1
 368 654 l 1
 580 0 l 1
 457 0 l 1
 407 177 l 1
 189 177 l 1
 138 0 l 1
 20 0 l 1
157 728 m 1xf4
 157 804 l 1
 443 804 l 1
 443 728 l 1
 157 728 l 1xf4
EndSplineSet
Validated: 1
EndChar

StartChar: amacron
Encoding: 257 257 193
Width: 599
GlyphClass: 2
Flags: MW
HStem: -12 90<245.5 268> 0 21G<431 525 431 431> 242 72<410 410> 410 93<272 333> 596 76<180 460 180 460>
VStem: 71 111<119 167.5 119 187> 180 280<596 672 596 672> 410 115<138 242 242 242> 426 99
LayerCount: 2
Fore
SplineSet
235 -12 m 0xbd
 139 -12 71 46 71 132 c 0
 71 242 168 297 410 314 c 1
 406 369 373 410 293 410 c 0
 238 410 183 386 132 358 c 1
 90 435 l 1
 149 470 230 503 314 503 c 0
 450 503 525 428 525 291 c 2
 525 0 l 1x7d
 431 0 l 1x7c80
 422 61 l 1
 419 61 l 1xbc80
 367 21 301 -12 235 -12 c 0xbd
270 78 m 0
 319 78 365 102 410 138 c 1
 410 242 l 1
 234 230 182 194 182 141 c 0
 182 97 221 78 270 78 c 0
180 596 m 1xba
 180 672 l 1
 460 672 l 1
 460 596 l 1
 180 596 l 1xba
EndSplineSet
Validated: 1
Substitution2: "'ss02' Style Set 2 lookup 0 subtable" amacron.a
EndChar

StartChar: Abreve
Encoding: 258 258 194
Width: 599
GlyphClass: 2
Flags: MW
HStem: 0 21G<20 20 20 138 457 457 457 580> 177 91<215 381 215 407 189 381> 564 90<296 300 296 296> 701 69<274.5 325.5 274.5 348>
VStem: 20 560<0 0> 389 66<834 845>
LayerCount: 2
Fore
SplineSet
238 348 m 2xf8
 215 268 l 1
 381 268 l 1
 358 348 l 2
 339 417 318 491 300 564 c 1
 296 564 l 1
 278 491 258 417 238 348 c 2xf8
20 0 m 1
 232 654 l 1
 368 654 l 1
 580 0 l 1
 457 0 l 1
 407 177 l 1
 189 177 l 1
 138 0 l 1
 20 0 l 1
300 701 m 0
 204 701 154 754 145 834 c 1
 211 845 l 1
 219 801 249 770 300 770 c 0
 351 770 381 801 389 845 c 1
 455 834 l 1xf4
 446 754 396 701 300 701 c 0
EndSplineSet
Validated: 1
EndChar

StartChar: abreve
Encoding: 259 259 195
Width: 599
GlyphClass: 2
Flags: MW
HStem: -12 90<245.5 268> 0 21G<431 525 431 431> 242 72<410 410> 410 93<272 333> 571 74<290.5 349.5 290.5 375.5>
VStem: 71 111<119 167.5 119 187> 157 68<726 737> 410 115<138 242 242 242> 415 68<726 737> 426 99
LayerCount: 2
Fore
SplineSet
235 -12 m 0x9d
 139 -12 71 46 71 132 c 0
 71 242 168 297 410 314 c 1
 406 369 373 410 293 410 c 0
 238 410 183 386 132 358 c 1
 90 435 l 1
 149 470 230 503 314 503 c 0
 450 503 525 428 525 291 c 2
 525 0 l 1x7d
 431 0 l 1x5c40
 422 61 l 1
 419 61 l 1x9c40
 367 21 301 -12 235 -12 c 0x9d
270 78 m 0
 319 78 365 102 410 138 c 1
 410 242 l 1xbd
 234 230 182 194 182 141 c 0
 182 97 221 78 270 78 c 0
320 571 m 0x9a80
 209 571 162 644 157 726 c 1
 225 737 l 1
 232 690 261 645 320 645 c 0
 379 645 408 690 415 737 c 1
 483 726 l 1
 478 644 431 571 320 571 c 0x9a80
EndSplineSet
Validated: 1
Substitution2: "'ss02' Style Set 2 lookup 0 subtable" abreve.a
EndChar

StartChar: Aogonek
Encoding: 260 260 196
Width: 599
GlyphClass: 2
Flags: MW
HStem: -226 77<522.5 530> 0 21G<20 138 20 20 457 487 457 457 580 580> 177 91<215 381 215 407 189 381> 564 90<296 300 296 296>
VStem: 401 87<-119 -100.5>
AnchorPoint: "Anchor-0" 300 674 basechar 0
LayerCount: 2
Fore
SplineSet
511 -226 m 0
 449 -226 401 -194 401 -132 c 0
 401 -69 450 -23 487 0 c 1
 457 0 l 1
 407 177 l 1
 189 177 l 1
 138 0 l 1
 20 0 l 1
 232 654 l 1
 368 654 l 1
 580 0 l 1
 526 -14 488 -58 488 -104 c 0
 488 -134 510 -149 535 -149 c 0
 554 -149 570 -140 581 -130 c 1
 611 -189 l 1
 586 -210 549 -226 511 -226 c 0
238 348 m 2
 215 268 l 1
 381 268 l 1
 358 348 l 2
 338 417 318 491 300 564 c 1
 296 564 l 1
 278 491 258 417 238 348 c 2
EndSplineSet
Validated: 1
Ligature2: "'ccmp' Glyph Composition/Decomposition lookup 19 subtable" A uni0328
EndChar

StartChar: aogonek
Encoding: 261 261 197
Width: 599
GlyphClass: 2
Flags: MW
HStem: -226 71<463 469.5> -12 90<245.5 268> 0 21G<525 525> 242 72<410 410> 410 93<272 333>
VStem: 71 111<119 167.5 119 187> 341 80<-122.5 -99> 410 115<138 242 242 242>
AnchorPoint: "Anchor-0" 320 512 basechar 0
LayerCount: 2
Fore
SplineSet
451 -226 m 0xde
 389 -226 341 -194 341 -130 c 0
 341 -68 387 -25 432 2 c 1
 422 61 l 1
 419 61 l 1
 367 21 301 -12 235 -12 c 0xde
 139 -12 71 46 71 132 c 0
 71 242 168 297 410 314 c 1
 406 369 373 410 293 410 c 0
 238 410 183 386 132 358 c 1
 90 435 l 1
 149 470 230 503 314 503 c 0
 450 503 525 428 525 291 c 2
 525 0 l 1xbd
 452 -27 421 -67 421 -105 c 0
 421 -140 449 -155 477 -155 c 0
 497 -155 515 -147 526 -138 c 1
 554 -190 l 1
 528 -212 488 -226 451 -226 c 0xde
270 78 m 0xdd
 319 78 365 102 410 138 c 1
 410 242 l 1
 234 230 182 194 182 141 c 0
 182 97 221 78 270 78 c 0xdd
EndSplineSet
Validated: 1
Ligature2: "'ccmp' Glyph Composition/Decomposition lookup 19 subtable" a uni0328
Substitution2: "'ss02' Style Set 2 lookup 0 subtable" aogonek.a
EndChar

StartChar: Cacute
Encoding: 262 262 198
Width: 599
GlyphClass: 2
Flags: MW
HStem: -12 101<309 391.5 309 397.5> 565 101<307.5 387.5>
VStem: 60 119<253.5 401.5 253.5 432>
LayerCount: 2
Fore
SplineSet
354 -12 m 0
 192 -12 60 108 60 325 c 0
 60 539 189 666 362 666 c 0
 443 666 508 627 549 584 c 1
 485 512 l 1
 452 544 413 565 362 565 c 0
 253 565 179 475 179 328 c 0
 179 179 253 89 365 89 c 0
 418 89 461 113 498 154 c 1
 562 83 l 1
 510 22 441 -12 354 -12 c 0
317 688 m 1
 266 746 l 1
 422 881 l 1
 485 805 l 1
 317 688 l 1
EndSplineSet
Validated: 1
EndChar

StartChar: cacute
Encoding: 263 263 199
Width: 599
GlyphClass: 2
Flags: MW
HStem: -12 94<306.5 379> 409 94<309 380> 699 20G<500 500>
VStem: 73 119<196 294.5 196 327>
LayerCount: 2
Fore
SplineSet
344 -12 m 0
 190 -12 73 82 73 245 c 0
 73 409 202 503 352 503 c 0
 431 503 493 473 534 434 c 1
 479 362 l 1
 441 393 402 409 358 409 c 0
 260 409 192 344 192 245 c 0
 192 147 258 82 355 82 c 0
 411 82 457 107 495 136 c 1
 543 62 l 1
 486 13 414 -12 344 -12 c 0
330 564 m 1
 273 621 l 1
 420 796 l 1
 500 719 l 1
 330 564 l 1
EndSplineSet
Validated: 1
EndChar

StartChar: Ccircumflex
Encoding: 264 264 200
Width: 599
GlyphClass: 2
Flags: MW
HStem: -12 101<309 391.5 309 397.5> 565 101<307.5 387.5> 780 56<348 352 348 348>
VStem: 60 119<253.5 401.5 253.5 432>
LayerCount: 2
Fore
SplineSet
354 -12 m 0
 192 -12 60 108 60 325 c 0
 60 539 189 666 362 666 c 0
 443 666 508 627 549 584 c 1
 485 512 l 1
 452 544 413 565 362 565 c 0
 253 565 179 475 179 328 c 0
 179 179 253 89 365 89 c 0
 418 89 461 113 498 154 c 1
 562 83 l 1
 510 22 441 -12 354 -12 c 0
241 692 m 1
 191 725 l 1
 288 836 l 1
 412 836 l 1
 509 725 l 1
 459 692 l 1
 352 780 l 1
 348 780 l 1
 241 692 l 1
EndSplineSet
Validated: 1
EndChar

StartChar: ccircumflex
Encoding: 265 265 201
Width: 599
GlyphClass: 2
Flags: MW
HStem: -12 94<306.5 379> 409 94<309 380> 667 75<342 346 342 342>
VStem: 73 119<196 294.5 196 327>
LayerCount: 2
Fore
SplineSet
344 -12 m 0
 190 -12 73 82 73 245 c 0
 73 409 202 503 352 503 c 0
 431 503 493 473 534 434 c 1
 479 362 l 1
 441 393 402 409 358 409 c 0
 260 409 192 344 192 245 c 0
 192 147 258 82 355 82 c 0
 411 82 457 107 495 136 c 1
 543 62 l 1
 486 13 414 -12 344 -12 c 0
220 564 m 1
 175 607 l 1
 286 742 l 1
 402 742 l 1
 513 607 l 1
 468 564 l 1
 346 667 l 1
 342 667 l 1
 220 564 l 1
EndSplineSet
Validated: 1
EndChar

StartChar: Cdotaccent
Encoding: 266 266 202
Width: 599
GlyphClass: 2
Flags: MW
HStem: -12 101<309 391.5 309 397.5> 565 101<307.5 387.5> 707 141<328.5 371.5>
VStem: 60 119<253.5 401.5 253.5 432> 275 150<757 799>
LayerCount: 2
Fore
SplineSet
354 -12 m 0
 192 -12 60 108 60 325 c 0
 60 539 189 666 362 666 c 0
 443 666 508 627 549 584 c 1
 485 512 l 1
 452 544 413 565 362 565 c 0
 253 565 179 475 179 328 c 0
 179 179 253 89 365 89 c 0
 418 89 461 113 498 154 c 1
 562 83 l 1
 510 22 441 -12 354 -12 c 0
350 707 m 0
 307 707 275 736 275 778 c 0
 275 820 307 848 350 848 c 0
 393 848 425 820 425 778 c 0
 425 736 393 707 350 707 c 0
EndSplineSet
Validated: 1
EndChar

StartChar: cdotaccent
Encoding: 267 267 203
Width: 599
GlyphClass: 2
Flags: MW
HStem: -12 94<306.5 379> 409 94<309 380> 581 155<320.5 367.5>
VStem: 73 119<196 294.5 196 327> 262 164<634.5 681>
LayerCount: 2
Fore
SplineSet
344 -12 m 0
 190 -12 73 82 73 245 c 0
 73 409 202 503 352 503 c 0
 431 503 493 473 534 434 c 1
 479 362 l 1
 441 393 402 409 358 409 c 0
 260 409 192 344 192 245 c 0
 192 147 258 82 355 82 c 0
 411 82 457 107 495 136 c 1
 543 62 l 1
 486 13 414 -12 344 -12 c 0
344 581 m 0
 297 581 262 611 262 658 c 0
 262 704 297 736 344 736 c 0
 391 736 426 704 426 658 c 0
 426 611 391 581 344 581 c 0
EndSplineSet
Validated: 1
EndChar

StartChar: Ccaron
Encoding: 268 268 204
Width: 599
GlyphClass: 2
Flags: MW
HStem: -12 101<309 391.5 309 397.5> 565 101<307.5 387.5> 704 56<348 352 348 412>
VStem: 60 119<253.5 401.5 253.5 432>
LayerCount: 2
Fore
SplineSet
354 -12 m 0
 192 -12 60 108 60 325 c 0
 60 539 189 666 362 666 c 0
 443 666 508 627 549 584 c 1
 485 512 l 1
 452 544 413 565 362 565 c 0
 253 565 179 475 179 328 c 0
 179 179 253 89 365 89 c 0
 418 89 461 113 498 154 c 1
 562 83 l 1
 510 22 441 -12 354 -12 c 0
288 704 m 1
 191 816 l 1
 241 848 l 1
 348 760 l 1
 352 760 l 1
 459 848 l 1
 509 816 l 1
 412 704 l 1
 288 704 l 1
EndSplineSet
Validated: 1
EndChar

StartChar: ccaron
Encoding: 269 269 205
Width: 599
GlyphClass: 2
Flags: MW
HStem: -12 94<306.5 379> 409 94<309 380> 576 75<286 346 342 346 342 402> 691 20G<175 175 513 513>
VStem: 73 119<196 294.5 196 327>
LayerCount: 2
Fore
SplineSet
344 -12 m 0
 190 -12 73 82 73 245 c 0
 73 409 202 503 352 503 c 0
 431 503 493 473 534 434 c 1
 479 362 l 1
 441 393 402 409 358 409 c 0
 260 409 192 344 192 245 c 0
 192 147 258 82 355 82 c 0
 411 82 457 107 495 136 c 1
 543 62 l 1
 486 13 414 -12 344 -12 c 0
286 576 m 1
 175 711 l 1
 220 753 l 1
 342 651 l 1
 346 651 l 1
 468 753 l 1
 513 711 l 1
 402 576 l 1
 286 576 l 1
EndSplineSet
Validated: 1
EndChar

StartChar: Dcaron
Encoding: 270 270 206
Width: 599
GlyphClass: 2
Flags: MW
HStem: 0 94<194 243 243 256> 560 94<194 243 194 194> 704 56<298 302 298 362>
VStem: 78 116<94 94 94 560> 439 119<249.5 410>
LayerCount: 2
Fore
SplineSet
78 0 m 1
 78 654 l 1
 250 654 l 2
 443 654 558 546 558 330 c 0
 558 113 443 0 256 0 c 2
 78 0 l 1
194 94 m 1
 243 94 l 2
 368 94 439 169 439 330 c 0
 439 490 368 560 243 560 c 2
 194 560 l 1
 194 94 l 1
238 704 m 1
 141 816 l 1
 191 848 l 1
 298 760 l 1
 302 760 l 1
 409 848 l 1
 459 816 l 1
 362 704 l 1
 238 704 l 1
EndSplineSet
Validated: 1
EndChar

StartChar: dcaron
Encoding: 271 271 207
Width: 599
GlyphClass: 3
Flags: MW
HStem: -12 95<230 261.5> 0 21G<384 472 384 384> 408 95<239 267.5 191 285.5> 548 158<363 528 363 607>
VStem: 44 112<193 297.5 193 325> 363 109<142 363 363 363 528 706 0 706> 379 92 526 101
LayerCount: 2
Fore
SplineSet
236 -12 m 0xbd
 120 -12 44 83 44 245 c 0
 44 405 140 503 242 503 c 0
 293 503 328 481 365 445 c 1
 368 445 l 1
 363 528 l 1
 363 706 l 1
 472 706 l 1
 472 0 l 1x7d
 384 0 l 1x7b
 375 57 l 1
 372 57 l 1xbb
 335 21 287 -12 236 -12 c 0xbd
264 83 m 0
 299 83 330 103 363 142 c 1
 363 363 l 1
 329 394 301 408 270 408 c 0
 208 408 156 349 156 246 c 0
 156 140 196 83 264 83 c 0
528 548 m 1
 524 819 l 1
 627 819 l 1
 626 730 l 1
 607 548 l 1
 528 548 l 1
EndSplineSet
Validated: 1
Ligature2: "'ccmp' Glyph Composition/Decomposition lookup 19 subtable" d uni030C
EndChar

StartChar: Dcroat
Encoding: 272 272 208
Width: 599
GlyphClass: 2
Flags: MW
HStem: 0 94<194 243 243 256> 306 66 306 69<6 79 194 320> 560 94<194 243 194 194>
VStem: 79 115<94 94 94 306 375 560> 439 120<249.5 410>
AnchorPoint: "Anchor-3" 290 -20 basechar 0
AnchorPoint: "Anchor-0" 298 674 basechar 0
LayerCount: 2
Fore
SplineSet
79 0 m 1xbc
 79 306 l 1
 6 306 l 1xbc
 6 369 l 1
 79 375 l 1xdc
 79 654 l 1
 250 654 l 2
 442 654 559 546 559 330 c 0
 559 113 442 0 256 0 c 2
 79 0 l 1xbc
194 94 m 1
 243 94 l 2
 367 94 439 169 439 330 c 0
 439 490 367 560 243 560 c 2
 194 560 l 1
 194 375 l 1
 320 375 l 1
 320 306 l 1
 194 306 l 1
 194 94 l 1
EndSplineSet
Validated: 1
EndChar

StartChar: dcroat
Encoding: 273 273 209
Width: 599
GlyphClass: 2
Flags: MW
HStem: -12 95<253.5 291> 0 21G<423 518 423 423> 388 95<264 298.5 214.5 316> 558 69<238 403 238 403> 558 148<238 518 403 518>
VStem: 53 119<186 284 186 312> 403 115<142 343 343 343 508 558 0 558 627 706> 418 100
AnchorPoint: "Anchor-3" 306 -20 basechar 0
AnchorPoint: "Anchor-0" 452 734 basechar 0
LayerCount: 2
Fore
SplineSet
264 -12 m 0xae
 137 -12 53 79 53 235 c 0
 53 389 159 483 270 483 c 0
 327 483 368 461 405 425 c 1
 408 425 l 1
 403 508 l 1
 403 558 l 1
 238 558 l 1xae
 238 627 l 1
 403 627 l 1xb6
 403 706 l 1
 518 706 l 1xae
 518 627 l 1
 587 627 l 1
 587 564 l 1xb6
 518 558 l 1
 518 0 l 1x6e
 423 0 l 1x6d
 414 57 l 1
 411 57 l 1xad
 373 19 318 -12 264 -12 c 0xae
291 83 m 0
 332 83 368 102 403 142 c 1
 403 343 l 1
 367 375 333 388 299 388 c 0
 229 388 172 332 172 236 c 0
 172 136 216 83 291 83 c 0
EndSplineSet
Validated: 1
EndChar

StartChar: Emacron
Encoding: 274 274 210
Width: 599
GlyphClass: 2
Flags: MW
HStem: 0 98<219 532 219 532> 291 98<219 476 219 476> 556 98<219 522 219 219> 728 76<184 470 184 470>
VStem: 103 116<98 291 389 556> 184 286<728 804 728 804>
LayerCount: 2
Fore
SplineSet
103 0 m 1xf8
 103 654 l 1
 522 654 l 1
 522 556 l 1
 219 556 l 1
 219 389 l 1
 476 389 l 1
 476 291 l 1
 219 291 l 1
 219 98 l 1
 532 98 l 1
 532 0 l 1
 103 0 l 1xf8
184 728 m 1xf4
 184 804 l 1
 470 804 l 1
 470 728 l 1
 184 728 l 1xf4
EndSplineSet
Validated: 1
MultipleSubs2: "Multiple Substitution lookup 15 subtable" E uni0304
EndChar

StartChar: emacron
Encoding: 275 275 211
Width: 599
GlyphClass: 2
Flags: MW
HStem: -12 89<299.5 366> 212 82<179 440 179 537 176 440> 414 89<284 353> 596 76<174 454 174 454>
VStem: 174 280<596 672 596 672> 440 102<294 294>
LayerCount: 2
Fore
SplineSet
330 -12 m 0xf4
 180 -12 61 83 61 246 c 0
 61 406 183 503 315 503 c 0
 461 503 542 406 542 270 c 0
 542 247 539 225 537 212 c 1
 176 212 l 1
 189 121 254 77 345 77 c 0
 397 77 439 93 483 118 c 1
 522 46 l 1
 470 12 402 -12 330 -12 c 0xf4
318 414 m 0
 250 414 194 373 179 294 c 1
 440 294 l 1
 432 374 388 414 318 414 c 0
174 596 m 1xf8
 174 672 l 1
 454 672 l 1
 454 596 l 1
 174 596 l 1xf8
EndSplineSet
Validated: 1
MultipleSubs2: "Multiple Substitution lookup 15 subtable" e uni0304
EndChar

StartChar: Ebreve
Encoding: 276 276 212
Width: 599
GlyphClass: 2
Flags: MW
HStem: 0 98<219 532 219 532> 291 98<219 476 219 476> 556 98<219 522 219 219> 701 69<301.5 352.5 301.5 375>
VStem: 103 116<98 291 389 556> 416 66<834 845>
LayerCount: 2
Fore
SplineSet
103 0 m 1
 103 654 l 1
 522 654 l 1
 522 556 l 1
 219 556 l 1
 219 389 l 1
 476 389 l 1
 476 291 l 1
 219 291 l 1
 219 98 l 1
 532 98 l 1
 532 0 l 1
 103 0 l 1
327 701 m 0
 231 701 181 754 172 834 c 1
 238 845 l 1
 246 801 276 770 327 770 c 0
 378 770 408 801 416 845 c 1
 482 834 l 1
 473 754 423 701 327 701 c 0
EndSplineSet
Validated: 1
EndChar

StartChar: ebreve
Encoding: 277 277 213
Width: 599
GlyphClass: 2
Flags: MW
HStem: -12 89<299.5 366> 212 82<179 440 179 537 176 440> 414 89<284 353> 571 74<284.5 343.5 284.5 369.5>
VStem: 151 68<726 737> 409 68<726 737> 440 102<294 294>
LayerCount: 2
Fore
SplineSet
330 -12 m 0xfc
 180 -12 61 83 61 246 c 0
 61 406 183 503 315 503 c 0
 461 503 542 406 542 270 c 0
 542 247 539 225 537 212 c 1xfa
 176 212 l 1
 189 121 254 77 345 77 c 0
 397 77 439 93 483 118 c 1
 522 46 l 1
 470 12 402 -12 330 -12 c 0xfc
318 414 m 0
 250 414 194 373 179 294 c 1
 440 294 l 1
 432 374 388 414 318 414 c 0
314 571 m 0
 203 571 156 644 151 726 c 1
 219 737 l 1
 226 690 255 645 314 645 c 0
 373 645 402 690 409 737 c 1
 477 726 l 1
 472 644 425 571 314 571 c 0
EndSplineSet
Validated: 1
EndChar

StartChar: Edotaccent
Encoding: 278 278 214
Width: 599
GlyphClass: 2
Flags: MW
HStem: 0 98<219 532 219 532> 291 98<219 476 219 476> 556 98<219 522 219 219> 707 141<305.5 348.5>
VStem: 103 116<98 291 389 556> 252 150<757 799>
LayerCount: 2
Fore
SplineSet
103 0 m 1
 103 654 l 1
 522 654 l 1
 522 556 l 1
 219 556 l 1
 219 389 l 1
 476 389 l 1
 476 291 l 1
 219 291 l 1
 219 98 l 1
 532 98 l 1
 532 0 l 1
 103 0 l 1
327 707 m 0
 284 707 252 736 252 778 c 0
 252 820 284 848 327 848 c 0
 370 848 402 820 402 778 c 0
 402 736 370 707 327 707 c 0
EndSplineSet
Validated: 1
EndChar

StartChar: edotaccent
Encoding: 279 279 215
Width: 599
GlyphClass: 2
Flags: MW
HStem: -12 89<299.5 366> 212 82<179 440 179 537 176 440> 414 89<284 353> 581 155<290.5 337.5>
VStem: 232 164<634.5 681> 440 102<294 294>
LayerCount: 2
Fore
SplineSet
330 -12 m 0
 180 -12 61 83 61 246 c 0
 61 406 183 503 315 503 c 0
 461 503 542 406 542 270 c 0
 542 247 539 225 537 212 c 1
 176 212 l 1
 189 121 254 77 345 77 c 0
 397 77 439 93 483 118 c 1
 522 46 l 1
 470 12 402 -12 330 -12 c 0
318 414 m 0
 250 414 194 373 179 294 c 1
 440 294 l 1
 432 374 388 414 318 414 c 0
314 581 m 0
 267 581 232 611 232 658 c 0
 232 704 267 736 314 736 c 0
 361 736 396 704 396 658 c 0
 396 611 361 581 314 581 c 0
EndSplineSet
Validated: 1
EndChar

StartChar: Eogonek
Encoding: 280 280 216
Width: 599
GlyphClass: 2
Flags: MW
HStem: -226 77<468.5 474> 0 98<220 429 528 528 528 532> 291 98<220 476 220 476> 556 98<220 522 220 220>
VStem: 104 116<98 291 389 556> 345 87<-119.5 -101.5>
AnchorPoint: "Anchor-0" 326 674 basechar 0
LayerCount: 2
Fore
SplineSet
455 -226 m 0
 393 -226 345 -194 345 -132 c 0
 345 -71 389 -24 429 0 c 1
 104 0 l 1
 104 654 l 1
 522 654 l 1
 522 556 l 1
 220 556 l 1
 220 389 l 1
 476 389 l 1
 476 291 l 1
 220 291 l 1
 220 98 l 1
 532 98 l 1
 532 0 l 1
 528 0 l 1
 478 -5 432 -55 432 -104 c 0
 432 -135 456 -149 481 -149 c 0
 499 -149 514 -140 525 -130 c 1
 555 -189 l 1
 530 -210 493 -226 455 -226 c 0
EndSplineSet
Validated: 1
Ligature2: "'ccmp' Glyph Composition/Decomposition lookup 19 subtable" E uni0328
EndChar

StartChar: eogonek
Encoding: 281 281 217
Width: 599
GlyphClass: 2
Flags: MW
HStem: -226 71<430 437> -12 89<299.5 334.5> 212 82<179 440 179 537 176 440> 414 89<284 353>
VStem: 308 81<-122 -105> 440 102<294 294>
AnchorPoint: "Anchor-0" 313 512 basechar 0
LayerCount: 2
Fore
SplineSet
418 -226 m 0
 354 -226 308 -194 308 -130 c 0
 308 -80 336 -43 380 -6 c 1
 355 -13 339 -12 330 -12 c 0
 180 -12 61 83 61 245 c 0
 61 406 183 503 315 503 c 0
 461 503 542 406 542 270 c 0
 542 247 539 225 537 212 c 1
 176 212 l 1
 189 121 254 77 345 77 c 0
 397 77 439 93 483 118 c 1
 522 46 l 1
 420 -24 389 -57 389 -105 c 0
 389 -139 415 -155 445 -155 c 0
 465 -155 482 -148 494 -138 c 1
 522 -190 l 1
 496 -212 456 -226 418 -226 c 0
318 414 m 0
 250 414 194 373 179 294 c 1
 440 294 l 1
 432 374 388 414 318 414 c 0
EndSplineSet
Validated: 33
Ligature2: "'ccmp' Glyph Composition/Decomposition lookup 19 subtable" e uni0328
EndChar

StartChar: Ecaron
Encoding: 282 282 218
Width: 599
GlyphClass: 2
Flags: MW
HStem: 0 98<219 532 219 532> 291 98<219 476 219 476> 556 98<219 522 219 219> 704 56<325 329 325 389>
VStem: 103 116<98 291 389 556>
LayerCount: 2
Fore
SplineSet
103 0 m 1
 103 654 l 1
 522 654 l 1
 522 556 l 1
 219 556 l 1
 219 389 l 1
 476 389 l 1
 476 291 l 1
 219 291 l 1
 219 98 l 1
 532 98 l 1
 532 0 l 1
 103 0 l 1
265 704 m 1
 168 816 l 1
 218 848 l 1
 325 760 l 1
 329 760 l 1
 436 848 l 1
 486 816 l 1
 389 704 l 1
 265 704 l 1
EndSplineSet
Validated: 1
EndChar

StartChar: ecaron
Encoding: 283 283 219
Width: 599
GlyphClass: 2
Flags: MW
HStem: -12 89<299.5 366> 212 82<179 440 179 537 176 440> 414 89<284 353> 576 75<256 316 312 316 312 372> 691 20G<145 145 483 483>
VStem: 440 102<294 294>
LayerCount: 2
Fore
SplineSet
330 -12 m 0
 180 -12 61 83 61 246 c 0
 61 406 183 503 315 503 c 0
 461 503 542 406 542 270 c 0
 542 247 539 225 537 212 c 1
 176 212 l 1
 189 121 254 77 345 77 c 0
 397 77 439 93 483 118 c 1
 522 46 l 1
 470 12 402 -12 330 -12 c 0
318 414 m 0
 250 414 194 373 179 294 c 1
 440 294 l 1
 432 374 388 414 318 414 c 0
256 576 m 1
 145 711 l 1
 190 753 l 1
 312 651 l 1
 316 651 l 1
 438 753 l 1
 483 711 l 1
 372 576 l 1
 256 576 l 1
EndSplineSet
Validated: 1
EndChar

StartChar: Gcircumflex
Encoding: 284 284 220
Width: 599
GlyphClass: 2
Flags: MW
HStem: -12 101<289 364.5 289 382> 259 95<322 435 322 540> 565 101<293 373.5> 780 56<328 332 328 328>
VStem: 48 120<253.5 401.5 253.5 432.5> 435 105<118 259 259 259>
LayerCount: 2
Fore
SplineSet
340 -12 m 0
 174 -12 48 108 48 325 c 0
 48 540 175 666 345 666 c 0
 432 666 491 625 530 584 c 1
 466 512 l 1
 436 543 402 565 345 565 c 0
 241 565 168 475 168 328 c 0
 168 179 231 89 347 89 c 0
 382 89 416 99 435 118 c 1
 435 259 l 1
 322 259 l 1
 322 354 l 1
 540 354 l 1
 540 66 l 1
 498 24 424 -12 340 -12 c 0
221 692 m 1
 171 725 l 1
 268 836 l 1
 392 836 l 1
 489 725 l 1
 439 692 l 1
 332 780 l 1
 328 780 l 1
 221 692 l 1
EndSplineSet
Validated: 1
EndChar

StartChar: gcircumflex
Encoding: 285 285 221
Width: 599
GlyphClass: 2
Flags: MW
HStem: -217 76<254.5 348 254.5 372.5> -14 91<276 281 281 359> -7 84 155 73<277 313.5 262.5 343> 403 88<453 566 453 453> 423 80<262.5 302.5 234 313.5> 667 75<304 308 304 304>
VStem: 62 96<-93 -66.5> 86 109<297 356 295 382.5> 90 93<107 119> 381 104<295 338 267.5 356> 381 185<295 491> 458 111<-83 -43>
LayerCount: 2
Fore
SplineSet
286 -217 m 0xbb08
 151 -217 62 -174 62 -86 c 0xbb20
 62 -47 89 -11 140 17 c 1
 140 21 l 1
 114 37 90 62 90 103 c 0xba60
 90 135 113 171 149 195 c 1
 149 199 l 1
 114 224 86 268 86 326 c 0
 86 439 180 503 288 503 c 0xb6a0
 317 503 342 499 365 491 c 1
 566 491 l 1
 566 403 l 1xba90
 453 403 l 1
 470 384 485 354 485 322 c 0
 485 213 398 155 288 155 c 0
 266 155 239 160 213 169 c 1
 193 157 183 143 183 123 c 0
 183 91 215 77 276 77 c 2xba60
 376 77 l 2
 503 77 569 43 569 -43 c 0
 569 -140 459 -217 286 -217 c 0xbb08
288 228 m 0xb6a0
 339 228 381 264 381 326 c 0
 381 386 339 423 288 423 c 0
 237 423 195 386 195 326 c 0
 195 264 237 228 288 228 c 0xb6a0
300 -141 m 0xbb08
 396 -141 458 -104 458 -62 c 0
 458 -24 425 -14 359 -14 c 2
 281 -14 l 2xda88
 249 -14 226 -12 206 -7 c 1
 171 -27 158 -48 158 -71 c 0
 158 -115 209 -141 300 -141 c 0xbb08
182 564 m 1
 137 607 l 1
 248 742 l 1
 364 742 l 1
 475 607 l 1
 430 564 l 1
 308 667 l 1
 304 667 l 1xbaa0
 182 564 l 1
EndSplineSet
Validated: 1
Substitution2: "'ss03' Style Set 3 lookup 1 subtable" gcircumflex.a
EndChar

StartChar: Gbreve
Encoding: 286 286 222
Width: 599
GlyphClass: 2
Flags: MW
HStem: -12 101<289 364.5 289 382> 259 95<322 435 322 540> 565 101<293 373.5> 701 69<304.5 355.5 304.5 378>
VStem: 48 120<253.5 401.5 253.5 432.5> 419 66<834 845> 435 105<118 259 259 259>
LayerCount: 2
Fore
SplineSet
340 -12 m 0xfa
 174 -12 48 108 48 325 c 0
 48 540 175 666 345 666 c 0
 432 666 491 625 530 584 c 1
 466 512 l 1
 436 543 402 565 345 565 c 0
 241 565 168 475 168 328 c 0
 168 179 231 89 347 89 c 0
 382 89 416 99 435 118 c 1
 435 259 l 1
 322 259 l 1
 322 354 l 1
 540 354 l 1
 540 66 l 1
 498 24 424 -12 340 -12 c 0xfa
330 701 m 0
 234 701 184 754 175 834 c 1
 241 845 l 1
 249 801 279 770 330 770 c 0
 381 770 411 801 419 845 c 1
 485 834 l 1xfc
 476 754 426 701 330 701 c 0
EndSplineSet
Validated: 1
EndChar

StartChar: gbreve
Encoding: 287 287 223
Width: 599
GlyphClass: 2
Flags: MW
HStem: -217 76<254.5 348 254.5 372.5> -14 91<276 281 281 359> -7 84 155 73<277 313.5 262.5 343> 403 88<453 566 453 453> 423 80<262.5 302.5 234 313.5> 571 74<276.5 335.5 276.5 361.5>
VStem: 62 96<-93 -66.5> 86 109<297 356 295 382.5> 90 93<107 119> 143 68<726 737> 381 104<295 338 267.5 356> 381 185<295 491> 401 68<726 737> 458 111<-83 -43>
LayerCount: 2
Fore
SplineSet
286 -217 m 0xbb02
 151 -217 62 -174 62 -86 c 0xbb10
 62 -47 89 -11 140 17 c 1
 140 21 l 1
 114 37 90 62 90 103 c 0xba50
 90 135 113 171 149 195 c 1
 149 199 l 1
 114 224 86 268 86 326 c 0
 86 439 180 503 288 503 c 0xb690
 317 503 342 499 365 491 c 1
 566 491 l 1
 566 403 l 1xba88
 453 403 l 1
 470 384 485 354 485 322 c 0
 485 213 398 155 288 155 c 0
 266 155 239 160 213 169 c 1
 193 157 183 143 183 123 c 0
 183 91 215 77 276 77 c 2xba50
 376 77 l 2
 503 77 569 43 569 -43 c 0
 569 -140 459 -217 286 -217 c 0xbb02
288 228 m 0xb690
 339 228 381 264 381 326 c 0
 381 386 339 423 288 423 c 0
 237 423 195 386 195 326 c 0
 195 264 237 228 288 228 c 0xb690
300 -141 m 0xbb02
 396 -141 458 -104 458 -62 c 0
 458 -24 425 -14 359 -14 c 2
 281 -14 l 2xda82
 249 -14 226 -12 206 -7 c 1
 171 -27 158 -48 158 -71 c 0
 158 -115 209 -141 300 -141 c 0xbb02
306 571 m 0xba24
 195 571 148 644 143 726 c 1
 211 737 l 1
 218 690 247 645 306 645 c 0
 365 645 394 690 401 737 c 1
 469 726 l 1
 464 644 417 571 306 571 c 0xba24
EndSplineSet
Validated: 1
Substitution2: "'ss03' Style Set 3 lookup 1 subtable" gbreve.a
EndChar

StartChar: Gdotaccent
Encoding: 288 288 224
Width: 599
GlyphClass: 2
Flags: MW
HStem: -12 101<289 364.5 289 382> 259 95<322 435 322 540> 565 101<293 373.5> 707 141<308.5 351.5>
VStem: 48 120<253.5 401.5 253.5 432.5> 255 150<757 799> 435 105<118 259 259 259>
LayerCount: 2
Fore
SplineSet
340 -12 m 0
 174 -12 48 108 48 325 c 0
 48 540 175 666 345 666 c 0
 432 666 491 625 530 584 c 1
 466 512 l 1
 436 543 402 565 345 565 c 0
 241 565 168 475 168 328 c 0
 168 179 231 89 347 89 c 0
 382 89 416 99 435 118 c 1
 435 259 l 1
 322 259 l 1
 322 354 l 1
 540 354 l 1
 540 66 l 1
 498 24 424 -12 340 -12 c 0
330 707 m 0
 287 707 255 736 255 778 c 0
 255 820 287 848 330 848 c 0
 373 848 405 820 405 778 c 0
 405 736 373 707 330 707 c 0
EndSplineSet
Validated: 1
EndChar

StartChar: gdotaccent
Encoding: 289 289 225
Width: 599
GlyphClass: 2
Flags: MW
HStem: -217 76<254.5 348 254.5 372.5> -14 91<276 281 281 359> -7 84 155 73<277 313.5 262.5 343> 403 88<453 566 453 453> 423 80<262.5 302.5 234 313.5> 581 155<282.5 329.5>
VStem: 62 96<-93 -66.5> 86 109<297 356 295 382.5> 90 93<107 119> 224 164<634.5 681> 381 104<295 338 267.5 356> 381 185<295 491> 458 111<-83 -43>
LayerCount: 2
Fore
SplineSet
286 -217 m 0xbb04
 151 -217 62 -174 62 -86 c 0xbb10
 62 -47 89 -11 140 17 c 1
 140 21 l 1
 114 37 90 62 90 103 c 0xba50
 90 135 113 171 149 195 c 1
 149 199 l 1
 114 224 86 268 86 326 c 0
 86 439 180 503 288 503 c 0xb690
 317 503 342 499 365 491 c 1
 566 491 l 1
 566 403 l 1xba88
 453 403 l 1
 470 384 485 354 485 322 c 0
 485 213 398 155 288 155 c 0
 266 155 239 160 213 169 c 1
 193 157 183 143 183 123 c 0
 183 91 215 77 276 77 c 2xba50
 376 77 l 2
 503 77 569 43 569 -43 c 0
 569 -140 459 -217 286 -217 c 0xbb04
288 228 m 0xb690
 339 228 381 264 381 326 c 0
 381 386 339 423 288 423 c 0
 237 423 195 386 195 326 c 0
 195 264 237 228 288 228 c 0xb690
300 -141 m 0xbb04
 396 -141 458 -104 458 -62 c 0
 458 -24 425 -14 359 -14 c 2
 281 -14 l 2xda84
 249 -14 226 -12 206 -7 c 1
 171 -27 158 -48 158 -71 c 0
 158 -115 209 -141 300 -141 c 0xbb04
306 581 m 0xbaa0
 259 581 224 611 224 658 c 0
 224 704 259 736 306 736 c 0
 353 736 388 704 388 658 c 0
 388 611 353 581 306 581 c 0xbaa0
EndSplineSet
Validated: 1
Substitution2: "'ss03' Style Set 3 lookup 1 subtable" gdotaccent.a
EndChar

StartChar: uni0122
Encoding: 290 290 226
Width: 599
GlyphClass: 2
Flags: MW
HStem: -233 50<222 232> -101 46<260 284> -12 101<289 364.5 289 382> 259 95<322 435 322 540> 565 101<293 373.5>
VStem: 48 120<253.5 401.5 253.5 432.5> 328 85<-152.5 -128.5> 435 105<118 259 259 259>
LayerCount: 2
Fore
SplineSet
340 -12 m 0
 174 -12 48 108 48 325 c 0
 48 540 175 666 345 666 c 0
 432 666 491 625 530 584 c 1
 466 512 l 1
 436 543 402 565 345 565 c 0
 241 565 168 475 168 328 c 0
 168 179 231 89 347 89 c 0
 382 89 416 99 435 118 c 1
 435 259 l 1
 322 259 l 1
 322 354 l 1
 540 354 l 1
 540 66 l 1
 498 24 424 -12 340 -12 c 0
232 -233 m 1
 222 -183 l 1
 303 -178 328 -165 328 -140 c 0
 328 -117 306 -105 260 -101 c 1
 284 -55 l 1
 381 -64 413 -88 413 -135 c 0
 413 -198 347 -228 232 -233 c 1
EndSplineSet
Validated: 1
EndChar

StartChar: uni0123
Encoding: 291 291 227
Width: 599
GlyphClass: 3
Flags: MW
HStem: -217 76<254.5 348 254.5 372.5> -14 91<276 281 281 359> -7 84 155 73<277 313.5 262.5 343> 403 88<453 566 453 453> 423 80<262.5 302.5 234 313.5> 572 46<348 372> 700 50<400 410>
VStem: 62 96<-93 -66.5> 86 109<297 356 295 382.5> 90 93<107 119> 219 85<645 669 645 683.5> 381 104<295 338 267.5 356> 381 185<295 491> 458 111<-83 -43>
LayerCount: 2
Fore
SplineSet
286 -217 m 0xbb82
 151 -217 62 -174 62 -86 c 0xbb88
 62 -47 89 -11 140 17 c 1
 140 21 l 1
 114 37 90 62 90 103 c 0xbb28
 90 135 113 171 149 195 c 1
 149 199 l 1
 114 224 86 268 86 326 c 0
 86 439 180 503 288 503 c 0xb748
 317 503 342 499 365 491 c 1
 566 491 l 1
 566 403 l 1xbb44
 453 403 l 1
 470 384 485 354 485 322 c 0
 485 213 398 155 288 155 c 0
 266 155 239 160 213 169 c 1
 193 157 183 143 183 123 c 0
 183 91 215 77 276 77 c 2xbb28
 376 77 l 2
 503 77 569 43 569 -43 c 0
 569 -140 459 -217 286 -217 c 0xbb82
288 228 m 0xb748
 339 228 381 264 381 326 c 0
 381 386 339 423 288 423 c 0
 237 423 195 386 195 326 c 0
 195 264 237 228 288 228 c 0xb748
300 -141 m 0xbb82
 396 -141 458 -104 458 -62 c 0
 458 -24 425 -14 359 -14 c 2
 281 -14 l 2xdb42
 249 -14 226 -12 206 -7 c 1
 171 -27 158 -48 158 -71 c 0
 158 -115 209 -141 300 -141 c 0xbb82
348 572 m 1xbb58
 251 581 219 605 219 652 c 0
 219 715 285 745 400 750 c 1
 410 700 l 1
 329 695 304 682 304 656 c 0
 304 634 326 622 372 618 c 1
 348 572 l 1xbb58
EndSplineSet
Validated: 1
Ligature2: "'ccmp' Glyph Composition/Decomposition lookup 19 subtable" g uni0327
Substitution2: "'ss03' Style Set 3 lookup 1 subtable" uni0123.a
EndChar

StartChar: Hcircumflex
Encoding: 292 292 228
Width: 599
GlyphClass: 2
Flags: MW
HStem: 0 21G<72 72 72 188 412 412 412 528> 290 101<188 412 188 412> 780 56<298 302 298 298>
VStem: 72 116<0 290 391 654> 412 116<0 290 290 290 391 654 0 654>
LayerCount: 2
Fore
SplineSet
72 0 m 1
 72 654 l 1
 188 654 l 1
 188 391 l 1
 412 391 l 1
 412 654 l 1
 528 654 l 1
 528 0 l 1
 412 0 l 1
 412 290 l 1
 188 290 l 1
 188 0 l 1
 72 0 l 1
191 692 m 1
 141 725 l 1
 238 836 l 1
 362 836 l 1
 459 725 l 1
 409 692 l 1
 302 780 l 1
 298 780 l 1
 191 692 l 1
EndSplineSet
Validated: 1
EndChar

StartChar: hcircumflex
Encoding: 293 293 229
Width: 599
GlyphClass: 2
Flags: MW
HStem: 0 21G<82 82 82 198 416 416 416 532> 404 99<329.5 357.5> 686 20G<82 198 198 198> 840 56<136 140 136 136>
VStem: 82 116<0 335 524 706> 416 116<0 289 289 304 0 328.5>
LayerCount: 2
Fore
SplineSet
82 0 m 1
 82 706 l 1
 198 706 l 1
 198 524 l 1
 191 419 l 1
 194 419 l 1
 237 464 292 503 367 503 c 0
 480 503 532 431 532 304 c 2
 532 0 l 1
 416 0 l 1
 416 289 l 2
 416 368 391 404 324 404 c 0
 276 404 243 381 198 335 c 1
 198 0 l 1
 82 0 l 1
29 752 m 1
 -21 785 l 1
 76 896 l 1
 200 896 l 1
 297 785 l 1
 247 752 l 1
 140 840 l 1
 136 840 l 1
 29 752 l 1
EndSplineSet
Validated: 1
EndChar

StartChar: Hbar
Encoding: 294 294 230
Width: 599
GlyphClass: 2
Flags: MW
HStem: 0 21G<72 188 72 72 412 528 412 412> 290 101<188 412 188 412> 484 66 484 69<6 72 6 72 188 412 528 594> 484 170<6 188 6 188 72 188 72 412>
VStem: 72 116<0 290 391 484 553 654> 412 116<0 290 290 290 391 484 0 484 553 654>
LayerCount: 2
Fore
SplineSet
6 484 m 1xd6
 6 547 l 1
 72 553 l 1xe6
 72 654 l 1
 188 654 l 1xce
 188 553 l 1
 412 553 l 1xd6
 412 654 l 1
 528 654 l 1xce
 528 553 l 1
 594 553 l 1
 594 484 l 1
 528 484 l 1
 528 0 l 1
 412 0 l 1
 412 290 l 1
 188 290 l 1
 188 0 l 1
 72 0 l 1
 72 484 l 1
 6 484 l 1xd6
188 391 m 1
 412 391 l 1
 412 484 l 1
 188 484 l 1xd6
 188 391 l 1
EndSplineSet
Validated: 1
EndChar

StartChar: hbar
Encoding: 295 295 231
Width: 599
GlyphClass: 2
Flags: MW
HStem: 0 21G<82 82 82 197 416 416 416 531> 385 98<329.5 357.5> 558 65 558 69<197 395 197 395> 558 148<13 197 13 197 82 197 82 395>
VStem: 82 115<0 315 504 558 627 706> 416 115<0 269 269 284 0 308.5>
LayerCount: 2
Fore
SplineSet
82 0 m 1xce
 82 558 l 1
 13 558 l 1xce
 13 621 l 1
 82 626 l 1xe6
 82 706 l 1
 197 706 l 1xce
 197 627 l 1
 395 627 l 1xd6
 395 558 l 1
 197 558 l 1
 197 504 l 1
 191 399 l 1
 194 399 l 1
 237 445 292 483 367 483 c 0
 480 483 531 411 531 284 c 2
 531 0 l 1
 416 0 l 1
 416 269 l 2
 416 348 391 385 324 385 c 0
 276 385 243 361 197 315 c 1
 197 0 l 1
 82 0 l 1xce
EndSplineSet
Validated: 1
EndChar

StartChar: Itilde
Encoding: 296 296 232
Width: 599
GlyphClass: 2
Flags: MW
HStem: 0 98<84 242 84 242 358 516> 556 98<84 242 84 516 358 358 358 516> 693 20G<112 112> 700 82<350 381 350 405.5> 764 82<219 250>
VStem: 84 104<556 707 654 707> 112 76<707 713> 242 116<98 556 98 556> 412 76<834 840>
LayerCount: 2
Fore
SplineSet
84 0 m 1xed
 84 98 l 1
 242 98 l 1
 242 556 l 1
 84 556 l 1
 84 654 l 1
 516 654 l 1
 516 556 l 1
 358 556 l 1
 358 98 l 1
 516 98 l 1
 516 0 l 1
 84 0 l 1xed
373 700 m 0xd580
 300 700 270 764 230 764 c 0
 208 764 192 747 188 707 c 1
 112 713 l 1
 117 802 162 846 227 846 c 0xeb
 300 846 330 782 370 782 c 0
 392 782 407 800 412 840 c 1
 488 834 l 1
 483 745 438 700 373 700 c 0xd580
EndSplineSet
Validated: 1
EndChar

StartChar: itilde
Encoding: 297 297 233
Width: 599
GlyphClass: 2
Flags: MW
HStem: 0 21G<297 297 297 412> 400 91<84 297 84 412> 575 81<394 426 394 451.5> 649 81<266.5 298.5> 699 20G<528 528>
VStem: 164 74<582 586> 297 115<0 400 400 400> 454 74<719 723>
LayerCount: 2
Fore
SplineSet
297 0 m 1xeb
 297 400 l 1
 84 400 l 1
 84 491 l 1
 412 491 l 1
 412 0 l 1
 297 0 l 1xeb
415 575 m 0
 348 575 318 649 279 649 c 0
 254 649 242 625 238 582 c 1
 164 586 l 1
 167 677 204 730 277 730 c 0xd7
 344 730 374 656 414 656 c 0
 438 656 450 681 454 723 c 1
 528 719 l 1
 525 629 488 575 415 575 c 0
EndSplineSet
Validated: 1
Substitution2: "'ss04' Style Set 4 lookup 2 subtable" itilde.a
EndChar

StartChar: Imacron
Encoding: 298 298 234
Width: 599
GlyphClass: 2
Flags: MW
HStem: 0 98<84 242 84 242 358 516> 556 98<84 242 84 516 358 358 358 516> 728 76<157 443 157 443>
VStem: 157 286<728 804 728 804> 242 116<98 556 98 556>
LayerCount: 2
Fore
SplineSet
84 0 m 1xe8
 84 98 l 1
 242 98 l 1
 242 556 l 1
 84 556 l 1
 84 654 l 1
 516 654 l 1
 516 556 l 1
 358 556 l 1
 358 98 l 1
 516 98 l 1
 516 0 l 1
 84 0 l 1xe8
157 728 m 1xf0
 157 804 l 1
 443 804 l 1
 443 728 l 1
 157 728 l 1xf0
EndSplineSet
Validated: 1
EndChar

StartChar: imacron
Encoding: 299 299 235
Width: 599
GlyphClass: 2
Flags: MW
HStem: 0 21G<297 297 297 412> 400 91<84 297 84 412> 596 76<206 486 206 486>
VStem: 206 280<596 672 596 672> 297 115<0 400 400 400>
LayerCount: 2
Fore
SplineSet
297 0 m 1xe8
 297 400 l 1
 84 400 l 1
 84 491 l 1
 412 491 l 1
 412 0 l 1
 297 0 l 1xe8
206 596 m 1xf0
 206 672 l 1
 486 672 l 1
 486 596 l 1
 206 596 l 1xf0
EndSplineSet
Validated: 1
Substitution2: "'ss04' Style Set 4 lookup 2 subtable" imacron.a
EndChar

StartChar: Ibreve
Encoding: 300 300 236
Width: 599
GlyphClass: 2
Flags: MW
HStem: 0 98<84 242 84 242 358 516> 556 98<84 242 84 516 358 358 358 516> 701 69<274.5 325.5 274.5 348>
VStem: 242 116<98 556 98 556> 389 66<834 845>
LayerCount: 2
Fore
SplineSet
84 0 m 1
 84 98 l 1
 242 98 l 1
 242 556 l 1
 84 556 l 1
 84 654 l 1
 516 654 l 1
 516 556 l 1
 358 556 l 1
 358 98 l 1
 516 98 l 1
 516 0 l 1
 84 0 l 1
300 701 m 0
 204 701 154 754 145 834 c 1
 211 845 l 1
 219 801 249 770 300 770 c 0
 351 770 381 801 389 845 c 1
 455 834 l 1
 446 754 396 701 300 701 c 0
EndSplineSet
Validated: 1
EndChar

StartChar: ibreve
Encoding: 301 301 237
Width: 599
GlyphClass: 2
Flags: MW
HStem: 0 21G<297 297 297 412> 400 91<84 297 84 412> 571 74<316.5 375.5 316.5 401.5>
VStem: 183 68<726 737> 297 115<0 400 400 400> 441 68<726 737>
LayerCount: 2
Fore
SplineSet
297 0 m 1
 297 400 l 1
 84 400 l 1
 84 491 l 1
 412 491 l 1
 412 0 l 1
 297 0 l 1
346 571 m 0
 235 571 188 644 183 726 c 1
 251 737 l 1
 258 690 287 645 346 645 c 0
 405 645 434 690 441 737 c 1
 509 726 l 1
 504 644 457 571 346 571 c 0
EndSplineSet
Validated: 1
Substitution2: "'ss04' Style Set 4 lookup 2 subtable" uni012D.a
EndChar

StartChar: Iogonek
Encoding: 302 302 238
Width: 599
GlyphClass: 2
Flags: MW
HStem: -226 77<322.5 328> 0 98<84 242 84 273 84 242 361 361 361 516> 556 98<84 242 84 516 358 358 358 516>
VStem: 199 87<-119.5 -102.5> 242 116<98 556 98 556>
AnchorPoint: "Anchor-0" 300 674 basechar 0
LayerCount: 2
Fore
SplineSet
309 -226 m 0xf0
 247 -226 199 -194 199 -132 c 0
 199 -73 241 -27 273 0 c 1xf0
 84 0 l 1
 84 98 l 1
 242 98 l 1
 242 556 l 1
 84 556 l 1
 84 654 l 1
 516 654 l 1
 516 556 l 1
 358 556 l 1
 358 98 l 1x68
 516 98 l 1
 516 0 l 1
 361 0 l 1
 308 -31 286 -69 286 -104 c 0
 286 -135 310 -149 335 -149 c 0
 353 -149 368 -140 379 -130 c 1
 409 -189 l 1
 384 -210 347 -226 309 -226 c 0xf0
EndSplineSet
Validated: 1
Ligature2: "'ccmp' Glyph Composition/Decomposition lookup 19 subtable" I uni0328
EndChar

StartChar: iogonek
Encoding: 303 303 239
Width: 599
GlyphClass: 2
Flags: MW
HStem: -226 71<363 370.5> -3 21G<412 412> 0 21G<297 328 297 297> 400 91<84 297 84 412> 581 155<322.5 369.5>
VStem: 242 80<-122 -100.5> 264 164<634.5 681> 297 115<0 400 400 400>
AnchorPoint: "Anchor-0" 346 750 basechar 0
LayerCount: 2
Fore
SplineSet
352 -226 m 0xbc
 290 -226 242 -194 242 -130 c 0
 242 -71 282 -28 328 0 c 1xbc
 297 0 l 1xb9
 297 400 l 1
 84 400 l 1
 84 491 l 1
 412 491 l 1
 412 -3 l 1xd9
 349 -29 322 -69 322 -105 c 0
 322 -139 348 -155 378 -155 c 0
 397 -155 413 -147 427 -138 c 1
 455 -190 l 1
 429 -212 389 -226 352 -226 c 0xbc
346 581 m 0xba
 299 581 264 611 264 658 c 0
 264 704 299 736 346 736 c 0
 393 736 428 704 428 658 c 0
 428 611 393 581 346 581 c 0xba
EndSplineSet
Validated: 1
Substitution2: "Single Substitution lookup 34 subtable" iogonek.d
Ligature2: "'ccmp' Glyph Composition/Decomposition lookup 19 subtable" i uni0328
Substitution2: "'ss04' Style Set 4 lookup 2 subtable" iogonek.a
EndChar

StartChar: Idotaccent
Encoding: 304 304 240
Width: 599
GlyphClass: 2
Flags: MW
HStem: 0 98<84 242 84 242 358 516> 556 98<84 242 84 516 358 358 358 516> 707 141<278.5 321.5>
VStem: 225 150<757 799> 242 116<98 556 98 556>
LayerCount: 2
Fore
SplineSet
84 0 m 1xc8
 84 98 l 1
 242 98 l 1
 242 556 l 1
 84 556 l 1
 84 654 l 1
 516 654 l 1
 516 556 l 1
 358 556 l 1
 358 98 l 1
 516 98 l 1
 516 0 l 1
 84 0 l 1xc8
300 707 m 0xf0
 257 707 225 736 225 778 c 0
 225 820 257 848 300 848 c 0
 343 848 375 820 375 778 c 0
 375 736 343 707 300 707 c 0xf0
EndSplineSet
Validated: 1
EndChar

StartChar: dotlessi
Encoding: 305 305 241
Width: 599
GlyphClass: 2
Flags: MW
HStem: 0 21G<297 297 297 412> 400 91<84 297 84 412>
VStem: 297 115<0 400 400 400>
AnchorPoint: "Anchor-6" 354 0 basechar 0
AnchorPoint: "Anchor-3" 346 -20 basechar 0
AnchorPoint: "Anchor-2" 354 0 basechar 0
AnchorPoint: "Anchor-0" 346 512 basechar 0
LayerCount: 2
Fore
SplineSet
297 0 m 1
 297 400 l 1
 84 400 l 1
 84 491 l 1
 412 491 l 1
 412 0 l 1
 297 0 l 1
EndSplineSet
Validated: 1
Substitution2: "'ss04' Style Set 4 lookup 2 subtable" dotlessi.a
EndChar

StartChar: IJ
Encoding: 306 306 242
Width: 599
GlyphClass: 5
Flags: MW
HStem: -174 94<328 354.5 323 407> 0 21G<93 93 93 209> 634 20G<93 209 209 209 391 507 507 507>
VStem: 93 116<0 654 0 654> 391 116<7 8 8 654>
LayerCount: 2
Fore
SplineSet
93 0 m 1
 93 654 l 1
 209 654 l 1
 209 0 l 1
 93 0 l 1
347 -174 m 0
 309 -174 283 -166 263 -159 c 1
 284 -72 l 1
 299 -76 315 -80 331 -80 c 0
 378 -80 391 -50 391 7 c 2
 391 654 l 1
 507 654 l 1
 507 8 l 2
 507 -96 467 -174 347 -174 c 0
EndSplineSet
Validated: 1
EndChar

StartChar: ij
Encoding: 307 307 243
Width: 599
GlyphClass: 5
Flags: MW
HStem: -206 91<346 370 340.5 422> -193 21G<284 284> 0 21G<94 94 94 210> 471 20G<94 210 210 210 404 520 520 520> 577 137<131 173.5 441 483.5>
VStem: 79 147<625.5 666> 94 116<0 491 0 491> 389 147<625.5 666> 404 116<-27 -25 -25 491>
LayerCount: 2
Fore
SplineSet
94 0 m 1xba80
 94 491 l 1
 210 491 l 1
 210 0 l 1
 94 0 l 1xba80
152 577 m 0xbc80
 110 577 79 605 79 646 c 0
 79 686 110 714 152 714 c 0
 195 714 226 686 226 646 c 0
 226 605 195 577 152 577 c 0xbc80
364 -206 m 0
 328 -206 303 -200 284 -193 c 1x7a80
 306 -107 l 1
 319 -111 333 -115 348 -115 c 0
 392 -115 404 -84 404 -27 c 2
 404 491 l 1
 520 491 l 1
 520 -25 l 2
 520 -129 480 -206 364 -206 c 0
462 577 m 0xbb
 420 577 389 605 389 646 c 0
 389 686 420 714 462 714 c 0
 505 714 536 686 536 646 c 0
 536 605 505 577 462 577 c 0xbb
EndSplineSet
Validated: 1
EndChar

StartChar: Jcircumflex
Encoding: 308 308 244
Width: 599
GlyphClass: 2
Flags: MW
HStem: -12 101<247.5 311 247.5 360> 557 97<124 389 124 505> 780 56<324 328 324 324>
VStem: 389 116<226 557 557 557>
LayerCount: 2
Fore
SplineSet
274 -12 m 0
 202 -12 121 19 70 96 c 1
 138 168 l 1
 176 115 224 89 271 89 c 0
 351 89 389 127 389 226 c 2
 389 557 l 1
 124 557 l 1
 124 654 l 1
 505 654 l 1
 505 216 l 2
 505 91 446 -12 274 -12 c 0
217 692 m 1
 167 725 l 1
 264 836 l 1
 388 836 l 1
 485 725 l 1
 435 692 l 1
 328 780 l 1
 324 780 l 1
 217 692 l 1
EndSplineSet
Validated: 1
EndChar

StartChar: jcircumflex
Encoding: 309 309 245
Width: 599
GlyphClass: 2
Flags: MW
HStem: -206 91<173 231 173 279> 400 91<84 297 84 412> 667 75<344 348 344 344>
VStem: 297 115<3 9 9 400 400 400>
LayerCount: 2
Fore
SplineSet
195 -206 m 0
 138 -206 89 -192 49 -173 c 1
 84 -90 l 1
 121 -107 157 -115 189 -115 c 0
 273 -115 297 -74 297 3 c 2
 297 400 l 1
 84 400 l 1
 84 491 l 1
 412 491 l 1
 412 9 l 2
 412 -111 363 -206 195 -206 c 0
222 564 m 1
 177 607 l 1
 288 742 l 1
 404 742 l 1
 515 607 l 1
 470 564 l 1
 348 667 l 1
 344 667 l 1
 222 564 l 1
EndSplineSet
Validated: 1
EndChar

StartChar: uni0136
Encoding: 310 310 246
Width: 599
GlyphClass: 2
Flags: MW
HStem: -233 50<228 238> -101 46<266 290> 0 21G<82 82 82 200 458 458 458 587>
VStem: 82 118<0 193 357 654> 334 85<-152.5 -128.5>
LayerCount: 2
Fore
SplineSet
82 0 m 1
 82 654 l 1
 200 654 l 1
 200 357 l 1
 203 357 l 1
 436 654 l 1
 566 654 l 1
 364 400 l 1
 587 0 l 1
 458 0 l 1
 293 311 l 1
 200 193 l 1
 200 0 l 1
 82 0 l 1
238 -233 m 1
 228 -183 l 1
 309 -178 334 -165 334 -140 c 0
 334 -117 312 -105 266 -101 c 1
 290 -55 l 1
 387 -64 419 -88 419 -135 c 0
 419 -198 353 -228 238 -233 c 1
EndSplineSet
Validated: 1
EndChar

StartChar: uni0137
Encoding: 311 311 247
Width: 599
GlyphClass: 2
Flags: MW
HStem: -233 50<226 236> -101 46<264 288> 0 21G<90 90 90 206 454 454 454 580> 471 20G<431 559 559 559> 686 20G<90 206 206 206>
VStem: 90 116<0 128 264 706> 332 85<-152.5 -128.5>
LayerCount: 2
Fore
SplineSet
90 0 m 1
 90 706 l 1
 206 706 l 1
 206 264 l 1
 210 264 l 1
 431 491 l 1
 559 491 l 1
 368 295 l 1
 580 0 l 1
 454 0 l 1
 299 224 l 1
 206 128 l 1
 206 0 l 1
 90 0 l 1
236 -233 m 1
 226 -183 l 1
 307 -178 332 -165 332 -140 c 0
 332 -117 310 -105 264 -101 c 1
 288 -55 l 1
 385 -64 417 -88 417 -135 c 0
 417 -198 351 -228 236 -233 c 1
EndSplineSet
Validated: 1
EndChar

StartChar: kgreenlandic
Encoding: 312 312 248
Width: 599
GlyphClass: 2
Flags: MW
HStem: 0 21G<90 90 90 206 454 454 454 580> 471 20G<90 206 206 206 431 559 559 559>
VStem: 90 116<0 126 265 491>
LayerCount: 2
Fore
SplineSet
90 0 m 1
 90 491 l 1
 206 491 l 1
 206 265 l 1
 209 266 l 1
 431 491 l 1
 559 491 l 1
 369 293 l 1
 580 0 l 1
 454 0 l 1
 300 217 l 1
 206 126 l 1
 206 0 l 1
 90 0 l 1
EndSplineSet
Validated: 1
EndChar

StartChar: Lacute
Encoding: 313 313 249
Width: 599
GlyphClass: 2
Flags: MW
HStem: 0 98<235 542 235 542>
VStem: 120 115<98 654 98 654 98 654>
LayerCount: 2
Fore
SplineSet
120 0 m 1
 120 654 l 1
 235 654 l 1
 235 98 l 1
 542 98 l 1
 542 0 l 1
 120 0 l 1
158 688 m 1
 107 746 l 1
 263 881 l 1
 326 805 l 1
 158 688 l 1
EndSplineSet
Validated: 1
EndChar

StartChar: lacute
Encoding: 314 314 250
Width: 599
GlyphClass: 2
Flags: MW
HStem: -12 94<404.5 429.5> 615 91<62 226 62 341>
VStem: 226 115<179 615 615 615>
LayerCount: 2
Fore
SplineSet
401 -12 m 0
 287 -12 226 58 226 179 c 2
 226 615 l 1
 62 615 l 1
 62 706 l 1
 341 706 l 1
 341 173 l 2
 341 107 380 82 429 82 c 0
 455 82 482 88 513 101 c 1
 540 16 l 1
 492 -2 458 -12 401 -12 c 0
247 748 m 1
 196 806 l 1
 352 941 l 1
 415 865 l 1
 247 748 l 1
EndSplineSet
Validated: 1
Substitution2: "'ss04' Style Set 4 lookup 2 subtable" lacute.a
EndChar

StartChar: uni013B
Encoding: 315 315 251
Width: 599
GlyphClass: 2
Flags: MW
HStem: -233 50<238 248> -101 46<276 300> 0 98<235 542 235 542>
VStem: 120 115<98 654 98 654 98 654> 344 85<-152.5 -128.5>
LayerCount: 2
Fore
SplineSet
120 0 m 1
 120 654 l 1
 235 654 l 1
 235 98 l 1
 542 98 l 1
 542 0 l 1
 120 0 l 1
248 -233 m 1
 238 -183 l 1
 319 -178 344 -165 344 -140 c 0
 344 -117 322 -105 276 -101 c 1
 300 -55 l 1
 397 -64 429 -88 429 -135 c 0
 429 -198 363 -228 248 -233 c 1
EndSplineSet
Validated: 1
EndChar

StartChar: uni013C
Encoding: 316 316 252
Width: 599
GlyphClass: 2
Flags: MW
HStem: -233 50<272 282> -101 46<310 334> -12 94<404.5 429.5> 615 91<62 226 62 341>
VStem: 226 115<179 615 615 615> 378 85<-152.5 -128.5>
LayerCount: 2
Fore
SplineSet
401 -12 m 0
 287 -12 226 58 226 179 c 2
 226 615 l 1
 62 615 l 1
 62 706 l 1
 341 706 l 1
 341 173 l 2
 341 107 380 82 429 82 c 0
 455 82 482 88 513 101 c 1
 540 16 l 1
 492 -2 458 -12 401 -12 c 0
282 -233 m 1
 272 -183 l 1
 353 -178 378 -165 378 -140 c 0
 378 -117 356 -105 310 -101 c 1
 334 -55 l 1
 431 -64 463 -88 463 -135 c 0
 463 -198 397 -228 282 -233 c 1
EndSplineSet
Validated: 1
Substitution2: "'ss04' Style Set 4 lookup 2 subtable" uni013C.a
EndChar

StartChar: Lcaron
Encoding: 317 317 253
Width: 599
GlyphClass: 2
Flags: MW
HStem: 0 98<235 542 235 542> 512 142<120 375 120 454>
VStem: 120 115<98 654 98 654 98 654> 373 101
LayerCount: 2
Fore
SplineSet
120 0 m 1
 120 654 l 1
 235 654 l 1
 235 98 l 1
 542 98 l 1
 542 0 l 1
 120 0 l 1
375 512 m 1
 371 783 l 1
 474 783 l 1
 473 694 l 1
 454 512 l 1
 375 512 l 1
EndSplineSet
Validated: 1
EndChar

StartChar: lcaron
Encoding: 318 318 254
Width: 599
GlyphClass: 3
Flags: MW
HStem: -12 94<404.5 429.5> 615 91<62 226 62 341>
VStem: 226 115<179 615 615 615> 407 101
LayerCount: 2
Fore
SplineSet
401 -12 m 0
 287 -12 226 58 226 179 c 2
 226 615 l 1
 62 615 l 1
 62 706 l 1
 341 706 l 1
 341 173 l 2
 341 107 380 82 429 82 c 0
 455 82 482 88 513 101 c 1
 540 16 l 1
 492 -2 458 -12 401 -12 c 0
409 548 m 1
 405 819 l 1
 508 819 l 1
 507 730 l 1
 488 548 l 1
 409 548 l 1
EndSplineSet
Validated: 1
Ligature2: "'ccmp' Glyph Composition/Decomposition lookup 19 subtable" l uni030C
Substitution2: "'ss04' Style Set 4 lookup 2 subtable" lcaron.a
EndChar

StartChar: Ldot
Encoding: 319 319 255
Width: 599
GlyphClass: 2
Flags: MW
HStem: 0 98<235 542 235 542> 277 155<447.5 494.5>
VStem: 120 115<98 654 98 654 98 654> 389 164<330.5 377>
LayerCount: 2
Fore
SplineSet
120 0 m 1
 120 654 l 1
 235 654 l 1
 235 98 l 1
 542 98 l 1
 542 0 l 1
 120 0 l 1
471 277 m 0
 424 277 389 307 389 354 c 0
 389 400 424 432 471 432 c 0
 518 432 553 400 553 354 c 0
 553 307 518 277 471 277 c 0
EndSplineSet
Validated: 1
EndChar

StartChar: ldot
Encoding: 320 320 256
Width: 599
GlyphClass: 2
Flags: MW
HStem: -12 94<360.5 385.5> 276 155<538.5 585.5> 615 91<18 182 18 297>
VStem: 182 115<179 615 615 615> 480 164<329.5 376>
LayerCount: 2
Fore
SplineSet
357 -12 m 0
 243 -12 182 58 182 179 c 2
 182 615 l 1
 18 615 l 1
 18 706 l 1
 297 706 l 1
 297 173 l 2
 297 107 336 82 385 82 c 0
 411 82 438 88 469 101 c 1
 496 16 l 1
 448 -2 414 -12 357 -12 c 0
562 276 m 0
 515 276 480 306 480 353 c 0
 480 399 515 431 562 431 c 0
 609 431 644 399 644 353 c 0
 644 306 609 276 562 276 c 0
EndSplineSet
Validated: 1
Substitution2: "'ss04' Style Set 4 lookup 2 subtable" ldot.a
EndChar

StartChar: Lslash
Encoding: 321 321 257
Width: 599
GlyphClass: 2
Flags: MW
HStem: 0 98<235 542 235 542>
VStem: 120 115<98 220 220 220 364 654>
AnchorPoint: "Anchor-3" 342 -20 basechar 0
AnchorPoint: "Anchor-0" 191 674 basechar 0
LayerCount: 2
Fore
SplineSet
41 176 m 1
 1 246 l 1
 120 311 l 1
 120 654 l 1
 235 654 l 1
 235 364 l 1
 430 470 l 1
 470 399 l 1
 235 272 l 1
 235 98 l 1
 542 98 l 1
 542 0 l 1
 120 0 l 1
 120 220 l 1
 41 176 l 1
EndSplineSet
Validated: 1
EndChar

StartChar: lslash
Encoding: 322 322 258
Width: 599
GlyphClass: 2
Flags: MW
HStem: -12 94<404.5 429.5> 615 91<62 226 62 341>
VStem: 226 115<179 306 306 306 454 615 615 615>
AnchorPoint: "Anchor-3" 376 -20 basechar 0
AnchorPoint: "Anchor-0" 280 734 basechar 0
LayerCount: 2
Fore
SplineSet
401 -12 m 0
 287 -12 226 58 226 179 c 2
 226 306 l 1
 130 250 l 1
 90 323 l 1
 226 401 l 1
 226 615 l 1
 62 615 l 1
 62 706 l 1
 341 706 l 1
 341 454 l 1
 476 530 l 1
 515 457 l 1
 341 360 l 1
 341 173 l 2
 341 107 380 82 429 82 c 0
 455 82 482 88 513 101 c 1
 540 16 l 1
 492 -2 458 -12 401 -12 c 0
EndSplineSet
Validated: 1
Substitution2: "'ss04' Style Set 4 lookup 2 subtable" lslash.a
EndChar

StartChar: Nacute
Encoding: 323 323 259
Width: 599
GlyphClass: 2
Flags: MW
HStem: 0 21G<74 74 74 185 404 404 404 526> 0 147<404 431 428 431 428 526> 507 147<169 172 169 169>
VStem: 74 111<0 286 0 654> 415 111<370 654 0 654>
LayerCount: 2
Fore
SplineSet
74 0 m 1xb8
 74 654 l 1
 196 654 l 1
 369 287 l 1
 428 147 l 1
 431 147 l 1x78
 426 214 415 297 415 370 c 2
 415 654 l 1
 526 654 l 1
 526 0 l 1
 404 0 l 1
 231 368 l 1
 172 507 l 1
 169 507 l 1
 174 437 185 359 185 286 c 2
 185 0 l 1
 74 0 l 1xb8
277 688 m 1
 226 746 l 1
 382 881 l 1
 445 805 l 1
 277 688 l 1
EndSplineSet
Validated: 1
EndChar

StartChar: nacute
Encoding: 324 324 260
Width: 599
GlyphClass: 2
Flags: MW
HStem: 0 21G<82 82 82 198 416 416 416 532> 404 99<329.5 357.5> 471 20G<82 177 177 177> 699 20G<472 472>
VStem: 82 100 82 116<0 335 0 491> 416 116<0 289 289 304 0 328.5>
LayerCount: 2
Fore
SplineSet
82 0 m 1xd6
 82 491 l 1xb6
 177 491 l 1xba
 186 417 l 1
 190 417 l 1xda
 236 464 292 503 367 503 c 0
 480 503 532 431 532 304 c 2
 532 0 l 1
 416 0 l 1
 416 289 l 2
 416 368 391 404 324 404 c 0
 276 404 243 381 198 335 c 1
 198 0 l 1
 82 0 l 1xd6
302 564 m 1
 245 621 l 1
 392 796 l 1
 472 719 l 1
 302 564 l 1
EndSplineSet
Validated: 1
EndChar

StartChar: uni0145
Encoding: 325 325 261
Width: 599
GlyphClass: 2
Flags: MW
HStem: -233 50<196 206> -101 46<234 258> 0 21G<74 74 74 185 404 404 404 526> 0 147<404 431 428 431 428 526> 507 147<169 172 169 169>
VStem: 74 111<0 286 0 654> 302 85<-152.5 -128.5> 415 111<370 654 0 654>
LayerCount: 2
Fore
SplineSet
74 0 m 1xed
 74 654 l 1
 196 654 l 1
 369 287 l 1
 428 147 l 1
 431 147 l 1xdd
 426 214 415 297 415 370 c 2
 415 654 l 1
 526 654 l 1
 526 0 l 1
 404 0 l 1
 231 368 l 1
 172 507 l 1
 169 507 l 1
 174 437 185 359 185 286 c 2
 185 0 l 1
 74 0 l 1xed
206 -233 m 1
 196 -183 l 1
 277 -178 302 -165 302 -140 c 0
 302 -117 280 -105 234 -101 c 1
 258 -55 l 1
 355 -64 387 -88 387 -135 c 0xef
 387 -198 321 -228 206 -233 c 1
EndSplineSet
Validated: 1
EndChar

StartChar: uni0146
Encoding: 326 326 262
Width: 599
GlyphClass: 2
Flags: MW
HStem: -233 50<206 216> -101 46<244 268> 0 21G<82 82 82 198 416 416 416 532> 404 99<329.5 357.5> 471 20G<82 177 177 177>
VStem: 82 100 82 116<0 335 0 491> 312 85<-152.5 -128.5> 416 116<0 289 289 304 0 328.5>
LayerCount: 2
Fore
SplineSet
82 0 m 1xf280
 82 491 l 1xeb80
 177 491 l 1xec80
 186 417 l 1
 190 417 l 1xf480
 236 464 292 503 367 503 c 0
 480 503 532 431 532 304 c 2
 532 0 l 1
 416 0 l 1
 416 289 l 2
 416 368 391 404 324 404 c 0
 276 404 243 381 198 335 c 1
 198 0 l 1
 82 0 l 1xf280
216 -233 m 1
 206 -183 l 1
 287 -178 312 -165 312 -140 c 0
 312 -117 290 -105 244 -101 c 1
 268 -55 l 1
 365 -64 397 -88 397 -135 c 0
 397 -198 331 -228 216 -233 c 1
EndSplineSet
Validated: 1
EndChar

StartChar: Ncaron
Encoding: 327 327 263
Width: 599
GlyphClass: 2
Flags: MW
HStem: 0 21G<74 74 74 185 404 404 404 526> 0 147<404 431 428 431 428 526> 507 147<169 172 169 169> 704 56<308 312 308 372>
VStem: 74 111<0 286 0 654> 415 111<370 654 0 654>
LayerCount: 2
Fore
SplineSet
74 0 m 1xbc
 74 654 l 1
 196 654 l 1
 369 287 l 1
 428 147 l 1
 431 147 l 1x7c
 426 214 415 297 415 370 c 2
 415 654 l 1
 526 654 l 1
 526 0 l 1
 404 0 l 1
 231 368 l 1
 172 507 l 1
 169 507 l 1
 174 437 185 359 185 286 c 2
 185 0 l 1
 74 0 l 1xbc
248 704 m 1
 151 816 l 1
 201 848 l 1
 308 760 l 1
 312 760 l 1
 419 848 l 1
 469 816 l 1
 372 704 l 1
 248 704 l 1
EndSplineSet
Validated: 1
EndChar

StartChar: ncaron
Encoding: 328 328 264
Width: 599
GlyphClass: 2
Flags: MW
HStem: 0 21G<82 82 82 198 416 416 416 532> 404 99<329.5 357.5> 471 20G<82 177 177 177> 576 75<258 318 314 318 314 374> 691 20G<147 147 485 485>
VStem: 82 100 82 116<0 335 0 491> 416 116<0 289 289 304 0 328.5>
LayerCount: 2
Fore
SplineSet
82 0 m 1xdb
 82 491 l 1xbb
 177 491 l 1xbd
 186 417 l 1
 190 417 l 1xdd
 236 464 292 503 367 503 c 0
 480 503 532 431 532 304 c 2
 532 0 l 1
 416 0 l 1
 416 289 l 2
 416 368 391 404 324 404 c 0
 276 404 243 381 198 335 c 1
 198 0 l 1
 82 0 l 1xdb
258 576 m 1
 147 711 l 1
 192 753 l 1
 314 651 l 1
 318 651 l 1
 440 753 l 1
 485 711 l 1
 374 576 l 1
 258 576 l 1
EndSplineSet
Validated: 1
EndChar

StartChar: napostrophe
Encoding: 329 329 265
Width: 599
GlyphClass: 2
Flags: MW
HStem: 0 21G<206 206 206 322 506 506 506 621> 404 99<438 457> 471 20G<206 301 301 301> 527 171<29.5 54>
VStem: -31 189<584 601 505 635> 73 85 206 100 206 116<0 339 0 491> 506 115<0 293 293 308 0 331>
LayerCount: 2
Fore
SplineSet
206 0 m 1xc180
 206 491 l 1xb580
 301 491 l 1xa280
 310 421 l 1
 314 421 l 1xc280
 357 466 404 503 472 503 c 0
 574 503 621 432 621 308 c 2
 621 0 l 1
 506 0 l 1
 506 293 l 2
 506 369 484 404 430 404 c 0
 388 404 362 382 322 339 c 1
 322 0 l 1
 206 0 l 1xc180
-1 319 m 1
 -34 382 l 1
 31 416 69 465 73 531 c 1xd580
 66 528 58 527 50 527 c 0
 3 527 -31 560 -31 608 c 0xd980
 -31 662 5 698 54 698 c 0
 118 698 158 645 158 557 c 0
 158 453 102 369 -1 319 c 1
EndSplineSet
Validated: 1
EndChar

StartChar: Eng
Encoding: 330 330 266
Width: 599
GlyphClass: 2
Flags: MW
HStem: -12 109<356 379.5 348 432> 0 21G<75 191 75 75> 565 89 565 101<312.5 351>
VStem: 75 112<584 654 584 654 584 654> 75 116<0 482 0 654> 433 119<239 419.5>
AnchorPoint: "Anchor-3" 304 -20 basechar 0
AnchorPoint: "Anchor-0" 320 674 basechar 0
LayerCount: 2
Fore
SplineSet
369 -12 m 0x96
 343 -12 309 -7 291 4 c 1
 317 105 l 1
 328 100 340 97 356 97 c 0
 403 97 433 145 433 333 c 0
 433 506 387 565 315 565 c 0
 273 565 223 532 191 482 c 1x96
 191 0 l 1
 75 0 l 1
 75 654 l 1x66
 187 654 l 1xaa
 187 584 l 1x9a
 229 633 282 666 343 666 c 0
 463 666 552 577 552 333 c 0
 552 91 495 -12 369 -12 c 0x96
EndSplineSet
Validated: 1
Substitution2: "'ss05' Style Set 5 lookup 3 subtable" uni014A.a
EndChar

StartChar: eng
Encoding: 331 331 267
Width: 599
GlyphClass: 2
Flags: MW
HStem: -185 92<360 382.5 354 434> 0 21G<82 198 82 82 532 532> 404 99<329.5 357.5> 471 20G<82 177 177 177>
VStem: 82 100 82 116<0 335 0 491> 416 116<-2 0 0 289 289 304>
AnchorPoint: "Anchor-3" 342 -212 basechar 0
AnchorPoint: "Anchor-0" 316 512 basechar 0
LayerCount: 2
Fore
SplineSet
378 -185 m 0xe6
 342 -185 316 -178 297 -171 c 1
 318 -85 l 1
 331 -89 346 -93 362 -93 c 0
 403 -93 416 -61 416 -2 c 2
 416 289 l 2
 416 368 391 404 324 404 c 0
 276 404 243 381 198 335 c 1xe6
 198 0 l 1
 82 0 l 1
 82 491 l 1xd6
 177 491 l 1xda
 186 417 l 1
 190 417 l 1xea
 236 464 292 503 367 503 c 0
 480 503 532 431 532 304 c 2
 532 0 l 2
 532 -106 490 -185 378 -185 c 0xe6
EndSplineSet
Validated: 1
EndChar

StartChar: Omacron
Encoding: 332 332 268
Width: 599
GlyphClass: 2
Flags: MW
HStem: -12 101<258 342 258 376> 565 101<258 342> 728 76<157 443 157 443>
VStem: 43 119<253 405 253 437.5> 157 286<728 804 728 804> 438 119<253 405>
LayerCount: 2
Fore
SplineSet
300 -12 m 0xf4
 148 -12 43 111 43 330 c 0
 43 545 148 666 300 666 c 0
 452 666 557 545 557 330 c 0
 557 111 452 -12 300 -12 c 0xf4
300 89 m 0
 384 89 438 176 438 330 c 0
 438 480 384 565 300 565 c 0
 216 565 162 480 162 330 c 0
 162 176 216 89 300 89 c 0
157 728 m 1xe8
 157 804 l 1
 443 804 l 1
 443 728 l 1
 157 728 l 1xe8
EndSplineSet
Validated: 1
MultipleSubs2: "Multiple Substitution lookup 15 subtable" O uni0304
EndChar

StartChar: omacron
Encoding: 333 333 269
Width: 599
GlyphClass: 2
Flags: MW
HStem: -12 94<260 340 260 364.5> 409 94<260 340> 596 76<160 440 160 440>
VStem: 53 119<196 294.5 196 327> 160 280<596 672 596 672> 428 119<196 294.5>
LayerCount: 2
Fore
SplineSet
300 -12 m 0xf4
 171 -12 53 82 53 245 c 0
 53 409 171 503 300 503 c 0
 429 503 547 409 547 245 c 0
 547 82 429 -12 300 -12 c 0xf4
300 82 m 0
 380 82 428 147 428 245 c 0
 428 344 380 409 300 409 c 0
 220 409 172 344 172 245 c 0
 172 147 220 82 300 82 c 0
160 596 m 1xe8
 160 672 l 1
 440 672 l 1
 440 596 l 1
 160 596 l 1xe8
EndSplineSet
Validated: 1
MultipleSubs2: "Multiple Substitution lookup 15 subtable" o uni0304
EndChar

StartChar: Obreve
Encoding: 334 334 270
Width: 599
GlyphClass: 2
Flags: MW
HStem: -12 101<258 342 258 376> 565 101<258 342> 701 69<274.5 325.5 274.5 348>
VStem: 43 119<253 405 253 437.5> 389 66<834 845> 438 119<253 405>
LayerCount: 2
Fore
SplineSet
300 -12 m 0xf4
 148 -12 43 111 43 330 c 0
 43 545 148 666 300 666 c 0
 452 666 557 545 557 330 c 0
 557 111 452 -12 300 -12 c 0xf4
300 89 m 0
 384 89 438 176 438 330 c 0
 438 480 384 565 300 565 c 0
 216 565 162 480 162 330 c 0
 162 176 216 89 300 89 c 0
300 701 m 0
 204 701 154 754 145 834 c 1
 211 845 l 1
 219 801 249 770 300 770 c 0
 351 770 381 801 389 845 c 1
 455 834 l 1xf8
 446 754 396 701 300 701 c 0
EndSplineSet
Validated: 1
EndChar

StartChar: obreve
Encoding: 335 335 271
Width: 599
GlyphClass: 2
Flags: MW
HStem: -12 94<260 340 260 364.5> 409 94<260 340> 571 74<270.5 329.5 270.5 355.5>
VStem: 53 119<196 294.5 196 327> 137 68<726 737> 395 68<726 737> 428 119<196 294.5>
LayerCount: 2
Fore
SplineSet
300 -12 m 0xf2
 171 -12 53 82 53 245 c 0
 53 409 171 503 300 503 c 0
 429 503 547 409 547 245 c 0
 547 82 429 -12 300 -12 c 0xf2
300 82 m 0
 380 82 428 147 428 245 c 0
 428 344 380 409 300 409 c 0
 220 409 172 344 172 245 c 0
 172 147 220 82 300 82 c 0
300 571 m 0xec
 189 571 142 644 137 726 c 1
 205 737 l 1
 212 690 241 645 300 645 c 0
 359 645 388 690 395 737 c 1
 463 726 l 1
 458 644 411 571 300 571 c 0xec
EndSplineSet
Validated: 1
EndChar

StartChar: Ohungarumlaut
Encoding: 336 336 272
Width: 599
GlyphClass: 2
Flags: MW
HStem: -12 101<258 342 258 376> 565 101<258 342>
VStem: 43 119<253 405 253 437.5> 438 119<253 405>
LayerCount: 2
Fore
SplineSet
300 -12 m 0
 148 -12 43 111 43 330 c 0
 43 545 148 666 300 666 c 0
 452 666 557 545 557 330 c 0
 557 111 452 -12 300 -12 c 0
300 89 m 0
 384 89 438 176 438 330 c 0
 438 480 384 565 300 565 c 0
 216 565 162 480 162 330 c 0
 162 176 216 89 300 89 c 0
231 698 m 1
 173 726 l 1
 270 883 l 1
 345 840 l 1
 231 698 l 1
405 698 m 1
 347 726 l 1
 444 883 l 1
 519 840 l 1
 405 698 l 1
EndSplineSet
Validated: 1
EndChar

StartChar: ohungarumlaut
Encoding: 337 337 273
Width: 599
GlyphClass: 2
Flags: MW
HStem: -12 94<260 340 260 364.5> 409 94<260 340>
VStem: 53 119<196 294.5 196 327> 428 119<196 294.5>
LayerCount: 2
Fore
SplineSet
300 -12 m 0
 171 -12 53 82 53 245 c 0
 53 409 171 503 300 503 c 0
 429 503 547 409 547 245 c 0
 547 82 429 -12 300 -12 c 0
300 82 m 0
 380 82 428 147 428 245 c 0
 428 344 380 409 300 409 c 0
 220 409 172 344 172 245 c 0
 172 147 220 82 300 82 c 0
245 566 m 1
 183 594 l 1
 270 771 l 1
 349 735 l 1
 245 566 l 1
410 566 m 1
 348 594 l 1
 435 771 l 1
 514 735 l 1
 410 566 l 1
EndSplineSet
Validated: 1
EndChar

StartChar: OE
Encoding: 338 338 274
Width: 599
GlyphClass: 2
Flags: MW
HStem: 0 94<284 292 292 302 284 593> 0 98<406 593 406 593> 291 98<406 540 406 540> 557 97<406 583 406 406> 560 94<239 583 297 302>
VStem: 26 119<249 411 249 438> 302 104<98 291 389 557>
AnchorPoint: "Anchor-2" 440 0 basechar 0
AnchorPoint: "Anchor-0" 378 674 basechar 0
LayerCount: 2
Fore
SplineSet
292 0 m 2x76
 132 0 26 113 26 330 c 0
 26 546 135 654 297 654 c 2
 583 654 l 1
 583 557 l 1
 406 557 l 1
 406 389 l 1
 540 389 l 1
 540 291 l 1
 406 291 l 1
 406 98 l 1
 593 98 l 1
 593 0 l 1
 292 0 l 2x76
284 94 m 2xae
 302 94 l 1
 302 560 l 1
 284 560 l 2
 194 560 145 492 145 330 c 0
 145 168 194 94 284 94 c 2xae
EndSplineSet
Validated: 1
EndChar

StartChar: oe
Encoding: 339 339 275
Width: 599
GlyphClass: 2
Flags: MW
HStem: -12 92<432 474 432 476.5> -12 94<170.5 217.5> 212 79<353 504 353 590 353 504> 409 94<170.5 218.5 141 220> 414 89<418.5 457>
VStem: 11 106<196 294.5 196 327> 272 81<212 212 212 291 212 295> 504 91<291 291>
AnchorPoint: "Anchor-3" 309 -20 basechar 0
AnchorPoint: "Anchor-2" 446 0 basechar 0
AnchorPoint: "Anchor-0" 317 512 basechar 0
LayerCount: 2
Fore
SplineSet
197 82 m 0x77
 243 82 272 147 272 246 c 0
 272 344 243 409 197 409 c 0
 144 409 117 344 117 245 c 0
 117 147 144 82 197 82 c 0x77
189 -12 m 0
 89 -12 11 82 11 245 c 0
 11 409 91 503 191 503 c 0
 246 503 289 471 316 399 c 1
 342 471 392 503 445 503 c 0
 544 503 595 397 595 272 c 0
 595 249 592 227 590 212 c 1
 353 212 l 1
 361 122 405 80 459 80 c 0
 489 80 514 91 540 109 c 1xb7
 580 33 l 1
 545 6 498 -12 455 -12 c 0
 399 -12 343 17 316 89 c 1
 289 17 246 -12 189 -12 c 0
435 414 m 0x6f
 395 414 362 375 353 291 c 1
 504 291 l 1
 501 375 479 414 435 414 c 0x6f
EndSplineSet
Validated: 1
EndChar

StartChar: Racute
Encoding: 340 340 276
Width: 599
GlyphClass: 2
Flags: MW
HStem: 0 21G<84 84 84 200 438 438 438 569> 256 92<200 290 290 298 200 290> 561 93<200 290 200 200>
VStem: 84 116<0 256 348 561> 429 114<423 497.5>
LayerCount: 2
Fore
SplineSet
84 0 m 1
 84 654 l 1
 302 654 l 2
 438 654 543 606 543 460 c 0
 543 361 491 300 413 273 c 1
 569 0 l 1
 438 0 l 1
 298 256 l 1
 200 256 l 1
 200 0 l 1
 84 0 l 1
200 348 m 1
 290 348 l 2
 380 348 429 386 429 460 c 0
 429 535 380 561 290 561 c 2
 200 561 l 1
 200 348 l 1
269 688 m 1
 218 746 l 1
 374 881 l 1
 437 805 l 1
 269 688 l 1
EndSplineSet
Validated: 1
EndChar

StartChar: racute
Encoding: 341 341 277
Width: 599
GlyphClass: 2
Flags: MW
HStem: 0 21G<130 130 130 246> 401 102<404.5 447.5> 471 20G<130 225 225 225> 483 20 699 20G<504 504>
VStem: 130 100 130 116<0 271 0 491>
LayerCount: 2
Fore
SplineSet
130 0 m 1xca
 130 491 l 1xaa
 225 491 l 1xac
 235 380 l 1
 238 380 l 1
 288 459 362 503 447 503 c 0xcc
 487 503 513 497 542 483 c 1x9a
 518 386 l 1
 486 396 466 401 429 401 c 0
 362 401 296 366 246 271 c 1
 246 0 l 1
 130 0 l 1xca
334 564 m 1
 277 621 l 1
 424 796 l 1
 504 719 l 1
 334 564 l 1
EndSplineSet
Validated: 1
EndChar

StartChar: uni0156
Encoding: 342 342 278
Width: 599
GlyphClass: 2
Flags: MW
HStem: -233 50<216 226> -101 46<254 278> 0 21G<84 84 84 200 438 438 438 569> 256 92<200 290 290 298 200 290> 561 93<200 290 200 200>
VStem: 84 116<0 256 348 561> 322 85<-152.5 -128.5> 429 114<423 497.5>
LayerCount: 2
Fore
SplineSet
84 0 m 1
 84 654 l 1
 302 654 l 2
 438 654 543 606 543 460 c 0
 543 361 491 300 413 273 c 1
 569 0 l 1
 438 0 l 1
 298 256 l 1
 200 256 l 1
 200 0 l 1
 84 0 l 1
200 348 m 1
 290 348 l 2
 380 348 429 386 429 460 c 0
 429 535 380 561 290 561 c 2
 200 561 l 1
 200 348 l 1
226 -233 m 1
 216 -183 l 1
 297 -178 322 -165 322 -140 c 0
 322 -117 300 -105 254 -101 c 1
 278 -55 l 1
 375 -64 407 -88 407 -135 c 0
 407 -198 341 -228 226 -233 c 1
EndSplineSet
Validated: 1
EndChar

StartChar: uni0157
Encoding: 343 343 279
Width: 599
GlyphClass: 2
Flags: MW
HStem: -233 50<92 102> -101 46<130 154> 0 21G<130 130 130 246> 401 102<404.5 447.5> 471 20G<130 225 225 225> 483 20
VStem: 130 100 130 116<-101 271 0 271 0 491> 198 85<-152.5 -128.5>
LayerCount: 2
Fore
SplineSet
130 0 m 1xf1
 130 491 l 1xe9
 225 491 l 1xea
 235 380 l 1
 238 380 l 1
 288 459 362 503 447 503 c 0xf2
 487 503 513 497 542 483 c 1xe5
 518 386 l 1
 486 396 466 401 429 401 c 0
 362 401 296 366 246 271 c 1
 246 0 l 1
 130 0 l 1xf1
102 -233 m 1
 92 -183 l 1
 173 -178 198 -165 198 -140 c 0
 198 -117 176 -105 130 -101 c 1
 154 -55 l 1
 251 -64 283 -88 283 -135 c 0xf080
 283 -198 217 -228 102 -233 c 1
EndSplineSet
Validated: 1
EndChar

StartChar: Rcaron
Encoding: 344 344 280
Width: 599
GlyphClass: 2
Flags: MW
HStem: 0 21G<84 84 84 200 438 438 438 569> 256 92<200 290 290 298 200 290> 561 93<200 290 200 200> 704 56<300 304 300 364>
VStem: 84 116<0 256 348 561> 429 114<423 497.5>
LayerCount: 2
Fore
SplineSet
84 0 m 1
 84 654 l 1
 302 654 l 2
 438 654 543 606 543 460 c 0
 543 361 491 300 413 273 c 1
 569 0 l 1
 438 0 l 1
 298 256 l 1
 200 256 l 1
 200 0 l 1
 84 0 l 1
200 348 m 1
 290 348 l 2
 380 348 429 386 429 460 c 0
 429 535 380 561 290 561 c 2
 200 561 l 1
 200 348 l 1
240 704 m 1
 143 816 l 1
 193 848 l 1
 300 760 l 1
 304 760 l 1
 411 848 l 1
 461 816 l 1
 364 704 l 1
 240 704 l 1
EndSplineSet
Validated: 1
EndChar

StartChar: rcaron
Encoding: 345 345 281
Width: 599
GlyphClass: 2
Flags: MW
HStem: 0 21G<130 130 130 246> 401 102<404.5 447.5> 471 20G<130 225 225 225> 483 20 576 75<290 350 346 350 346 406> 691 20G<179 179 517 517>
VStem: 130 100 130 116<0 271 0 491>
LayerCount: 2
Fore
SplineSet
130 0 m 1xcd
 130 491 l 1xad
 225 491 l 1xae
 235 380 l 1
 238 380 l 1
 288 459 362 503 447 503 c 0xce
 487 503 513 497 542 483 c 1x9d
 518 386 l 1
 486 396 466 401 429 401 c 0
 362 401 296 366 246 271 c 1
 246 0 l 1
 130 0 l 1xcd
290 576 m 1
 179 711 l 1
 224 753 l 1
 346 651 l 1
 350 651 l 1
 472 753 l 1
 517 711 l 1
 406 576 l 1
 290 576 l 1
EndSplineSet
Validated: 1
EndChar

StartChar: Sacute
Encoding: 346 346 282
Width: 599
GlyphClass: 2
Flags: MW
HStem: -12 101<274.5 347 274.5 378> 565 101<277 341>
VStem: 87 117<463 512.5 463 534> 426 118<145 197>
LayerCount: 2
Fore
SplineSet
302 -12 m 0
 210 -12 123 23 58 84 c 1
 126 163 l 1
 175 119 240 89 309 89 c 0
 385 89 426 122 426 168 c 0
 426 226 381 242 316 269 c 2
 227 308 l 2
 158 335 87 386 87 482 c 0
 87 586 181 666 314 666 c 0
 394 666 470 634 524 583 c 1
 464 509 l 1
 420 544 374 565 308 565 c 0
 246 565 204 537 204 488 c 0
 204 438 257 419 316 396 c 2
 402 359 l 2
 485 326 544 277 544 182 c 0
 544 76 454 -12 302 -12 c 0
285 688 m 1
 234 746 l 1
 390 881 l 1
 453 805 l 1
 285 688 l 1
EndSplineSet
Validated: 1
EndChar

StartChar: sacute
Encoding: 347 347 283
Width: 599
GlyphClass: 2
Flags: MW
HStem: -12 87<278 352 278 377.5> 416 87<265.5 327> 699 20G<464 464>
VStem: 92 115<344.5 377 344.5 399> 418 115<117.5 150>
LayerCount: 2
Fore
SplineSet
303 -12 m 0
 211 -12 123 23 62 64 c 1
 112 137 l 1
 171 98 238 75 318 75 c 0
 386 75 418 101 418 134 c 0
 418 166 396 184 282 208 c 0
 151 235 92 282 92 356 c 0
 92 442 170 503 308 503 c 0
 389 503 463 471 513 438 c 1
 460 367 l 1
 412 398 356 416 298 416 c 0
 233 416 207 392 207 362 c 0
 207 327 244 315 335 295 c 0
 492 260 533 218 533 140 c 0
 533 56 452 -12 303 -12 c 0
294 564 m 1
 237 621 l 1
 384 796 l 1
 464 719 l 1
 294 564 l 1
EndSplineSet
Validated: 1
EndChar

StartChar: Scircumflex
Encoding: 348 348 284
Width: 599
GlyphClass: 2
Flags: MW
HStem: -12 101<274.5 347 274.5 378> 565 101<277 341> 780 56<316 320 316 316>
VStem: 87 117<463 512.5 463 534> 426 118<145 197>
LayerCount: 2
Fore
SplineSet
302 -12 m 0
 210 -12 123 23 58 84 c 1
 126 163 l 1
 175 119 240 89 309 89 c 0
 385 89 426 122 426 168 c 0
 426 226 381 242 316 269 c 2
 227 308 l 2
 158 335 87 386 87 482 c 0
 87 586 181 666 314 666 c 0
 394 666 470 634 524 583 c 1
 464 509 l 1
 420 544 374 565 308 565 c 0
 246 565 204 537 204 488 c 0
 204 438 257 419 316 396 c 2
 402 359 l 2
 485 326 544 277 544 182 c 0
 544 76 454 -12 302 -12 c 0
209 692 m 1
 159 725 l 1
 256 836 l 1
 380 836 l 1
 477 725 l 1
 427 692 l 1
 320 780 l 1
 316 780 l 1
 209 692 l 1
EndSplineSet
Validated: 1
EndChar

StartChar: scircumflex
Encoding: 349 349 285
Width: 599
GlyphClass: 2
Flags: MW
HStem: -12 87<278 352 278 377.5> 416 87<265.5 327> 667 75<306 310 306 306>
VStem: 92 115<344.5 377 344.5 399> 418 115<117.5 150>
LayerCount: 2
Fore
SplineSet
303 -12 m 0
 211 -12 123 23 62 64 c 1
 112 137 l 1
 171 98 238 75 318 75 c 0
 386 75 418 101 418 134 c 0
 418 166 396 184 282 208 c 0
 151 235 92 282 92 356 c 0
 92 442 170 503 308 503 c 0
 389 503 463 471 513 438 c 1
 460 367 l 1
 412 398 356 416 298 416 c 0
 233 416 207 392 207 362 c 0
 207 327 244 315 335 295 c 0
 492 260 533 218 533 140 c 0
 533 56 452 -12 303 -12 c 0
184 564 m 1
 139 607 l 1
 250 742 l 1
 366 742 l 1
 477 607 l 1
 432 564 l 1
 310 667 l 1
 306 667 l 1
 184 564 l 1
EndSplineSet
Validated: 1
EndChar

StartChar: uni015E
Encoding: 350 350 286
Width: 599
GlyphClass: 2
Flags: MW
HStem: -233 50<208 218> -11 21G<273 273> -11 100<273 347> 565 101<277 341>
VStem: 87 117<463 512.5 463 534> 314 85<-150.5 -124.5> 426 118<145 197>
LayerCount: 2
Fore
SplineSet
218 -233 m 1xda
 208 -183 l 1
 289 -178 314 -165 314 -136 c 0
 314 -113 296 -99 237 -91 c 1
 273 -11 l 1xde
 192 -4 116 30 58 84 c 1
 126 163 l 1
 175 119 240 89 309 89 c 0
 385 89 426 122 426 168 c 0
 426 226 381 242 316 269 c 2
 227 308 l 2
 158 335 87 386 87 482 c 0
 87 586 181 666 314 666 c 0
 394 666 470 634 524 583 c 1
 464 509 l 1
 420 544 374 565 308 565 c 0
 246 565 204 537 204 488 c 0
 204 438 257 419 316 396 c 2
 402 359 l 2
 485 326 544 277 544 182 c 0xba
 544 86 471 5 344 -10 c 1
 324 -62 l 1
 372 -74 399 -94 399 -135 c 0xde
 399 -198 333 -228 218 -233 c 1xda
EndSplineSet
Validated: 1
EndChar

StartChar: uni015F
Encoding: 351 351 287
Width: 599
GlyphClass: 2
Flags: MW
HStem: -233 50<208 218> -11 86<273 352> 416 87<265.5 327>
VStem: 92 115<344.5 377 344.5 399> 314 85<-150.5 -124.5> 418 115<117.5 150>
LayerCount: 2
Fore
SplineSet
218 -233 m 1
 208 -183 l 1
 289 -178 314 -165 314 -136 c 0
 314 -113 296 -99 237 -91 c 1
 273 -11 l 1
 192 -4 116 28 62 64 c 1
 112 137 l 1
 171 98 238 75 318 75 c 0
 386 75 418 101 418 134 c 0
 418 166 396 184 282 208 c 0
 151 235 92 282 92 356 c 0
 92 442 170 503 308 503 c 0
 389 503 463 471 513 438 c 1
 460 367 l 1
 412 398 356 416 298 416 c 0
 233 416 207 392 207 362 c 0
 207 327 244 315 335 295 c 0
 492 260 533 218 533 140 c 0
 533 64 467 1 344 -10 c 1
 324 -62 l 1
 372 -74 399 -94 399 -135 c 0
 399 -198 333 -228 218 -233 c 1
EndSplineSet
Validated: 1
EndChar

StartChar: Scaron
Encoding: 352 352 288
Width: 599
GlyphClass: 2
Flags: MW
HStem: -12 101<274.5 347 274.5 378> 565 101<277 341> 704 56<316 320 316 380>
VStem: 87 117<463 512.5 463 534> 426 118<145 197>
LayerCount: 2
Fore
SplineSet
302 -12 m 0
 210 -12 123 23 58 84 c 1
 126 163 l 1
 175 119 240 89 309 89 c 0
 385 89 426 122 426 168 c 0
 426 226 381 242 316 269 c 2
 227 308 l 2
 158 335 87 386 87 482 c 0
 87 586 181 666 314 666 c 0
 394 666 470 634 524 583 c 1
 464 509 l 1
 420 544 374 565 308 565 c 0
 246 565 204 537 204 488 c 0
 204 438 257 419 316 396 c 2
 402 359 l 2
 485 326 544 277 544 182 c 0
 544 76 454 -12 302 -12 c 0
256 704 m 1
 159 816 l 1
 209 848 l 1
 316 760 l 1
 320 760 l 1
 427 848 l 1
 477 816 l 1
 380 704 l 1
 256 704 l 1
EndSplineSet
Validated: 1
EndChar

StartChar: scaron
Encoding: 353 353 289
Width: 599
GlyphClass: 2
Flags: MW
HStem: -12 87<278 352 278 377.5> 416 87<265.5 327> 576 75<250 310 306 310 306 366> 691 20G<139 139 477 477>
VStem: 92 115<344.5 377 344.5 399> 418 115<117.5 150>
LayerCount: 2
Fore
SplineSet
303 -12 m 0
 211 -12 123 23 62 64 c 1
 112 137 l 1
 171 98 238 75 318 75 c 0
 386 75 418 101 418 134 c 0
 418 166 396 184 282 208 c 0
 151 235 92 282 92 356 c 0
 92 442 170 503 308 503 c 0
 389 503 463 471 513 438 c 1
 460 367 l 1
 412 398 356 416 298 416 c 0
 233 416 207 392 207 362 c 0
 207 327 244 315 335 295 c 0
 492 260 533 218 533 140 c 0
 533 56 452 -12 303 -12 c 0
250 576 m 1
 139 711 l 1
 184 753 l 1
 306 651 l 1
 310 651 l 1
 432 753 l 1
 477 711 l 1
 366 576 l 1
 250 576 l 1
EndSplineSet
Validated: 1
EndChar

StartChar: uni0162
Encoding: 354 354 290
Width: 599
GlyphClass: 2
Flags: MW
HStem: -233 50<196 206> 0 21G<242 242 242 266 336 336 336 358> 556 98<36 242 36 564 358 358 358 564>
VStem: 242 116<0 556 0 556> 302 85<-150.5 -124.5>
LayerCount: 2
Fore
SplineSet
242 0 m 1xf0
 242 556 l 1
 36 556 l 1
 36 654 l 1
 564 654 l 1
 564 556 l 1
 358 556 l 1
 358 0 l 1
 336 0 l 1xf0
 312 -62 l 1
 360 -74 387 -94 387 -135 c 0
 387 -198 321 -228 206 -233 c 1
 196 -183 l 1
 277 -178 302 -165 302 -136 c 0
 302 -113 284 -99 225 -91 c 1
 266 0 l 1xe8
 242 0 l 1xf0
EndSplineSet
Validated: 1
EndChar

StartChar: uni0163
Encoding: 355 355 291
Width: 599
GlyphClass: 2
Flags: MW
HStem: -233 50<278 288> -11 91<414 414> 400 91<59 195 305 529>
VStem: 190 115<198 400> 203 103 384 85<-150.5 -124.5>
LayerCount: 2
Fore
SplineSet
288 -233 m 1xf4
 278 -183 l 1
 359 -178 384 -165 384 -136 c 0
 384 -113 366 -99 307 -91 c 1
 344 -9 l 1
 230 8 190 86 190 198 c 2
 190 400 l 1xf4
 59 400 l 1
 59 486 l 1
 195 491 l 1
 210 645 l 1xec
 305 645 l 1
 305 491 l 1
 529 491 l 1
 529 400 l 1
 305 400 l 1
 305 198 l 2
 305 117 335 80 419 80 c 0
 460 80 494 88 526 100 c 1
 548 16 l 1
 509 3 467 -9 414 -11 c 1
 394 -62 l 1
 442 -74 469 -94 469 -135 c 0
 469 -198 403 -228 288 -233 c 1xf4
EndSplineSet
Validated: 1
EndChar

StartChar: Tcaron
Encoding: 356 356 292
Width: 599
GlyphClass: 2
Flags: MW
HStem: 0 21G<242 242 242 358> 556 98<36 242 36 564 358 358 358 564> 704 56<298 302 298 362>
VStem: 242 116<0 556 0 556>
LayerCount: 2
Fore
SplineSet
242 0 m 1
 242 556 l 1
 36 556 l 1
 36 654 l 1
 564 654 l 1
 564 556 l 1
 358 556 l 1
 358 0 l 1
 242 0 l 1
238 704 m 1
 141 816 l 1
 191 848 l 1
 298 760 l 1
 302 760 l 1
 409 848 l 1
 459 816 l 1
 362 704 l 1
 238 704 l 1
EndSplineSet
Validated: 1
EndChar

